G04 #@! TF.FileFunction,Copper,L2,Bot,Signal*
%FSLAX46Y46*%
G04 Gerber Fmt 4.6, Leading zero omitted, Abs format (unit mm)*
G04 Created by KiCad (PCBNEW 4.0.1-stable) date 2017/09/30 15:07:11*
%MOMM*%
G01*
G04 APERTURE LIST*
%ADD10C,0.100000*%
%ADD11R,1.850000X1.850000*%
%ADD12O,1.850000X1.850000*%
%ADD13R,1.350000X1.350000*%
%ADD14O,1.350000X1.350000*%
%ADD15C,1.524000*%
%ADD16R,2.000000X2.500000*%
%ADD17C,0.600000*%
%ADD18C,0.200000*%
%ADD19C,0.250000*%
%ADD20C,0.800000*%
%ADD21C,0.500000*%
%ADD22C,0.400000*%
%ADD23C,0.254000*%
G04 APERTURE END LIST*
D10*
D11*
X182000000Y-133000000D03*
D12*
X184540000Y-133000000D03*
D13*
X152000000Y-117500000D03*
D14*
X150000000Y-117500000D03*
X148000000Y-117500000D03*
D13*
X172250000Y-135500000D03*
D14*
X172250000Y-137500000D03*
D13*
X172250000Y-141500000D03*
D14*
X172250000Y-143500000D03*
D15*
X118770000Y-53730000D03*
X116230000Y-53730000D03*
X118770000Y-56270000D03*
X116230000Y-56270000D03*
X85259044Y-97872225D03*
X82872225Y-98740956D03*
X86127775Y-100259044D03*
X83740956Y-101127775D03*
X144770000Y-53730000D03*
X142230000Y-53730000D03*
X144770000Y-56270000D03*
X142230000Y-56270000D03*
X131770000Y-53730000D03*
X129230000Y-53730000D03*
X131770000Y-56270000D03*
X129230000Y-56270000D03*
X170770000Y-53730000D03*
X168230000Y-53730000D03*
X170770000Y-56270000D03*
X168230000Y-56270000D03*
X157770000Y-53730000D03*
X155230000Y-53730000D03*
X157770000Y-56270000D03*
X155230000Y-56270000D03*
X183770000Y-53730000D03*
X181230000Y-53730000D03*
X183770000Y-56270000D03*
X181230000Y-56270000D03*
X217127775Y-98740956D03*
X214740956Y-97872225D03*
X216259044Y-101127775D03*
X213872225Y-100259044D03*
D16*
X211000000Y-114000000D03*
X211000000Y-120000000D03*
X211000000Y-131000000D03*
X211000000Y-137000000D03*
D17*
X143700000Y-120500000D03*
X156100000Y-124700000D03*
X173800000Y-129500000D03*
X167000000Y-130000000D03*
X187700000Y-141100000D03*
X192700000Y-141000000D03*
X181800000Y-129100000D03*
X192500000Y-128900000D03*
X188600000Y-132200000D03*
X192400000Y-135400000D03*
X192000000Y-110600000D03*
X190300000Y-115900000D03*
X183200000Y-116500000D03*
X192600000Y-122100000D03*
X180100000Y-121300000D03*
X167000000Y-122300000D03*
X167000000Y-120200000D03*
X143800000Y-126200000D03*
X202400000Y-92700000D03*
X104000000Y-92800000D03*
X97700000Y-92800000D03*
X116600000Y-130600000D03*
X125200000Y-131100000D03*
X150450000Y-131900000D03*
X174100000Y-136400000D03*
X174100000Y-140100000D03*
X174000000Y-144500000D03*
X165700000Y-144800000D03*
X160800000Y-144800000D03*
X160750000Y-141450000D03*
X160750000Y-137550000D03*
X171800000Y-133600000D03*
X165800000Y-133800000D03*
X161400000Y-133800000D03*
X153300000Y-113100000D03*
X144900000Y-114000000D03*
X142600000Y-118000000D03*
X145800000Y-118000000D03*
X148500000Y-115400000D03*
X155100000Y-117500000D03*
X157300000Y-117700000D03*
X157400000Y-111300000D03*
X150000000Y-111300000D03*
X142500000Y-111300000D03*
X125000000Y-138000000D03*
X124700000Y-140600000D03*
X125000000Y-135400000D03*
X119500000Y-136300000D03*
X116700000Y-134500000D03*
X121700000Y-134800000D03*
X158500000Y-134700000D03*
X132300000Y-130500000D03*
X154400000Y-147800000D03*
X135800000Y-149000000D03*
X131400000Y-137400000D03*
X131000000Y-144400000D03*
X157100000Y-139200000D03*
X203300000Y-90700000D03*
X155900000Y-58800000D03*
X155400000Y-146100000D03*
X130300000Y-128700000D03*
X137700000Y-143850000D03*
X146100000Y-132700000D03*
X143500000Y-135300000D03*
X147100000Y-144250000D03*
X150600000Y-121000000D03*
X145800000Y-122500000D03*
X157100000Y-141000000D03*
X157500000Y-143600000D03*
X117700000Y-144700000D03*
X129600000Y-146500000D03*
X188600000Y-142500000D03*
X177800000Y-141800000D03*
X206500000Y-120500000D03*
X209000000Y-113500000D03*
X206500000Y-137500000D03*
X209000000Y-130500000D03*
X121200000Y-108500000D03*
X133400000Y-111800000D03*
X135000000Y-118200000D03*
X138900000Y-146800000D03*
X97600000Y-94000000D03*
X131500000Y-111800000D03*
X134100000Y-118900000D03*
X134600000Y-123300000D03*
X133700000Y-129000000D03*
X139600000Y-147400000D03*
X202500000Y-94000000D03*
X197200000Y-94000000D03*
X164300000Y-127700000D03*
X159600000Y-133600000D03*
X159600000Y-145600000D03*
X145300000Y-143800000D03*
X148700000Y-139000000D03*
X158300000Y-145700000D03*
X160500000Y-147900000D03*
X164000000Y-149000000D03*
X150200000Y-137400000D03*
X149400000Y-138200000D03*
X141600000Y-125900000D03*
X141600000Y-130600000D03*
X159050000Y-125950000D03*
X156750000Y-120400000D03*
X122500000Y-143800000D03*
X131200000Y-135100000D03*
X149700000Y-147800000D03*
X142300000Y-147200000D03*
X123300000Y-130400000D03*
X122200000Y-129000000D03*
X135000000Y-147400000D03*
X141600000Y-143300000D03*
X137600000Y-128000000D03*
X140500000Y-142100000D03*
X138300000Y-129750000D03*
X139750000Y-142850000D03*
X144300000Y-139500000D03*
X149300000Y-136000000D03*
X148700000Y-136700000D03*
X142400000Y-140400000D03*
X136000000Y-144600000D03*
X136100000Y-115500000D03*
X137700000Y-142900000D03*
X136700000Y-129700000D03*
X136700000Y-122000000D03*
X136100000Y-117000000D03*
X137700000Y-141900000D03*
X136100000Y-112500000D03*
X136800000Y-141800000D03*
X136100000Y-114000000D03*
X162400000Y-118600000D03*
X162000000Y-126300000D03*
X142100000Y-139400000D03*
X163800000Y-114000000D03*
X161700000Y-119300000D03*
X161700000Y-125300000D03*
X141300000Y-139200000D03*
X163800000Y-112500000D03*
X163100000Y-118000000D03*
X161900000Y-127600000D03*
X143300000Y-138500000D03*
X163800000Y-115500000D03*
X145000000Y-137800000D03*
X161000000Y-129500000D03*
X163800000Y-117000000D03*
X153700000Y-142400000D03*
X149500000Y-140200000D03*
X149200000Y-129700000D03*
X147100000Y-131800000D03*
X150200000Y-129700000D03*
X148800000Y-131100000D03*
X149600000Y-121000000D03*
X143600000Y-131100000D03*
D18*
X173800000Y-129500000D02*
X173300000Y-130000000D01*
X173300000Y-130000000D02*
X167000000Y-130000000D01*
D19*
X148000000Y-117500000D02*
X148000000Y-119100000D01*
X148000000Y-117500000D02*
X146400000Y-117500000D01*
X148000000Y-117500000D02*
X148000000Y-116200000D01*
D20*
X182000000Y-133000000D02*
X180100000Y-134900000D01*
X182000000Y-133000000D02*
X180100000Y-131100000D01*
D18*
X187800000Y-141000000D02*
X187700000Y-141100000D01*
X192700000Y-141000000D02*
X187800000Y-141000000D01*
X181800000Y-129100000D02*
X182000000Y-128900000D01*
X182000000Y-128900000D02*
X192500000Y-128900000D01*
X188600000Y-132200000D02*
X191800000Y-135400000D01*
X191800000Y-135400000D02*
X192400000Y-135400000D01*
X183800000Y-115900000D02*
X190300000Y-115900000D01*
X183200000Y-116500000D02*
X183800000Y-115900000D01*
X180900000Y-122100000D02*
X192600000Y-122100000D01*
X180100000Y-121300000D02*
X180900000Y-122100000D01*
X167000000Y-120200000D02*
X167000000Y-122300000D01*
D19*
X177300000Y-111300000D02*
X160300000Y-111300000D01*
X195900000Y-92700000D02*
X177300000Y-111300000D01*
X196700000Y-92700000D02*
X195900000Y-92700000D01*
X202400000Y-92700000D02*
X196700000Y-92700000D01*
X97700000Y-92800000D02*
X104000000Y-92800000D01*
X174200000Y-140850000D02*
X174100000Y-140100000D01*
X174100000Y-144400000D02*
X174200000Y-140850000D01*
X174000000Y-144500000D02*
X174100000Y-144400000D01*
X160800000Y-144800000D02*
X165700000Y-144800000D01*
X161400000Y-133800000D02*
X165800000Y-133800000D01*
X153200000Y-113200000D02*
X153300000Y-113100000D01*
X145700000Y-113200000D02*
X153200000Y-113200000D01*
X144900000Y-114000000D02*
X145700000Y-113200000D01*
X145800000Y-118000000D02*
X142600000Y-118000000D01*
X149500000Y-114400000D02*
X148500000Y-115400000D01*
X153200000Y-114400000D02*
X149500000Y-114400000D01*
X154800000Y-116000000D02*
X153200000Y-114400000D01*
X154900000Y-117300000D02*
X154800000Y-116000000D01*
X155100000Y-117500000D02*
X154900000Y-117300000D01*
X157300000Y-111400000D02*
X157300000Y-117700000D01*
X157400000Y-111300000D02*
X157300000Y-111400000D01*
X142500000Y-111300000D02*
X150000000Y-111300000D01*
X124000000Y-136900000D02*
X124700000Y-140600000D01*
X125000000Y-135400000D02*
X124000000Y-136900000D01*
X121400000Y-134500000D02*
X116700000Y-134500000D01*
X121700000Y-134800000D02*
X121400000Y-134500000D01*
X179100000Y-58800000D02*
X181600000Y-58800000D01*
X172300000Y-58800000D02*
X179100000Y-58800000D01*
X165300000Y-58800000D02*
X172300000Y-58800000D01*
X155900000Y-58800000D02*
X165300000Y-58800000D01*
X203300000Y-90700000D02*
X181600000Y-58800000D01*
X147100000Y-144250000D02*
X153550000Y-144250000D01*
X153550000Y-144250000D02*
X155400000Y-146100000D01*
D21*
X82872225Y-98740956D02*
X82859044Y-98740956D01*
X82859044Y-98740956D02*
X81600000Y-100000000D01*
X132500000Y-128700000D02*
X130300000Y-128700000D01*
X133600000Y-127600000D02*
X132500000Y-128700000D01*
X133600000Y-123400000D02*
X133600000Y-127600000D01*
X132600000Y-122400000D02*
X133600000Y-123400000D01*
X113900000Y-122400000D02*
X132600000Y-122400000D01*
X112200000Y-120700000D02*
X113900000Y-122400000D01*
X112200000Y-108800000D02*
X112200000Y-120700000D01*
X101500000Y-98100000D02*
X112200000Y-108800000D01*
X90500000Y-98100000D02*
X101500000Y-98100000D01*
X85800000Y-102800000D02*
X90500000Y-98100000D01*
X82600000Y-102800000D02*
X85800000Y-102800000D01*
X81600000Y-101800000D02*
X82600000Y-102800000D01*
X81600000Y-100000000D02*
X81600000Y-101800000D01*
D19*
X147100000Y-144250000D02*
X145100000Y-142250000D01*
X141550000Y-142250000D02*
X145100000Y-142250000D01*
X139950000Y-143850000D02*
X141550000Y-142250000D01*
X139650000Y-143850000D02*
X139950000Y-143850000D01*
X139650000Y-143850000D02*
X137700000Y-143850000D01*
X143500000Y-135300000D02*
X146100000Y-132700000D01*
X149100000Y-122500000D02*
X150600000Y-121000000D01*
X145800000Y-122500000D02*
X149100000Y-122500000D01*
X157500000Y-141400000D02*
X157100000Y-141000000D01*
X157500000Y-143600000D02*
X157500000Y-141400000D01*
X118800000Y-145800000D02*
X117700000Y-144700000D01*
X128900000Y-145800000D02*
X118800000Y-145800000D01*
X129600000Y-146500000D02*
X128900000Y-145800000D01*
X178500000Y-142500000D02*
X188600000Y-142500000D01*
X177800000Y-141800000D02*
X178500000Y-142500000D01*
D22*
X211000000Y-120500000D02*
X206500000Y-120500000D01*
X211000000Y-113500000D02*
X209000000Y-113500000D01*
X211000000Y-137500000D02*
X206500000Y-137500000D01*
X211000000Y-130500000D02*
X209000000Y-130500000D01*
D18*
X123500000Y-110800000D02*
X121200000Y-108500000D01*
X132400000Y-110800000D02*
X123500000Y-110800000D01*
X133400000Y-111800000D02*
X132400000Y-110800000D01*
X135600000Y-118800000D02*
X135000000Y-118200000D01*
X135600000Y-123400000D02*
X135600000Y-118800000D01*
X134500000Y-124500000D02*
X135600000Y-123400000D01*
X134500000Y-131400000D02*
X134500000Y-124500000D01*
X137300000Y-134200000D02*
X134500000Y-131400000D01*
X137300000Y-139600000D02*
X137300000Y-134200000D01*
X135300000Y-141600000D02*
X137300000Y-139600000D01*
X135300000Y-145100000D02*
X135300000Y-141600000D01*
X137000000Y-146800000D02*
X135300000Y-145100000D01*
X138900000Y-146800000D02*
X137000000Y-146800000D01*
X103100000Y-94000000D02*
X97600000Y-94000000D01*
X120400000Y-111300000D02*
X103100000Y-94000000D01*
X131000000Y-111300000D02*
X120400000Y-111300000D01*
X131500000Y-111800000D02*
X131000000Y-111300000D01*
X135000000Y-119800000D02*
X134100000Y-118900000D01*
X135000000Y-122900000D02*
X135000000Y-119800000D01*
X134600000Y-123300000D02*
X135000000Y-122900000D01*
X133700000Y-131300000D02*
X133700000Y-129000000D01*
X136800000Y-134400000D02*
X133700000Y-131300000D01*
X136800000Y-139500000D02*
X136800000Y-134400000D01*
X134900000Y-141400000D02*
X136800000Y-139500000D01*
X134900000Y-145400000D02*
X134900000Y-141400000D01*
X136900000Y-147400000D02*
X134900000Y-145400000D01*
X137100000Y-147400000D02*
X136900000Y-147400000D01*
X138100000Y-147400000D02*
X137100000Y-147400000D01*
X139600000Y-147400000D02*
X138100000Y-147400000D01*
D19*
X197200000Y-94000000D02*
X202500000Y-94000000D01*
X164300000Y-128900000D02*
X164300000Y-127700000D01*
X159600000Y-133600000D02*
X164300000Y-128900000D01*
X158300000Y-146900000D02*
X159600000Y-145600000D01*
X155000000Y-146900000D02*
X158300000Y-146900000D01*
X153200000Y-145100000D02*
X155000000Y-146900000D01*
X146600000Y-145100000D02*
X153200000Y-145100000D01*
X145300000Y-143800000D02*
X146600000Y-145100000D01*
X151600000Y-139000000D02*
X148700000Y-139000000D01*
X158300000Y-145700000D02*
X151600000Y-139000000D01*
X161600000Y-149000000D02*
X160500000Y-147900000D01*
X164000000Y-149000000D02*
X161600000Y-149000000D01*
X152000000Y-118700000D02*
X152000000Y-117500000D01*
X152900000Y-119600000D02*
X152000000Y-118700000D01*
X157100000Y-119600000D02*
X152900000Y-119600000D01*
X163100000Y-125600000D02*
X157100000Y-119600000D01*
X163100000Y-128500000D02*
X163100000Y-125600000D01*
X160500000Y-131100000D02*
X163100000Y-128500000D01*
X156500000Y-131100000D02*
X160500000Y-131100000D01*
X150200000Y-137400000D02*
X156500000Y-131100000D01*
X150000000Y-116300000D02*
X150000000Y-117500000D01*
X150700000Y-115600000D02*
X150000000Y-116300000D01*
X152600000Y-115600000D02*
X150700000Y-115600000D01*
X153500000Y-116500000D02*
X152600000Y-115600000D01*
X153500000Y-118000000D02*
X153500000Y-116500000D01*
X154600000Y-119100000D02*
X153500000Y-118000000D01*
X157300000Y-119100000D02*
X154600000Y-119100000D01*
X163600000Y-125400000D02*
X157300000Y-119100000D01*
X163600000Y-128700000D02*
X163600000Y-125400000D01*
X160700000Y-131600000D02*
X163600000Y-128700000D01*
X157000000Y-131600000D02*
X160700000Y-131600000D01*
X150400000Y-138200000D02*
X157000000Y-131600000D01*
X149400000Y-138200000D02*
X150400000Y-138200000D01*
X141600000Y-130600000D02*
X141600000Y-125900000D01*
X159050000Y-122700000D02*
X159050000Y-125950000D01*
X156750000Y-120400000D02*
X159050000Y-122700000D01*
X131200000Y-135100000D02*
X122500000Y-143800000D01*
X142900000Y-147800000D02*
X149700000Y-147800000D01*
X142300000Y-147200000D02*
X142900000Y-147800000D01*
D18*
X123300000Y-129600000D02*
X123300000Y-130400000D01*
X122700000Y-129000000D02*
X123300000Y-129600000D01*
X122200000Y-129000000D02*
X122700000Y-129000000D01*
X135900000Y-147400000D02*
X135000000Y-147400000D01*
X136500000Y-148000000D02*
X135900000Y-147400000D01*
X140300000Y-148000000D02*
X136500000Y-148000000D01*
X141000000Y-147300000D02*
X140300000Y-148000000D01*
X141000000Y-143900000D02*
X141000000Y-147300000D01*
X141600000Y-143300000D02*
X141000000Y-143900000D01*
D19*
X140500000Y-130900000D02*
X137600000Y-128000000D01*
X140500000Y-133200000D02*
X140500000Y-130900000D01*
X140500000Y-136900000D02*
X140500000Y-133200000D01*
X140500000Y-142100000D02*
X140500000Y-136900000D01*
X139900000Y-131350000D02*
X138300000Y-129750000D01*
X139900000Y-141700000D02*
X139900000Y-131350000D01*
X139750000Y-141850000D02*
X139900000Y-141700000D01*
X139750000Y-142850000D02*
X139750000Y-141850000D01*
X147800000Y-136000000D02*
X144300000Y-139500000D01*
X148000000Y-136000000D02*
X147800000Y-136000000D01*
X148200000Y-136000000D02*
X148000000Y-136000000D01*
X148400000Y-136000000D02*
X148200000Y-136000000D01*
X149300000Y-136000000D02*
X148400000Y-136000000D01*
X148100000Y-136700000D02*
X148700000Y-136700000D01*
X144400000Y-140400000D02*
X148100000Y-136700000D01*
X142400000Y-140400000D02*
X144400000Y-140400000D01*
X136100000Y-115500000D02*
X137400000Y-116800000D01*
X136000000Y-141600000D02*
X136000000Y-144600000D01*
X137800000Y-139800000D02*
X136000000Y-141600000D01*
X137800000Y-133900000D02*
X137800000Y-139800000D01*
X135000000Y-131100000D02*
X137800000Y-133900000D01*
X135000000Y-124700000D02*
X135000000Y-131100000D01*
X137400000Y-122300000D02*
X135000000Y-124700000D01*
X137400000Y-116800000D02*
X137400000Y-122300000D01*
X89600000Y-90300000D02*
X89600000Y-94700000D01*
X118770000Y-53730000D02*
X117500000Y-55000000D01*
X117500000Y-55000000D02*
X114700000Y-55000000D01*
X89600000Y-90300000D02*
X114700000Y-55000000D01*
X121600000Y-115500000D02*
X136100000Y-115500000D01*
X102400000Y-96300000D02*
X121600000Y-115500000D01*
X91200000Y-96300000D02*
X102400000Y-96300000D01*
X89600000Y-94700000D02*
X91200000Y-96300000D01*
X137700000Y-142900000D02*
X139300000Y-141300000D01*
X139300000Y-141300000D02*
X139300000Y-133300000D01*
X139300000Y-133300000D02*
X136700000Y-130700000D01*
X136700000Y-130700000D02*
X136700000Y-129700000D01*
X136700000Y-122000000D02*
X136700000Y-118700000D01*
X136700000Y-118700000D02*
X136700000Y-117800000D01*
X136700000Y-117800000D02*
X136700000Y-117600000D01*
X136700000Y-117600000D02*
X136100000Y-117000000D01*
X85259044Y-97872225D02*
X87127775Y-97872225D01*
X122400000Y-117000000D02*
X136100000Y-117000000D01*
X102200000Y-96800000D02*
X122400000Y-117000000D01*
X88200000Y-96800000D02*
X102200000Y-96800000D01*
X87127775Y-97872225D02*
X88200000Y-96800000D01*
X91300000Y-90700000D02*
X91300000Y-94000000D01*
X91300000Y-94000000D02*
X92600000Y-95300000D01*
X92600000Y-95300000D02*
X102800000Y-95300000D01*
X102800000Y-95300000D02*
X120000000Y-112500000D01*
X120000000Y-112500000D02*
X136100000Y-112500000D01*
X91300000Y-90700000D02*
X114100000Y-58500000D01*
X143500000Y-55000000D02*
X139600000Y-55000000D01*
X139600000Y-55000000D02*
X136200000Y-58400000D01*
X136200000Y-58400000D02*
X114100000Y-58500000D01*
X144770000Y-53730000D02*
X143500000Y-55000000D01*
X138600000Y-115000000D02*
X136100000Y-112500000D01*
X138600000Y-122500000D02*
X138600000Y-115000000D01*
X136000000Y-125100000D02*
X138600000Y-122500000D01*
X136000000Y-130700000D02*
X136000000Y-125100000D01*
X138800000Y-133500000D02*
X136000000Y-130700000D01*
X138800000Y-140800000D02*
X138800000Y-133500000D01*
X137700000Y-141900000D02*
X138800000Y-140800000D01*
X138100000Y-116000000D02*
X136100000Y-114000000D01*
X138100000Y-122300000D02*
X138100000Y-116000000D01*
X135500000Y-124900000D02*
X138100000Y-122300000D01*
X135500000Y-130900000D02*
X135500000Y-124900000D01*
X138300000Y-133700000D02*
X135500000Y-130900000D01*
X138300000Y-140300000D02*
X138300000Y-133700000D01*
X136800000Y-141800000D02*
X138300000Y-140300000D01*
X90400000Y-90500000D02*
X90400000Y-94300000D01*
X130500000Y-55000000D02*
X124500000Y-55000000D01*
X131770000Y-53730000D02*
X130500000Y-55000000D01*
X121600000Y-57900000D02*
X113500000Y-57900000D01*
X124500000Y-55000000D02*
X121600000Y-57900000D01*
X90400000Y-90500000D02*
X113500000Y-57900000D01*
X120800000Y-114000000D02*
X136100000Y-114000000D01*
X102600000Y-95800000D02*
X120800000Y-114000000D01*
X91900000Y-95800000D02*
X102600000Y-95800000D01*
X90400000Y-94300000D02*
X91900000Y-95800000D01*
X162400000Y-115400000D02*
X163800000Y-114000000D01*
X162400000Y-115700000D02*
X162400000Y-115400000D01*
X162400000Y-118600000D02*
X162400000Y-115700000D01*
X158700000Y-129600000D02*
X162000000Y-126300000D01*
X155500000Y-129600000D02*
X158700000Y-129600000D01*
X150900000Y-134200000D02*
X155500000Y-129600000D01*
X146500000Y-134200000D02*
X150900000Y-134200000D01*
X142600000Y-138100000D02*
X146500000Y-134200000D01*
X142600000Y-138900000D02*
X142600000Y-138100000D01*
X142100000Y-139400000D02*
X142600000Y-138900000D01*
X211500000Y-92200000D02*
X211500000Y-95600000D01*
X170770000Y-53730000D02*
X173330000Y-53730000D01*
X177300000Y-57700000D02*
X187500000Y-57700000D01*
X173330000Y-53730000D02*
X177300000Y-57700000D01*
X211500000Y-92200000D02*
X187500000Y-57700000D01*
X182000000Y-114000000D02*
X163800000Y-114000000D01*
X198700000Y-97300000D02*
X182000000Y-114000000D01*
X209800000Y-97300000D02*
X198700000Y-97300000D01*
X211500000Y-95600000D02*
X209800000Y-97300000D01*
X161700000Y-114600000D02*
X163800000Y-112500000D01*
X161700000Y-119300000D02*
X161700000Y-114600000D01*
X157900000Y-129100000D02*
X161700000Y-125300000D01*
X155300000Y-129100000D02*
X157900000Y-129100000D01*
X150700000Y-133700000D02*
X155300000Y-129100000D01*
X146200000Y-133700000D02*
X150700000Y-133700000D01*
X142100000Y-137800000D02*
X146200000Y-133700000D01*
X142100000Y-138400000D02*
X142100000Y-137800000D01*
X141300000Y-139200000D02*
X142100000Y-138400000D01*
X210900000Y-92200000D02*
X210900000Y-95500000D01*
X157770000Y-53730000D02*
X160730000Y-53730000D01*
X165200000Y-58200000D02*
X187100000Y-58200000D01*
X160730000Y-53730000D02*
X165200000Y-58200000D01*
X210900000Y-92200000D02*
X187100000Y-58200000D01*
X182800000Y-112500000D02*
X163800000Y-112500000D01*
X198500000Y-96800000D02*
X182800000Y-112500000D01*
X209600000Y-96800000D02*
X198500000Y-96800000D01*
X210900000Y-95500000D02*
X209600000Y-96800000D01*
X163800000Y-115500000D02*
X163100000Y-116200000D01*
X163100000Y-116200000D02*
X163100000Y-118000000D01*
X161900000Y-127600000D02*
X159400000Y-130100000D01*
X159400000Y-130100000D02*
X155700000Y-130100000D01*
X155700000Y-130100000D02*
X151100000Y-134700000D01*
X151100000Y-134700000D02*
X147100000Y-134700000D01*
X147100000Y-134700000D02*
X143300000Y-138500000D01*
X212300000Y-92200000D02*
X212300000Y-95500000D01*
X183770000Y-53730000D02*
X185530000Y-53730000D01*
X185530000Y-53730000D02*
X185600000Y-53800000D01*
X212300000Y-92200000D02*
X185600000Y-53800000D01*
X181200000Y-115500000D02*
X163800000Y-115500000D01*
X198900000Y-97800000D02*
X181200000Y-115500000D01*
X210000000Y-97800000D02*
X198900000Y-97800000D01*
X212300000Y-95500000D02*
X210000000Y-97800000D01*
X147600000Y-135200000D02*
X145000000Y-137800000D01*
X151300000Y-135200000D02*
X147600000Y-135200000D01*
X155900000Y-130600000D02*
X151300000Y-135200000D01*
X159900000Y-130600000D02*
X155900000Y-130600000D01*
X161000000Y-129500000D02*
X159900000Y-130600000D01*
X212300000Y-98300000D02*
X199100000Y-98300000D01*
X215500000Y-99500000D02*
X212300000Y-98300000D01*
X217127775Y-98740956D02*
X215500000Y-99500000D01*
X180400000Y-117000000D02*
X163800000Y-117000000D01*
X199100000Y-98300000D02*
X180400000Y-117000000D01*
X151000000Y-139700000D02*
X153700000Y-142400000D01*
X150000000Y-139700000D02*
X151000000Y-139700000D01*
X149500000Y-140200000D02*
X150000000Y-139700000D01*
D18*
X147100000Y-131800000D02*
X149200000Y-129700000D01*
X148800000Y-131100000D02*
X150200000Y-129700000D01*
X145800000Y-121000000D02*
X149600000Y-121000000D01*
X145100000Y-121700000D02*
X145800000Y-121000000D01*
X145100000Y-129600000D02*
X145100000Y-121700000D01*
X143600000Y-131100000D02*
X145100000Y-129600000D01*
D23*
G36*
X193290000Y-115500000D02*
X193344046Y-115771705D01*
X193373000Y-115815038D01*
X193373000Y-118184962D01*
X193344046Y-118228295D01*
X193290000Y-118500000D01*
X193290000Y-122790000D01*
X167500000Y-122790000D01*
X167228295Y-122844046D01*
X166997954Y-122997954D01*
X166747954Y-123247954D01*
X166594046Y-123478295D01*
X166540000Y-123750000D01*
X166540000Y-127250000D01*
X166594046Y-127521705D01*
X166747954Y-127752046D01*
X166997954Y-128002046D01*
X167228295Y-128155954D01*
X167500000Y-128210000D01*
X193290000Y-128210000D01*
X193290000Y-132500000D01*
X193344046Y-132771705D01*
X193373000Y-132815038D01*
X193373000Y-135184962D01*
X193344046Y-135228295D01*
X193290000Y-135500000D01*
X193290000Y-144705908D01*
X190705908Y-147290000D01*
X172000000Y-147290000D01*
X171728295Y-147344046D01*
X171535301Y-147473000D01*
X161335239Y-147473000D01*
X161293117Y-147371057D01*
X161030327Y-147107808D01*
X160686799Y-146965162D01*
X160314833Y-146964838D01*
X159971057Y-147106883D01*
X159707808Y-147369673D01*
X159565162Y-147713201D01*
X159564838Y-148085167D01*
X159673000Y-148346940D01*
X159673000Y-149290000D01*
X133210000Y-149290000D01*
X133210000Y-148500000D01*
X133155954Y-148228295D01*
X133002046Y-147997954D01*
X132771705Y-147844046D01*
X132500000Y-147790000D01*
X130000000Y-147790000D01*
X129728295Y-147844046D01*
X129535301Y-147973000D01*
X128977092Y-147973000D01*
X128502046Y-147497954D01*
X128271705Y-147344046D01*
X128000000Y-147290000D01*
X109294092Y-147290000D01*
X106889259Y-144885167D01*
X116764838Y-144885167D01*
X116906883Y-145228943D01*
X117169673Y-145492192D01*
X117513201Y-145634838D01*
X117560077Y-145634879D01*
X118262599Y-146337401D01*
X118509161Y-146502148D01*
X118800000Y-146560000D01*
X128585198Y-146560000D01*
X128664878Y-146639680D01*
X128664838Y-146685167D01*
X128806883Y-147028943D01*
X129069673Y-147292192D01*
X129413201Y-147434838D01*
X129785167Y-147435162D01*
X130128943Y-147293117D01*
X130392192Y-147030327D01*
X130534838Y-146686799D01*
X130535162Y-146314833D01*
X130393117Y-145971057D01*
X130130327Y-145707808D01*
X129786799Y-145565162D01*
X129739924Y-145565121D01*
X129437401Y-145262599D01*
X129190839Y-145097852D01*
X128900000Y-145040000D01*
X119114802Y-145040000D01*
X118635122Y-144560320D01*
X118635162Y-144514833D01*
X118493117Y-144171057D01*
X118307552Y-143985167D01*
X121564838Y-143985167D01*
X121706883Y-144328943D01*
X121969673Y-144592192D01*
X122313201Y-144734838D01*
X122685167Y-144735162D01*
X123028943Y-144593117D01*
X123292192Y-144330327D01*
X123434838Y-143986799D01*
X123434879Y-143939923D01*
X131339680Y-136035122D01*
X131385167Y-136035162D01*
X131728943Y-135893117D01*
X131992192Y-135630327D01*
X132134838Y-135286799D01*
X132135162Y-134914833D01*
X131993117Y-134571057D01*
X131730327Y-134307808D01*
X131386799Y-134165162D01*
X131014833Y-134164838D01*
X130671057Y-134306883D01*
X130407808Y-134569673D01*
X130265162Y-134913201D01*
X130265121Y-134960077D01*
X122360320Y-142864878D01*
X122314833Y-142864838D01*
X121971057Y-143006883D01*
X121707808Y-143269673D01*
X121565162Y-143613201D01*
X121564838Y-143985167D01*
X118307552Y-143985167D01*
X118230327Y-143907808D01*
X117886799Y-143765162D01*
X117514833Y-143764838D01*
X117171057Y-143906883D01*
X116907808Y-144169673D01*
X116765162Y-144513201D01*
X116764838Y-144885167D01*
X106889259Y-144885167D01*
X106710000Y-144705908D01*
X106710000Y-138108795D01*
X106864716Y-138108795D01*
X107113106Y-138709943D01*
X107572637Y-139170278D01*
X108173352Y-139419716D01*
X108823795Y-139420284D01*
X109424943Y-139171894D01*
X109885278Y-138712363D01*
X110134716Y-138111648D01*
X110135284Y-137461205D01*
X109886894Y-136860057D01*
X109427363Y-136399722D01*
X108826648Y-136150284D01*
X108176205Y-136149716D01*
X107575057Y-136398106D01*
X107114722Y-136857637D01*
X106865284Y-137458352D01*
X106864716Y-138108795D01*
X106710000Y-138108795D01*
X106710000Y-134000000D01*
X106655954Y-133728295D01*
X106627000Y-133684962D01*
X106627000Y-131315038D01*
X106655954Y-131271705D01*
X106710000Y-131000000D01*
X106710000Y-129927000D01*
X121994325Y-129927000D01*
X122013201Y-129934838D01*
X122385167Y-129935162D01*
X122404921Y-129927000D01*
X122484004Y-129927000D01*
X122365162Y-130213201D01*
X122364838Y-130585167D01*
X122506883Y-130928943D01*
X122769673Y-131192192D01*
X123113201Y-131334838D01*
X123485167Y-131335162D01*
X123828943Y-131193117D01*
X124092192Y-130930327D01*
X124234838Y-130586799D01*
X124235162Y-130214833D01*
X124093117Y-129871057D01*
X124035000Y-129812838D01*
X124035000Y-129727000D01*
X129151531Y-129727000D01*
X129158965Y-129738553D01*
X129200590Y-129766994D01*
X129250000Y-129777000D01*
X132965000Y-129777000D01*
X132965000Y-131300000D01*
X133011713Y-131534838D01*
X133020949Y-131581272D01*
X133180277Y-131819723D01*
X136065000Y-134704447D01*
X136065000Y-139195553D01*
X134380277Y-140880277D01*
X134220949Y-141118728D01*
X134165000Y-141400000D01*
X134165000Y-145400000D01*
X134173000Y-145440218D01*
X134173000Y-146900000D01*
X134179927Y-146936817D01*
X134065162Y-147213201D01*
X134064838Y-147585167D01*
X134206883Y-147928943D01*
X134469673Y-148192192D01*
X134813201Y-148334838D01*
X135185167Y-148335162D01*
X135528943Y-148193117D01*
X135587162Y-148135000D01*
X135595554Y-148135000D01*
X135980276Y-148519723D01*
X136184161Y-148655954D01*
X136218728Y-148679051D01*
X136500000Y-148735000D01*
X140300000Y-148735000D01*
X140581272Y-148679051D01*
X140819723Y-148519723D01*
X140912446Y-148427000D01*
X142496694Y-148427000D01*
X142609161Y-148502148D01*
X142900000Y-148560000D01*
X149137537Y-148560000D01*
X149169673Y-148592192D01*
X149513201Y-148734838D01*
X149885167Y-148735162D01*
X150228943Y-148593117D01*
X150492192Y-148330327D01*
X150634838Y-147986799D01*
X150635162Y-147614833D01*
X150527000Y-147353060D01*
X150527000Y-147227000D01*
X154252198Y-147227000D01*
X154462599Y-147437401D01*
X154709160Y-147602148D01*
X154744417Y-147609161D01*
X155000000Y-147660000D01*
X158300000Y-147660000D01*
X158590839Y-147602148D01*
X158837401Y-147437401D01*
X159739680Y-146535122D01*
X159785167Y-146535162D01*
X160128943Y-146393117D01*
X160392192Y-146130327D01*
X160534838Y-145786799D01*
X160535162Y-145414833D01*
X160393117Y-145071057D01*
X160130327Y-144807808D01*
X159786799Y-144665162D01*
X159744731Y-144665125D01*
X158579606Y-143500000D01*
X170914336Y-143500000D01*
X171014054Y-144001315D01*
X171023000Y-144014704D01*
X171023000Y-144600000D01*
X171031685Y-144646159D01*
X171058965Y-144688553D01*
X171100590Y-144716994D01*
X171150000Y-144727000D01*
X171807068Y-144727000D01*
X172224336Y-144810000D01*
X172275664Y-144810000D01*
X172692932Y-144727000D01*
X173300000Y-144727000D01*
X173346159Y-144718315D01*
X173388553Y-144691035D01*
X173416994Y-144649410D01*
X173427000Y-144600000D01*
X173427000Y-144089534D01*
X173485946Y-144001315D01*
X173585664Y-143500000D01*
X173485946Y-142998685D01*
X173427000Y-142910466D01*
X173427000Y-142565094D01*
X173521431Y-142426890D01*
X173572440Y-142175000D01*
X173572440Y-141985167D01*
X176864838Y-141985167D01*
X177006883Y-142328943D01*
X177269673Y-142592192D01*
X177613201Y-142734838D01*
X177660076Y-142734879D01*
X177962598Y-143037401D01*
X178117405Y-143140839D01*
X178209161Y-143202148D01*
X178500000Y-143260000D01*
X188037537Y-143260000D01*
X188069673Y-143292192D01*
X188413201Y-143434838D01*
X188785167Y-143435162D01*
X189128943Y-143293117D01*
X189392192Y-143030327D01*
X189534838Y-142686799D01*
X189535162Y-142314833D01*
X189393117Y-141971057D01*
X189130327Y-141707808D01*
X188786799Y-141565162D01*
X188414833Y-141564838D01*
X188071057Y-141706883D01*
X188037882Y-141740000D01*
X178814803Y-141740000D01*
X178735122Y-141660320D01*
X178735162Y-141614833D01*
X178593117Y-141271057D01*
X178330327Y-141007808D01*
X177986799Y-140865162D01*
X177614833Y-140864838D01*
X177271057Y-141006883D01*
X177007808Y-141269673D01*
X176865162Y-141613201D01*
X176864838Y-141985167D01*
X173572440Y-141985167D01*
X173572440Y-140825000D01*
X173528162Y-140589683D01*
X173427000Y-140432473D01*
X173427000Y-140400000D01*
X173418315Y-140353841D01*
X173391035Y-140311447D01*
X173349410Y-140283006D01*
X173300000Y-140273000D01*
X173241917Y-140273000D01*
X173176890Y-140228569D01*
X172925000Y-140177560D01*
X171575000Y-140177560D01*
X171339683Y-140221838D01*
X171260175Y-140273000D01*
X171150000Y-140273000D01*
X171103841Y-140281685D01*
X171061447Y-140308965D01*
X171033006Y-140350590D01*
X171023000Y-140400000D01*
X171023000Y-140508083D01*
X170978569Y-140573110D01*
X170927560Y-140825000D01*
X170927560Y-142175000D01*
X170971838Y-142410317D01*
X171023000Y-142489825D01*
X171023000Y-142985296D01*
X171014054Y-142998685D01*
X170914336Y-143500000D01*
X158579606Y-143500000D01*
X158393423Y-143313817D01*
X158293117Y-143071057D01*
X158260000Y-143037882D01*
X158260000Y-141400000D01*
X158202148Y-141109161D01*
X158202148Y-141109160D01*
X158037401Y-140862599D01*
X158035122Y-140860320D01*
X158035162Y-140814833D01*
X157893117Y-140471057D01*
X157630327Y-140207808D01*
X157286799Y-140065162D01*
X156914833Y-140064838D01*
X156653060Y-140173000D01*
X153847802Y-140173000D01*
X152277000Y-138602198D01*
X152277000Y-137500000D01*
X170914336Y-137500000D01*
X171014054Y-138001315D01*
X171023000Y-138014704D01*
X171023000Y-138600000D01*
X171031685Y-138646159D01*
X171058965Y-138688553D01*
X171100590Y-138716994D01*
X171150000Y-138727000D01*
X171807068Y-138727000D01*
X172224336Y-138810000D01*
X172275664Y-138810000D01*
X172692932Y-138727000D01*
X173300000Y-138727000D01*
X173346159Y-138718315D01*
X173388553Y-138691035D01*
X173416994Y-138649410D01*
X173427000Y-138600000D01*
X173427000Y-138108795D01*
X189864716Y-138108795D01*
X190113106Y-138709943D01*
X190572637Y-139170278D01*
X191173352Y-139419716D01*
X191823795Y-139420284D01*
X192424943Y-139171894D01*
X192885278Y-138712363D01*
X193134716Y-138111648D01*
X193135284Y-137461205D01*
X192886894Y-136860057D01*
X192427363Y-136399722D01*
X191826648Y-136150284D01*
X191176205Y-136149716D01*
X190575057Y-136398106D01*
X190114722Y-136857637D01*
X189865284Y-137458352D01*
X189864716Y-138108795D01*
X173427000Y-138108795D01*
X173427000Y-138089534D01*
X173485946Y-138001315D01*
X173585664Y-137500000D01*
X173485946Y-136998685D01*
X173427000Y-136910466D01*
X173427000Y-136565094D01*
X173521431Y-136426890D01*
X173572440Y-136175000D01*
X173572440Y-134825000D01*
X173528162Y-134589683D01*
X173427000Y-134432473D01*
X173427000Y-134400000D01*
X173418315Y-134353841D01*
X173391035Y-134311447D01*
X173349410Y-134283006D01*
X173300000Y-134273000D01*
X173241917Y-134273000D01*
X173176890Y-134228569D01*
X172925000Y-134177560D01*
X171575000Y-134177560D01*
X171339683Y-134221838D01*
X171260175Y-134273000D01*
X171150000Y-134273000D01*
X171103841Y-134281685D01*
X171061447Y-134308965D01*
X171033006Y-134350590D01*
X171023000Y-134400000D01*
X171023000Y-134508083D01*
X170978569Y-134573110D01*
X170927560Y-134825000D01*
X170927560Y-136175000D01*
X170971838Y-136410317D01*
X171023000Y-136489825D01*
X171023000Y-136985296D01*
X171014054Y-136998685D01*
X170914336Y-137500000D01*
X152277000Y-137500000D01*
X152277000Y-137397802D01*
X156047802Y-133627000D01*
X158664976Y-133627000D01*
X158664838Y-133785167D01*
X158806883Y-134128943D01*
X159069673Y-134392192D01*
X159413201Y-134534838D01*
X159785167Y-134535162D01*
X160128943Y-134393117D01*
X160392192Y-134130327D01*
X160534838Y-133786799D01*
X160534879Y-133739923D01*
X160989052Y-133285750D01*
X180440000Y-133285750D01*
X180440000Y-134051309D01*
X180536673Y-134284698D01*
X180715301Y-134463327D01*
X180948690Y-134560000D01*
X181714250Y-134560000D01*
X181873000Y-134401250D01*
X181873000Y-133127000D01*
X180598750Y-133127000D01*
X180440000Y-133285750D01*
X160989052Y-133285750D01*
X162326111Y-131948691D01*
X180440000Y-131948691D01*
X180440000Y-132714250D01*
X180598750Y-132873000D01*
X181873000Y-132873000D01*
X181873000Y-131598750D01*
X182127000Y-131598750D01*
X182127000Y-132873000D01*
X182147000Y-132873000D01*
X182147000Y-133127000D01*
X182127000Y-133127000D01*
X182127000Y-134401250D01*
X182285750Y-134560000D01*
X182790592Y-134560000D01*
X182808965Y-134588553D01*
X182850590Y-134616994D01*
X182900000Y-134627000D01*
X186000000Y-134627000D01*
X186046159Y-134618315D01*
X186088553Y-134591035D01*
X186116994Y-134549410D01*
X186127000Y-134500000D01*
X186127000Y-131500000D01*
X186118315Y-131453841D01*
X186091035Y-131411447D01*
X186049410Y-131383006D01*
X186000000Y-131373000D01*
X182900000Y-131373000D01*
X182853841Y-131381685D01*
X182811447Y-131408965D01*
X182790242Y-131440000D01*
X182285750Y-131440000D01*
X182127000Y-131598750D01*
X181873000Y-131598750D01*
X181714250Y-131440000D01*
X180948690Y-131440000D01*
X180715301Y-131536673D01*
X180536673Y-131715302D01*
X180440000Y-131948691D01*
X162326111Y-131948691D01*
X164837401Y-129437401D01*
X165002148Y-129190839D01*
X165060000Y-128900000D01*
X165060000Y-128262463D01*
X165092192Y-128230327D01*
X165234838Y-127886799D01*
X165235162Y-127514833D01*
X165093117Y-127171057D01*
X164830327Y-126907808D01*
X164486799Y-126765162D01*
X164360000Y-126765052D01*
X164360000Y-125400000D01*
X164302148Y-125109161D01*
X164302148Y-125109160D01*
X164137401Y-124862599D01*
X157837401Y-118562599D01*
X157590839Y-118397852D01*
X157300000Y-118340000D01*
X154914802Y-118340000D01*
X154260000Y-117685198D01*
X154260000Y-116500000D01*
X154222494Y-116311447D01*
X154202148Y-116209160D01*
X154037401Y-115962599D01*
X153137401Y-115062599D01*
X152890839Y-114897852D01*
X152600000Y-114840000D01*
X150700000Y-114840000D01*
X150409161Y-114897852D01*
X150346082Y-114940000D01*
X150162598Y-115062599D01*
X149462599Y-115762599D01*
X149297852Y-116009161D01*
X149245371Y-116273000D01*
X148428174Y-116273000D01*
X148329400Y-116232090D01*
X148262455Y-116273000D01*
X147737545Y-116273000D01*
X147670600Y-116232090D01*
X147571826Y-116273000D01*
X146900000Y-116273000D01*
X146853841Y-116281685D01*
X146811447Y-116308965D01*
X146783006Y-116350590D01*
X146773000Y-116400000D01*
X146773000Y-117086001D01*
X146732080Y-117170598D01*
X146773000Y-117238027D01*
X146773000Y-117761973D01*
X146732080Y-117829402D01*
X146773000Y-117913999D01*
X146773000Y-118600000D01*
X146781685Y-118646159D01*
X146808965Y-118688553D01*
X146850590Y-118716994D01*
X146900000Y-118727000D01*
X147571826Y-118727000D01*
X147670600Y-118767910D01*
X147737545Y-118727000D01*
X148262455Y-118727000D01*
X148329400Y-118767910D01*
X148428174Y-118727000D01*
X149485296Y-118727000D01*
X149498685Y-118735946D01*
X150000000Y-118835664D01*
X150501315Y-118735946D01*
X150514704Y-118727000D01*
X151008083Y-118727000D01*
X151073110Y-118771431D01*
X151261810Y-118809644D01*
X151297852Y-118990839D01*
X151462599Y-119237401D01*
X152362599Y-120137401D01*
X152609160Y-120302148D01*
X152900000Y-120360000D01*
X155815034Y-120360000D01*
X155814838Y-120585167D01*
X155956883Y-120928943D01*
X156219673Y-121192192D01*
X156563201Y-121334838D01*
X156610077Y-121334879D01*
X157873000Y-122597802D01*
X157873000Y-128052198D01*
X157585198Y-128340000D01*
X155300000Y-128340000D01*
X155009160Y-128397852D01*
X154762599Y-128562599D01*
X150385198Y-132940000D01*
X149627000Y-132940000D01*
X149627000Y-131546500D01*
X149734838Y-131286799D01*
X149734910Y-131204536D01*
X150304354Y-130635092D01*
X150385167Y-130635162D01*
X150728943Y-130493117D01*
X150992192Y-130230327D01*
X151134838Y-129886799D01*
X151135162Y-129514833D01*
X150993117Y-129171057D01*
X150730327Y-128907808D01*
X150386799Y-128765162D01*
X150014833Y-128764838D01*
X149699649Y-128895069D01*
X149386799Y-128765162D01*
X149014833Y-128764838D01*
X148671057Y-128906883D01*
X148407808Y-129169673D01*
X148265162Y-129513201D01*
X148265090Y-129595463D01*
X146995645Y-130864908D01*
X146914833Y-130864838D01*
X146571057Y-131006883D01*
X146307808Y-131269673D01*
X146165162Y-131613201D01*
X146165030Y-131765056D01*
X145914833Y-131764838D01*
X145571057Y-131906883D01*
X145307808Y-132169673D01*
X145165162Y-132513201D01*
X145165121Y-132560077D01*
X143360320Y-134364878D01*
X143314833Y-134364838D01*
X143053060Y-134473000D01*
X142227000Y-134473000D01*
X142227000Y-131295231D01*
X142237081Y-131285167D01*
X142664838Y-131285167D01*
X142806883Y-131628943D01*
X143069673Y-131892192D01*
X143413201Y-132034838D01*
X143785167Y-132035162D01*
X144128943Y-131893117D01*
X144392192Y-131630327D01*
X144534838Y-131286799D01*
X144534910Y-131204537D01*
X145619723Y-130119724D01*
X145779051Y-129881272D01*
X145786035Y-129846159D01*
X145835000Y-129600000D01*
X145835000Y-123435031D01*
X145985167Y-123435162D01*
X146328943Y-123293117D01*
X146362118Y-123260000D01*
X149100000Y-123260000D01*
X149390839Y-123202148D01*
X149637401Y-123037401D01*
X150739680Y-121935122D01*
X150785167Y-121935162D01*
X151128943Y-121793117D01*
X151392192Y-121530327D01*
X151534838Y-121186799D01*
X151535162Y-120814833D01*
X151393117Y-120471057D01*
X151130327Y-120207808D01*
X150786799Y-120065162D01*
X150414833Y-120064838D01*
X150099649Y-120195069D01*
X149786799Y-120065162D01*
X149414833Y-120064838D01*
X149071057Y-120206883D01*
X149012838Y-120265000D01*
X145800000Y-120265000D01*
X145565394Y-120311667D01*
X145518727Y-120320949D01*
X145280276Y-120480277D01*
X144580277Y-121180277D01*
X144420949Y-121418728D01*
X144365000Y-121700000D01*
X144365000Y-129295553D01*
X143495645Y-130164908D01*
X143414833Y-130164838D01*
X143071057Y-130306883D01*
X142807808Y-130569673D01*
X142665162Y-130913201D01*
X142664838Y-131285167D01*
X142237081Y-131285167D01*
X142392192Y-131130327D01*
X142534838Y-130786799D01*
X142535162Y-130414833D01*
X142393117Y-130071057D01*
X142360000Y-130037882D01*
X142360000Y-126462463D01*
X142392192Y-126430327D01*
X142534838Y-126086799D01*
X142535162Y-125714833D01*
X142393117Y-125371057D01*
X142130327Y-125107808D01*
X141885932Y-125006326D01*
X139360000Y-122480394D01*
X139360000Y-115000000D01*
X139302148Y-114709161D01*
X139227000Y-114596694D01*
X139227000Y-110710000D01*
X161073000Y-110710000D01*
X161073000Y-114196694D01*
X160997852Y-114309161D01*
X160940000Y-114600000D01*
X160940000Y-118737537D01*
X160907808Y-118769673D01*
X160765162Y-119113201D01*
X160764838Y-119485167D01*
X160906883Y-119828943D01*
X161169673Y-120092192D01*
X161513201Y-120234838D01*
X161885167Y-120235162D01*
X162228943Y-120093117D01*
X162492192Y-119830327D01*
X162620884Y-119520404D01*
X162928943Y-119393117D01*
X163192192Y-119130327D01*
X163273236Y-118935152D01*
X163285167Y-118935162D01*
X163628943Y-118793117D01*
X163892192Y-118530327D01*
X164034838Y-118186799D01*
X164035075Y-117914540D01*
X164328943Y-117793117D01*
X164362118Y-117760000D01*
X180400000Y-117760000D01*
X180690839Y-117702148D01*
X180937401Y-117537401D01*
X184936007Y-113538795D01*
X189864716Y-113538795D01*
X190113106Y-114139943D01*
X190572637Y-114600278D01*
X191173352Y-114849716D01*
X191823795Y-114850284D01*
X192424943Y-114601894D01*
X192885278Y-114142363D01*
X193134716Y-113541648D01*
X193135284Y-112891205D01*
X192886894Y-112290057D01*
X192427363Y-111829722D01*
X191826648Y-111580284D01*
X191176205Y-111579716D01*
X190575057Y-111828106D01*
X190114722Y-112287637D01*
X189865284Y-112888352D01*
X189864716Y-113538795D01*
X184936007Y-113538795D01*
X188347802Y-110127000D01*
X190000000Y-110127000D01*
X190049410Y-110116994D01*
X190089803Y-110089803D01*
X193290000Y-106889606D01*
X193290000Y-115500000D01*
X193290000Y-115500000D01*
G37*
X193290000Y-115500000D02*
X193344046Y-115771705D01*
X193373000Y-115815038D01*
X193373000Y-118184962D01*
X193344046Y-118228295D01*
X193290000Y-118500000D01*
X193290000Y-122790000D01*
X167500000Y-122790000D01*
X167228295Y-122844046D01*
X166997954Y-122997954D01*
X166747954Y-123247954D01*
X166594046Y-123478295D01*
X166540000Y-123750000D01*
X166540000Y-127250000D01*
X166594046Y-127521705D01*
X166747954Y-127752046D01*
X166997954Y-128002046D01*
X167228295Y-128155954D01*
X167500000Y-128210000D01*
X193290000Y-128210000D01*
X193290000Y-132500000D01*
X193344046Y-132771705D01*
X193373000Y-132815038D01*
X193373000Y-135184962D01*
X193344046Y-135228295D01*
X193290000Y-135500000D01*
X193290000Y-144705908D01*
X190705908Y-147290000D01*
X172000000Y-147290000D01*
X171728295Y-147344046D01*
X171535301Y-147473000D01*
X161335239Y-147473000D01*
X161293117Y-147371057D01*
X161030327Y-147107808D01*
X160686799Y-146965162D01*
X160314833Y-146964838D01*
X159971057Y-147106883D01*
X159707808Y-147369673D01*
X159565162Y-147713201D01*
X159564838Y-148085167D01*
X159673000Y-148346940D01*
X159673000Y-149290000D01*
X133210000Y-149290000D01*
X133210000Y-148500000D01*
X133155954Y-148228295D01*
X133002046Y-147997954D01*
X132771705Y-147844046D01*
X132500000Y-147790000D01*
X130000000Y-147790000D01*
X129728295Y-147844046D01*
X129535301Y-147973000D01*
X128977092Y-147973000D01*
X128502046Y-147497954D01*
X128271705Y-147344046D01*
X128000000Y-147290000D01*
X109294092Y-147290000D01*
X106889259Y-144885167D01*
X116764838Y-144885167D01*
X116906883Y-145228943D01*
X117169673Y-145492192D01*
X117513201Y-145634838D01*
X117560077Y-145634879D01*
X118262599Y-146337401D01*
X118509161Y-146502148D01*
X118800000Y-146560000D01*
X128585198Y-146560000D01*
X128664878Y-146639680D01*
X128664838Y-146685167D01*
X128806883Y-147028943D01*
X129069673Y-147292192D01*
X129413201Y-147434838D01*
X129785167Y-147435162D01*
X130128943Y-147293117D01*
X130392192Y-147030327D01*
X130534838Y-146686799D01*
X130535162Y-146314833D01*
X130393117Y-145971057D01*
X130130327Y-145707808D01*
X129786799Y-145565162D01*
X129739924Y-145565121D01*
X129437401Y-145262599D01*
X129190839Y-145097852D01*
X128900000Y-145040000D01*
X119114802Y-145040000D01*
X118635122Y-144560320D01*
X118635162Y-144514833D01*
X118493117Y-144171057D01*
X118307552Y-143985167D01*
X121564838Y-143985167D01*
X121706883Y-144328943D01*
X121969673Y-144592192D01*
X122313201Y-144734838D01*
X122685167Y-144735162D01*
X123028943Y-144593117D01*
X123292192Y-144330327D01*
X123434838Y-143986799D01*
X123434879Y-143939923D01*
X131339680Y-136035122D01*
X131385167Y-136035162D01*
X131728943Y-135893117D01*
X131992192Y-135630327D01*
X132134838Y-135286799D01*
X132135162Y-134914833D01*
X131993117Y-134571057D01*
X131730327Y-134307808D01*
X131386799Y-134165162D01*
X131014833Y-134164838D01*
X130671057Y-134306883D01*
X130407808Y-134569673D01*
X130265162Y-134913201D01*
X130265121Y-134960077D01*
X122360320Y-142864878D01*
X122314833Y-142864838D01*
X121971057Y-143006883D01*
X121707808Y-143269673D01*
X121565162Y-143613201D01*
X121564838Y-143985167D01*
X118307552Y-143985167D01*
X118230327Y-143907808D01*
X117886799Y-143765162D01*
X117514833Y-143764838D01*
X117171057Y-143906883D01*
X116907808Y-144169673D01*
X116765162Y-144513201D01*
X116764838Y-144885167D01*
X106889259Y-144885167D01*
X106710000Y-144705908D01*
X106710000Y-138108795D01*
X106864716Y-138108795D01*
X107113106Y-138709943D01*
X107572637Y-139170278D01*
X108173352Y-139419716D01*
X108823795Y-139420284D01*
X109424943Y-139171894D01*
X109885278Y-138712363D01*
X110134716Y-138111648D01*
X110135284Y-137461205D01*
X109886894Y-136860057D01*
X109427363Y-136399722D01*
X108826648Y-136150284D01*
X108176205Y-136149716D01*
X107575057Y-136398106D01*
X107114722Y-136857637D01*
X106865284Y-137458352D01*
X106864716Y-138108795D01*
X106710000Y-138108795D01*
X106710000Y-134000000D01*
X106655954Y-133728295D01*
X106627000Y-133684962D01*
X106627000Y-131315038D01*
X106655954Y-131271705D01*
X106710000Y-131000000D01*
X106710000Y-129927000D01*
X121994325Y-129927000D01*
X122013201Y-129934838D01*
X122385167Y-129935162D01*
X122404921Y-129927000D01*
X122484004Y-129927000D01*
X122365162Y-130213201D01*
X122364838Y-130585167D01*
X122506883Y-130928943D01*
X122769673Y-131192192D01*
X123113201Y-131334838D01*
X123485167Y-131335162D01*
X123828943Y-131193117D01*
X124092192Y-130930327D01*
X124234838Y-130586799D01*
X124235162Y-130214833D01*
X124093117Y-129871057D01*
X124035000Y-129812838D01*
X124035000Y-129727000D01*
X129151531Y-129727000D01*
X129158965Y-129738553D01*
X129200590Y-129766994D01*
X129250000Y-129777000D01*
X132965000Y-129777000D01*
X132965000Y-131300000D01*
X133011713Y-131534838D01*
X133020949Y-131581272D01*
X133180277Y-131819723D01*
X136065000Y-134704447D01*
X136065000Y-139195553D01*
X134380277Y-140880277D01*
X134220949Y-141118728D01*
X134165000Y-141400000D01*
X134165000Y-145400000D01*
X134173000Y-145440218D01*
X134173000Y-146900000D01*
X134179927Y-146936817D01*
X134065162Y-147213201D01*
X134064838Y-147585167D01*
X134206883Y-147928943D01*
X134469673Y-148192192D01*
X134813201Y-148334838D01*
X135185167Y-148335162D01*
X135528943Y-148193117D01*
X135587162Y-148135000D01*
X135595554Y-148135000D01*
X135980276Y-148519723D01*
X136184161Y-148655954D01*
X136218728Y-148679051D01*
X136500000Y-148735000D01*
X140300000Y-148735000D01*
X140581272Y-148679051D01*
X140819723Y-148519723D01*
X140912446Y-148427000D01*
X142496694Y-148427000D01*
X142609161Y-148502148D01*
X142900000Y-148560000D01*
X149137537Y-148560000D01*
X149169673Y-148592192D01*
X149513201Y-148734838D01*
X149885167Y-148735162D01*
X150228943Y-148593117D01*
X150492192Y-148330327D01*
X150634838Y-147986799D01*
X150635162Y-147614833D01*
X150527000Y-147353060D01*
X150527000Y-147227000D01*
X154252198Y-147227000D01*
X154462599Y-147437401D01*
X154709160Y-147602148D01*
X154744417Y-147609161D01*
X155000000Y-147660000D01*
X158300000Y-147660000D01*
X158590839Y-147602148D01*
X158837401Y-147437401D01*
X159739680Y-146535122D01*
X159785167Y-146535162D01*
X160128943Y-146393117D01*
X160392192Y-146130327D01*
X160534838Y-145786799D01*
X160535162Y-145414833D01*
X160393117Y-145071057D01*
X160130327Y-144807808D01*
X159786799Y-144665162D01*
X159744731Y-144665125D01*
X158579606Y-143500000D01*
X170914336Y-143500000D01*
X171014054Y-144001315D01*
X171023000Y-144014704D01*
X171023000Y-144600000D01*
X171031685Y-144646159D01*
X171058965Y-144688553D01*
X171100590Y-144716994D01*
X171150000Y-144727000D01*
X171807068Y-144727000D01*
X172224336Y-144810000D01*
X172275664Y-144810000D01*
X172692932Y-144727000D01*
X173300000Y-144727000D01*
X173346159Y-144718315D01*
X173388553Y-144691035D01*
X173416994Y-144649410D01*
X173427000Y-144600000D01*
X173427000Y-144089534D01*
X173485946Y-144001315D01*
X173585664Y-143500000D01*
X173485946Y-142998685D01*
X173427000Y-142910466D01*
X173427000Y-142565094D01*
X173521431Y-142426890D01*
X173572440Y-142175000D01*
X173572440Y-141985167D01*
X176864838Y-141985167D01*
X177006883Y-142328943D01*
X177269673Y-142592192D01*
X177613201Y-142734838D01*
X177660076Y-142734879D01*
X177962598Y-143037401D01*
X178117405Y-143140839D01*
X178209161Y-143202148D01*
X178500000Y-143260000D01*
X188037537Y-143260000D01*
X188069673Y-143292192D01*
X188413201Y-143434838D01*
X188785167Y-143435162D01*
X189128943Y-143293117D01*
X189392192Y-143030327D01*
X189534838Y-142686799D01*
X189535162Y-142314833D01*
X189393117Y-141971057D01*
X189130327Y-141707808D01*
X188786799Y-141565162D01*
X188414833Y-141564838D01*
X188071057Y-141706883D01*
X188037882Y-141740000D01*
X178814803Y-141740000D01*
X178735122Y-141660320D01*
X178735162Y-141614833D01*
X178593117Y-141271057D01*
X178330327Y-141007808D01*
X177986799Y-140865162D01*
X177614833Y-140864838D01*
X177271057Y-141006883D01*
X177007808Y-141269673D01*
X176865162Y-141613201D01*
X176864838Y-141985167D01*
X173572440Y-141985167D01*
X173572440Y-140825000D01*
X173528162Y-140589683D01*
X173427000Y-140432473D01*
X173427000Y-140400000D01*
X173418315Y-140353841D01*
X173391035Y-140311447D01*
X173349410Y-140283006D01*
X173300000Y-140273000D01*
X173241917Y-140273000D01*
X173176890Y-140228569D01*
X172925000Y-140177560D01*
X171575000Y-140177560D01*
X171339683Y-140221838D01*
X171260175Y-140273000D01*
X171150000Y-140273000D01*
X171103841Y-140281685D01*
X171061447Y-140308965D01*
X171033006Y-140350590D01*
X171023000Y-140400000D01*
X171023000Y-140508083D01*
X170978569Y-140573110D01*
X170927560Y-140825000D01*
X170927560Y-142175000D01*
X170971838Y-142410317D01*
X171023000Y-142489825D01*
X171023000Y-142985296D01*
X171014054Y-142998685D01*
X170914336Y-143500000D01*
X158579606Y-143500000D01*
X158393423Y-143313817D01*
X158293117Y-143071057D01*
X158260000Y-143037882D01*
X158260000Y-141400000D01*
X158202148Y-141109161D01*
X158202148Y-141109160D01*
X158037401Y-140862599D01*
X158035122Y-140860320D01*
X158035162Y-140814833D01*
X157893117Y-140471057D01*
X157630327Y-140207808D01*
X157286799Y-140065162D01*
X156914833Y-140064838D01*
X156653060Y-140173000D01*
X153847802Y-140173000D01*
X152277000Y-138602198D01*
X152277000Y-137500000D01*
X170914336Y-137500000D01*
X171014054Y-138001315D01*
X171023000Y-138014704D01*
X171023000Y-138600000D01*
X171031685Y-138646159D01*
X171058965Y-138688553D01*
X171100590Y-138716994D01*
X171150000Y-138727000D01*
X171807068Y-138727000D01*
X172224336Y-138810000D01*
X172275664Y-138810000D01*
X172692932Y-138727000D01*
X173300000Y-138727000D01*
X173346159Y-138718315D01*
X173388553Y-138691035D01*
X173416994Y-138649410D01*
X173427000Y-138600000D01*
X173427000Y-138108795D01*
X189864716Y-138108795D01*
X190113106Y-138709943D01*
X190572637Y-139170278D01*
X191173352Y-139419716D01*
X191823795Y-139420284D01*
X192424943Y-139171894D01*
X192885278Y-138712363D01*
X193134716Y-138111648D01*
X193135284Y-137461205D01*
X192886894Y-136860057D01*
X192427363Y-136399722D01*
X191826648Y-136150284D01*
X191176205Y-136149716D01*
X190575057Y-136398106D01*
X190114722Y-136857637D01*
X189865284Y-137458352D01*
X189864716Y-138108795D01*
X173427000Y-138108795D01*
X173427000Y-138089534D01*
X173485946Y-138001315D01*
X173585664Y-137500000D01*
X173485946Y-136998685D01*
X173427000Y-136910466D01*
X173427000Y-136565094D01*
X173521431Y-136426890D01*
X173572440Y-136175000D01*
X173572440Y-134825000D01*
X173528162Y-134589683D01*
X173427000Y-134432473D01*
X173427000Y-134400000D01*
X173418315Y-134353841D01*
X173391035Y-134311447D01*
X173349410Y-134283006D01*
X173300000Y-134273000D01*
X173241917Y-134273000D01*
X173176890Y-134228569D01*
X172925000Y-134177560D01*
X171575000Y-134177560D01*
X171339683Y-134221838D01*
X171260175Y-134273000D01*
X171150000Y-134273000D01*
X171103841Y-134281685D01*
X171061447Y-134308965D01*
X171033006Y-134350590D01*
X171023000Y-134400000D01*
X171023000Y-134508083D01*
X170978569Y-134573110D01*
X170927560Y-134825000D01*
X170927560Y-136175000D01*
X170971838Y-136410317D01*
X171023000Y-136489825D01*
X171023000Y-136985296D01*
X171014054Y-136998685D01*
X170914336Y-137500000D01*
X152277000Y-137500000D01*
X152277000Y-137397802D01*
X156047802Y-133627000D01*
X158664976Y-133627000D01*
X158664838Y-133785167D01*
X158806883Y-134128943D01*
X159069673Y-134392192D01*
X159413201Y-134534838D01*
X159785167Y-134535162D01*
X160128943Y-134393117D01*
X160392192Y-134130327D01*
X160534838Y-133786799D01*
X160534879Y-133739923D01*
X160989052Y-133285750D01*
X180440000Y-133285750D01*
X180440000Y-134051309D01*
X180536673Y-134284698D01*
X180715301Y-134463327D01*
X180948690Y-134560000D01*
X181714250Y-134560000D01*
X181873000Y-134401250D01*
X181873000Y-133127000D01*
X180598750Y-133127000D01*
X180440000Y-133285750D01*
X160989052Y-133285750D01*
X162326111Y-131948691D01*
X180440000Y-131948691D01*
X180440000Y-132714250D01*
X180598750Y-132873000D01*
X181873000Y-132873000D01*
X181873000Y-131598750D01*
X182127000Y-131598750D01*
X182127000Y-132873000D01*
X182147000Y-132873000D01*
X182147000Y-133127000D01*
X182127000Y-133127000D01*
X182127000Y-134401250D01*
X182285750Y-134560000D01*
X182790592Y-134560000D01*
X182808965Y-134588553D01*
X182850590Y-134616994D01*
X182900000Y-134627000D01*
X186000000Y-134627000D01*
X186046159Y-134618315D01*
X186088553Y-134591035D01*
X186116994Y-134549410D01*
X186127000Y-134500000D01*
X186127000Y-131500000D01*
X186118315Y-131453841D01*
X186091035Y-131411447D01*
X186049410Y-131383006D01*
X186000000Y-131373000D01*
X182900000Y-131373000D01*
X182853841Y-131381685D01*
X182811447Y-131408965D01*
X182790242Y-131440000D01*
X182285750Y-131440000D01*
X182127000Y-131598750D01*
X181873000Y-131598750D01*
X181714250Y-131440000D01*
X180948690Y-131440000D01*
X180715301Y-131536673D01*
X180536673Y-131715302D01*
X180440000Y-131948691D01*
X162326111Y-131948691D01*
X164837401Y-129437401D01*
X165002148Y-129190839D01*
X165060000Y-128900000D01*
X165060000Y-128262463D01*
X165092192Y-128230327D01*
X165234838Y-127886799D01*
X165235162Y-127514833D01*
X165093117Y-127171057D01*
X164830327Y-126907808D01*
X164486799Y-126765162D01*
X164360000Y-126765052D01*
X164360000Y-125400000D01*
X164302148Y-125109161D01*
X164302148Y-125109160D01*
X164137401Y-124862599D01*
X157837401Y-118562599D01*
X157590839Y-118397852D01*
X157300000Y-118340000D01*
X154914802Y-118340000D01*
X154260000Y-117685198D01*
X154260000Y-116500000D01*
X154222494Y-116311447D01*
X154202148Y-116209160D01*
X154037401Y-115962599D01*
X153137401Y-115062599D01*
X152890839Y-114897852D01*
X152600000Y-114840000D01*
X150700000Y-114840000D01*
X150409161Y-114897852D01*
X150346082Y-114940000D01*
X150162598Y-115062599D01*
X149462599Y-115762599D01*
X149297852Y-116009161D01*
X149245371Y-116273000D01*
X148428174Y-116273000D01*
X148329400Y-116232090D01*
X148262455Y-116273000D01*
X147737545Y-116273000D01*
X147670600Y-116232090D01*
X147571826Y-116273000D01*
X146900000Y-116273000D01*
X146853841Y-116281685D01*
X146811447Y-116308965D01*
X146783006Y-116350590D01*
X146773000Y-116400000D01*
X146773000Y-117086001D01*
X146732080Y-117170598D01*
X146773000Y-117238027D01*
X146773000Y-117761973D01*
X146732080Y-117829402D01*
X146773000Y-117913999D01*
X146773000Y-118600000D01*
X146781685Y-118646159D01*
X146808965Y-118688553D01*
X146850590Y-118716994D01*
X146900000Y-118727000D01*
X147571826Y-118727000D01*
X147670600Y-118767910D01*
X147737545Y-118727000D01*
X148262455Y-118727000D01*
X148329400Y-118767910D01*
X148428174Y-118727000D01*
X149485296Y-118727000D01*
X149498685Y-118735946D01*
X150000000Y-118835664D01*
X150501315Y-118735946D01*
X150514704Y-118727000D01*
X151008083Y-118727000D01*
X151073110Y-118771431D01*
X151261810Y-118809644D01*
X151297852Y-118990839D01*
X151462599Y-119237401D01*
X152362599Y-120137401D01*
X152609160Y-120302148D01*
X152900000Y-120360000D01*
X155815034Y-120360000D01*
X155814838Y-120585167D01*
X155956883Y-120928943D01*
X156219673Y-121192192D01*
X156563201Y-121334838D01*
X156610077Y-121334879D01*
X157873000Y-122597802D01*
X157873000Y-128052198D01*
X157585198Y-128340000D01*
X155300000Y-128340000D01*
X155009160Y-128397852D01*
X154762599Y-128562599D01*
X150385198Y-132940000D01*
X149627000Y-132940000D01*
X149627000Y-131546500D01*
X149734838Y-131286799D01*
X149734910Y-131204536D01*
X150304354Y-130635092D01*
X150385167Y-130635162D01*
X150728943Y-130493117D01*
X150992192Y-130230327D01*
X151134838Y-129886799D01*
X151135162Y-129514833D01*
X150993117Y-129171057D01*
X150730327Y-128907808D01*
X150386799Y-128765162D01*
X150014833Y-128764838D01*
X149699649Y-128895069D01*
X149386799Y-128765162D01*
X149014833Y-128764838D01*
X148671057Y-128906883D01*
X148407808Y-129169673D01*
X148265162Y-129513201D01*
X148265090Y-129595463D01*
X146995645Y-130864908D01*
X146914833Y-130864838D01*
X146571057Y-131006883D01*
X146307808Y-131269673D01*
X146165162Y-131613201D01*
X146165030Y-131765056D01*
X145914833Y-131764838D01*
X145571057Y-131906883D01*
X145307808Y-132169673D01*
X145165162Y-132513201D01*
X145165121Y-132560077D01*
X143360320Y-134364878D01*
X143314833Y-134364838D01*
X143053060Y-134473000D01*
X142227000Y-134473000D01*
X142227000Y-131295231D01*
X142237081Y-131285167D01*
X142664838Y-131285167D01*
X142806883Y-131628943D01*
X143069673Y-131892192D01*
X143413201Y-132034838D01*
X143785167Y-132035162D01*
X144128943Y-131893117D01*
X144392192Y-131630327D01*
X144534838Y-131286799D01*
X144534910Y-131204537D01*
X145619723Y-130119724D01*
X145779051Y-129881272D01*
X145786035Y-129846159D01*
X145835000Y-129600000D01*
X145835000Y-123435031D01*
X145985167Y-123435162D01*
X146328943Y-123293117D01*
X146362118Y-123260000D01*
X149100000Y-123260000D01*
X149390839Y-123202148D01*
X149637401Y-123037401D01*
X150739680Y-121935122D01*
X150785167Y-121935162D01*
X151128943Y-121793117D01*
X151392192Y-121530327D01*
X151534838Y-121186799D01*
X151535162Y-120814833D01*
X151393117Y-120471057D01*
X151130327Y-120207808D01*
X150786799Y-120065162D01*
X150414833Y-120064838D01*
X150099649Y-120195069D01*
X149786799Y-120065162D01*
X149414833Y-120064838D01*
X149071057Y-120206883D01*
X149012838Y-120265000D01*
X145800000Y-120265000D01*
X145565394Y-120311667D01*
X145518727Y-120320949D01*
X145280276Y-120480277D01*
X144580277Y-121180277D01*
X144420949Y-121418728D01*
X144365000Y-121700000D01*
X144365000Y-129295553D01*
X143495645Y-130164908D01*
X143414833Y-130164838D01*
X143071057Y-130306883D01*
X142807808Y-130569673D01*
X142665162Y-130913201D01*
X142664838Y-131285167D01*
X142237081Y-131285167D01*
X142392192Y-131130327D01*
X142534838Y-130786799D01*
X142535162Y-130414833D01*
X142393117Y-130071057D01*
X142360000Y-130037882D01*
X142360000Y-126462463D01*
X142392192Y-126430327D01*
X142534838Y-126086799D01*
X142535162Y-125714833D01*
X142393117Y-125371057D01*
X142130327Y-125107808D01*
X141885932Y-125006326D01*
X139360000Y-122480394D01*
X139360000Y-115000000D01*
X139302148Y-114709161D01*
X139227000Y-114596694D01*
X139227000Y-110710000D01*
X161073000Y-110710000D01*
X161073000Y-114196694D01*
X160997852Y-114309161D01*
X160940000Y-114600000D01*
X160940000Y-118737537D01*
X160907808Y-118769673D01*
X160765162Y-119113201D01*
X160764838Y-119485167D01*
X160906883Y-119828943D01*
X161169673Y-120092192D01*
X161513201Y-120234838D01*
X161885167Y-120235162D01*
X162228943Y-120093117D01*
X162492192Y-119830327D01*
X162620884Y-119520404D01*
X162928943Y-119393117D01*
X163192192Y-119130327D01*
X163273236Y-118935152D01*
X163285167Y-118935162D01*
X163628943Y-118793117D01*
X163892192Y-118530327D01*
X164034838Y-118186799D01*
X164035075Y-117914540D01*
X164328943Y-117793117D01*
X164362118Y-117760000D01*
X180400000Y-117760000D01*
X180690839Y-117702148D01*
X180937401Y-117537401D01*
X184936007Y-113538795D01*
X189864716Y-113538795D01*
X190113106Y-114139943D01*
X190572637Y-114600278D01*
X191173352Y-114849716D01*
X191823795Y-114850284D01*
X192424943Y-114601894D01*
X192885278Y-114142363D01*
X193134716Y-113541648D01*
X193135284Y-112891205D01*
X192886894Y-112290057D01*
X192427363Y-111829722D01*
X191826648Y-111580284D01*
X191176205Y-111579716D01*
X190575057Y-111828106D01*
X190114722Y-112287637D01*
X189865284Y-112888352D01*
X189864716Y-113538795D01*
X184936007Y-113538795D01*
X188347802Y-110127000D01*
X190000000Y-110127000D01*
X190049410Y-110116994D01*
X190089803Y-110089803D01*
X193290000Y-106889606D01*
X193290000Y-115500000D01*
M02*
