G04 #@! TF.FileFunction,Profile,NP*
%FSLAX46Y46*%
G04 Gerber Fmt 4.6, Leading zero omitted, Abs format (unit mm)*
G04 Created by KiCad (PCBNEW 4.0.1-stable) date 2017/09/30 15:07:11*
%MOMM*%
G01*
G04 APERTURE LIST*
%ADD10C,0.100000*%
%ADD11C,0.150000*%
G04 APERTURE END LIST*
D10*
D11*
X167250000Y-127250000D02*
X167500000Y-127500000D01*
X167250000Y-123750000D02*
X167250000Y-127250000D01*
X167500000Y-123500000D02*
X167250000Y-123750000D01*
X132750000Y-127250000D02*
X132500000Y-127500000D01*
X132750000Y-123750000D02*
X132750000Y-127250000D01*
X132500000Y-123500000D02*
X132750000Y-123750000D01*
X167500000Y-150000000D02*
X132500000Y-150000000D01*
X167500000Y-148500000D02*
X167500000Y-150000000D01*
X170000000Y-148500000D02*
X167500000Y-148500000D01*
X170000000Y-150000000D02*
X170000000Y-148500000D01*
X132500000Y-148500000D02*
X132500000Y-150000000D01*
X130000000Y-148500000D02*
X132500000Y-148500000D01*
X130000000Y-150000000D02*
X130000000Y-148500000D01*
X103000000Y-143500000D02*
X103000000Y-136000000D01*
X104500000Y-143500000D02*
X103000000Y-143500000D01*
X104500000Y-146000000D02*
X104500000Y-143500000D01*
X103000000Y-146000000D02*
X104500000Y-146000000D01*
X103000000Y-108500000D02*
X103000000Y-116000000D01*
X104500000Y-108500000D02*
X103000000Y-108500000D01*
X104500000Y-106000000D02*
X104500000Y-108500000D01*
X103000000Y-106000000D02*
X104500000Y-106000000D01*
X198500000Y-129750000D02*
X212000000Y-129750000D01*
X197000000Y-131250000D02*
X198500000Y-129750000D01*
X197000000Y-132500000D02*
X197000000Y-131250000D01*
X198500000Y-138250000D02*
X212000000Y-138250000D01*
X197000000Y-136750000D02*
X198500000Y-138250000D01*
X197000000Y-135500000D02*
X197000000Y-136750000D01*
X212000000Y-129750000D02*
X212000000Y-138250000D01*
X198500000Y-112750000D02*
X212000000Y-112750000D01*
X197000000Y-114250000D02*
X198500000Y-112750000D01*
X197000000Y-115500000D02*
X197000000Y-114250000D01*
X197000000Y-119750000D02*
X197000000Y-118500000D01*
X198500000Y-121250000D02*
X197000000Y-119750000D01*
X212000000Y-121250000D02*
X198500000Y-121250000D01*
X212000000Y-112750000D02*
X212000000Y-121250000D01*
X194000000Y-135500000D02*
X194000000Y-145000000D01*
X197000000Y-135500000D02*
X194000000Y-135500000D01*
X194000000Y-132500000D02*
X197000000Y-132500000D01*
X194000000Y-127500000D02*
X194000000Y-132500000D01*
X194000000Y-118500000D02*
X197000000Y-118500000D01*
X194000000Y-123500000D02*
X194000000Y-118500000D01*
X194000000Y-115500000D02*
X197000000Y-115500000D01*
X194000000Y-106000000D02*
X194000000Y-115500000D01*
X125000000Y-110000000D02*
X175000000Y-110000000D01*
X195000000Y-90000000D02*
X175000000Y-110000000D01*
X105000000Y-90000000D02*
X125000000Y-110000000D01*
X102000000Y-87000000D02*
X105000000Y-90000000D01*
X198000000Y-87000000D02*
X195000000Y-90000000D01*
X194000000Y-127500000D02*
X167500000Y-127500000D01*
X194000000Y-123500000D02*
X167500000Y-123500000D01*
X106000000Y-106000000D02*
X106000000Y-123500000D01*
X106000000Y-131000000D02*
X106000000Y-127500000D01*
X103000000Y-136000000D02*
X101000000Y-134000000D01*
X93000000Y-126000000D02*
X98000000Y-131000000D01*
X106000000Y-131000000D02*
X98000000Y-131000000D01*
X106000000Y-134000000D02*
X101000000Y-134000000D01*
X106000000Y-145000000D02*
X106000000Y-134000000D01*
X106000000Y-127500000D02*
X132500000Y-127500000D01*
X106000000Y-123500000D02*
X132500000Y-123500000D01*
X83000000Y-126000000D02*
X103000000Y-106000000D01*
X103000000Y-146000000D02*
X83000000Y-126000000D01*
X103000000Y-116000000D02*
X93000000Y-126000000D01*
X120000000Y-60000000D02*
X102000000Y-87000000D01*
X180000000Y-60000000D02*
X198000000Y-87000000D01*
X120000000Y-60000000D02*
X180000000Y-60000000D01*
X172000000Y-148000000D02*
X170000000Y-150000000D01*
X128000000Y-148000000D02*
X130000000Y-150000000D01*
X191000000Y-148000000D02*
X172000000Y-148000000D01*
X109000000Y-148000000D02*
X128000000Y-148000000D01*
X194000000Y-145000000D02*
X191000000Y-148000000D01*
X106000000Y-145000000D02*
X109000000Y-148000000D01*
X200000000Y-100000000D02*
X194000000Y-106000000D01*
X100000000Y-100000000D02*
X106000000Y-106000000D01*
X90000000Y-100000000D02*
X100000000Y-100000000D01*
X80000000Y-110000000D02*
X90000000Y-100000000D01*
X80000000Y-100000000D02*
X80000000Y-110000000D01*
X115000000Y-50000000D02*
X80000000Y-100000000D01*
X210000000Y-100000000D02*
X200000000Y-100000000D01*
X220000000Y-110000000D02*
X210000000Y-100000000D01*
X220000000Y-100000000D02*
X220000000Y-110000000D01*
X185000000Y-50000000D02*
X220000000Y-100000000D01*
X115000000Y-50000000D02*
X185000000Y-50000000D01*
M02*
