G04 #@! TF.FileFunction,Soldermask,Top*
%FSLAX46Y46*%
G04 Gerber Fmt 4.6, Leading zero omitted, Abs format (unit mm)*
G04 Created by KiCad (PCBNEW 4.0.1-stable) date 2017/09/30 15:07:11*
%MOMM*%
G01*
G04 APERTURE LIST*
%ADD10C,0.100000*%
%ADD11R,2.200000X2.700000*%
%ADD12R,1.950000X0.650000*%
%ADD13R,1.400000X0.600000*%
%ADD14R,1.200000X0.950000*%
%ADD15R,0.950000X1.200000*%
%ADD16R,2.200000X1.800000*%
%ADD17R,1.000000X1.000000*%
%ADD18R,1.000000X1.100000*%
%ADD19R,2.700000X1.700000*%
%ADD20R,2.050000X2.050000*%
%ADD21O,2.050000X2.050000*%
%ADD22R,1.700000X2.700000*%
%ADD23R,1.550000X1.550000*%
%ADD24O,1.550000X1.550000*%
%ADD25R,1.700000X1.000000*%
%ADD26R,1.200000X1.100000*%
%ADD27R,1.100000X1.200000*%
%ADD28R,1.600000X0.500000*%
%ADD29R,0.500000X1.600000*%
%ADD30R,1.950000X0.750000*%
%ADD31R,2.400000X4.000000*%
%ADD32R,2.400000X1.700000*%
%ADD33R,1.600000X0.400000*%
%ADD34R,1.700000X0.400000*%
%ADD35R,0.400000X1.600000*%
%ADD36R,0.400000X1.700000*%
%ADD37C,1.724000*%
%ADD38R,1.750000X1.500000*%
%ADD39R,1.900000X1.500000*%
%ADD40R,2.100000X1.500000*%
%ADD41R,1.400000X5.200000*%
%ADD42C,2.200000*%
%ADD43R,1.200000X2.700000*%
G04 APERTURE END LIST*
D10*
D11*
X211000000Y-131000000D03*
X211000000Y-137000000D03*
D12*
X162600000Y-143075000D03*
X162600000Y-142425000D03*
X162600000Y-141775000D03*
X162600000Y-141125000D03*
X162600000Y-140475000D03*
X162600000Y-139825000D03*
X162600000Y-139175000D03*
X162600000Y-138525000D03*
X162600000Y-137875000D03*
X162600000Y-137225000D03*
X162600000Y-136575000D03*
X162600000Y-135925000D03*
X155400000Y-135925000D03*
X155400000Y-136575000D03*
X155400000Y-137225000D03*
X155400000Y-137875000D03*
X155400000Y-138525000D03*
X155400000Y-139175000D03*
X155400000Y-139825000D03*
X155400000Y-140475000D03*
X155400000Y-141125000D03*
X155400000Y-141775000D03*
X155400000Y-142425000D03*
X155400000Y-143075000D03*
D13*
X207650000Y-136275000D03*
X207650000Y-135625000D03*
X207650000Y-134975000D03*
X207650000Y-134325000D03*
X207650000Y-133675000D03*
X207650000Y-133025000D03*
X207650000Y-132375000D03*
X207650000Y-131725000D03*
X200750000Y-131725000D03*
X200750000Y-132375000D03*
X200750000Y-133025000D03*
X200750000Y-133675000D03*
X200750000Y-134325000D03*
X200750000Y-134975000D03*
X200750000Y-135625000D03*
X200750000Y-136275000D03*
D14*
X133050000Y-138600000D03*
X131350000Y-138600000D03*
D15*
X131600000Y-142050000D03*
X131600000Y-140350000D03*
X133000000Y-142050000D03*
X133000000Y-140350000D03*
D14*
X134450000Y-144400000D03*
X132750000Y-144400000D03*
X136850000Y-131500000D03*
X138550000Y-131500000D03*
X147450000Y-146500000D03*
X149150000Y-146500000D03*
D16*
X128500000Y-143000000D03*
X124500000Y-143000000D03*
D14*
X147450000Y-145200000D03*
X149150000Y-145200000D03*
D16*
X128500000Y-133000000D03*
X124500000Y-133000000D03*
D14*
X148250000Y-133100000D03*
X149950000Y-133100000D03*
X148250000Y-134500000D03*
X149950000Y-134500000D03*
X156950000Y-144700000D03*
X155250000Y-144700000D03*
X155450000Y-134000000D03*
X157150000Y-134000000D03*
X151650000Y-121000000D03*
X153350000Y-121000000D03*
X148350000Y-121000000D03*
X146650000Y-121000000D03*
D15*
X146000000Y-124650000D03*
X146000000Y-126350000D03*
X198750000Y-118100000D03*
X198750000Y-116400000D03*
X198750000Y-135100000D03*
X198750000Y-133400000D03*
D17*
X149200000Y-55000000D03*
X150800000Y-55000000D03*
X95800000Y-94000000D03*
X94200000Y-94000000D03*
X204200000Y-94000000D03*
X205800000Y-94000000D03*
X88500000Y-126800000D03*
X88500000Y-125200000D03*
X191300000Y-146000000D03*
X189700000Y-146000000D03*
D18*
X114850000Y-140000000D03*
X117150000Y-140000000D03*
D19*
X166000000Y-149000000D03*
D20*
X182000000Y-133000000D03*
D21*
X184540000Y-133000000D03*
D22*
X102000000Y-142000000D03*
X102000000Y-110000000D03*
D19*
X134000000Y-149000000D03*
D23*
X152000000Y-117500000D03*
D24*
X150000000Y-117500000D03*
X148000000Y-117500000D03*
D23*
X172250000Y-135500000D03*
D24*
X172250000Y-137500000D03*
D23*
X172250000Y-141500000D03*
D24*
X172250000Y-143500000D03*
D25*
X118300000Y-132950000D03*
X118300000Y-131050000D03*
X115470000Y-132000000D03*
X123800000Y-118450000D03*
X123800000Y-116550000D03*
X120970000Y-117500000D03*
X123800000Y-114450000D03*
X123800000Y-112550000D03*
X120970000Y-113500000D03*
X176200000Y-112550000D03*
X176200000Y-114450000D03*
X179030000Y-113500000D03*
X176200000Y-116550000D03*
X176200000Y-118450000D03*
X179030000Y-117500000D03*
D26*
X151000000Y-57000000D03*
X149000000Y-57000000D03*
X94000000Y-92000000D03*
X96000000Y-92000000D03*
X206000000Y-92000000D03*
X204000000Y-92000000D03*
D27*
X90500000Y-127000000D03*
X90500000Y-125000000D03*
D26*
X127500000Y-146000000D03*
X125500000Y-146000000D03*
D27*
X178000000Y-146000000D03*
X178000000Y-144000000D03*
D26*
X153300000Y-145300000D03*
X151300000Y-145300000D03*
X151300000Y-146700000D03*
X153300000Y-146700000D03*
X143600000Y-147500000D03*
X145600000Y-147500000D03*
X189500000Y-144000000D03*
X191500000Y-144000000D03*
D27*
X122000000Y-131000000D03*
X122000000Y-133000000D03*
X120500000Y-133000000D03*
X120500000Y-131000000D03*
D26*
X126500000Y-118500000D03*
X128500000Y-118500000D03*
X126500000Y-114500000D03*
X128500000Y-114500000D03*
X173500000Y-112500000D03*
X171500000Y-112500000D03*
X173500000Y-116500000D03*
X171500000Y-116500000D03*
X128500000Y-116500000D03*
X126500000Y-116500000D03*
X128500000Y-112500000D03*
X126500000Y-112500000D03*
X171500000Y-114500000D03*
X173500000Y-114500000D03*
X171500000Y-118500000D03*
X173500000Y-118500000D03*
D27*
X119000000Y-118500000D03*
X119000000Y-116500000D03*
X119000000Y-114500000D03*
X119000000Y-112500000D03*
X181000000Y-114500000D03*
X181000000Y-112500000D03*
X181000000Y-118500000D03*
X181000000Y-116500000D03*
D26*
X139000000Y-115500000D03*
X141000000Y-115500000D03*
X139000000Y-117000000D03*
X141000000Y-117000000D03*
X139000000Y-112500000D03*
X141000000Y-112500000D03*
X139000000Y-114000000D03*
X141000000Y-114000000D03*
X161000000Y-114000000D03*
X159000000Y-114000000D03*
X161000000Y-112500000D03*
X159000000Y-112500000D03*
X161000000Y-115500000D03*
X159000000Y-115500000D03*
X161000000Y-117000000D03*
X159000000Y-117000000D03*
D28*
X135150000Y-135750000D03*
X135150000Y-136250000D03*
X135150000Y-136750000D03*
X135150000Y-137250000D03*
X135150000Y-137750000D03*
X135150000Y-138250000D03*
X135150000Y-138750000D03*
X135150000Y-139250000D03*
X135150000Y-139750000D03*
X135150000Y-140250000D03*
X135150000Y-140750000D03*
X135150000Y-141250000D03*
X135150000Y-141750000D03*
X135150000Y-142250000D03*
X135150000Y-142750000D03*
X135150000Y-143250000D03*
D29*
X137250000Y-145350000D03*
X137750000Y-145350000D03*
X138250000Y-145350000D03*
X138750000Y-145350000D03*
X139250000Y-145350000D03*
X139750000Y-145350000D03*
X140250000Y-145350000D03*
X140750000Y-145350000D03*
X141250000Y-145350000D03*
X141750000Y-145350000D03*
X142250000Y-145350000D03*
X142750000Y-145350000D03*
X143250000Y-145350000D03*
X143750000Y-145350000D03*
X144250000Y-145350000D03*
X144750000Y-145350000D03*
D28*
X146850000Y-143250000D03*
X146850000Y-142750000D03*
X146850000Y-142250000D03*
X146850000Y-141750000D03*
X146850000Y-141250000D03*
X146850000Y-140750000D03*
X146850000Y-140250000D03*
X146850000Y-139750000D03*
X146850000Y-139250000D03*
X146850000Y-138750000D03*
X146850000Y-138250000D03*
X146850000Y-137750000D03*
X146850000Y-137250000D03*
X146850000Y-136750000D03*
X146850000Y-136250000D03*
X146850000Y-135750000D03*
D29*
X144750000Y-133650000D03*
X144250000Y-133650000D03*
X143750000Y-133650000D03*
X143250000Y-133650000D03*
X142750000Y-133650000D03*
X142250000Y-133650000D03*
X141750000Y-133650000D03*
X141250000Y-133650000D03*
X140750000Y-133650000D03*
X140250000Y-133650000D03*
X139750000Y-133650000D03*
X139250000Y-133650000D03*
X138750000Y-133650000D03*
X138250000Y-133650000D03*
X137750000Y-133650000D03*
X137250000Y-133650000D03*
D30*
X185200000Y-140905000D03*
X185200000Y-139635000D03*
X185200000Y-138365000D03*
X185200000Y-137095000D03*
X177800000Y-137095000D03*
X177800000Y-138365000D03*
X177800000Y-139635000D03*
X177800000Y-140905000D03*
D31*
X121750000Y-138000000D03*
D32*
X128250000Y-138000000D03*
X128250000Y-135700000D03*
X128250000Y-140300000D03*
D33*
X152050000Y-126500000D03*
D34*
X152000000Y-126100000D03*
X152000000Y-125700000D03*
X152000000Y-125300000D03*
X152000000Y-124900000D03*
D33*
X152050000Y-124500000D03*
D35*
X151000000Y-123450000D03*
D36*
X150600000Y-123500000D03*
X150200000Y-123500000D03*
X149800000Y-123500000D03*
X149400000Y-123500000D03*
D35*
X149000000Y-123450000D03*
D33*
X147950000Y-124500000D03*
D34*
X148000000Y-124900000D03*
X148000000Y-125300000D03*
X148000000Y-125700000D03*
X148000000Y-126100000D03*
D33*
X147950000Y-126500000D03*
D35*
X149000000Y-127550000D03*
D36*
X149400000Y-127500000D03*
X149800000Y-127500000D03*
X150200000Y-127500000D03*
X150600000Y-127500000D03*
D35*
X151000000Y-127550000D03*
D13*
X207650000Y-119275000D03*
X207650000Y-118625000D03*
X207650000Y-117975000D03*
X207650000Y-117325000D03*
X207650000Y-116675000D03*
X207650000Y-116025000D03*
X207650000Y-115375000D03*
X207650000Y-114725000D03*
X200750000Y-114725000D03*
X200750000Y-115375000D03*
X200750000Y-116025000D03*
X200750000Y-116675000D03*
X200750000Y-117325000D03*
X200750000Y-117975000D03*
X200750000Y-118625000D03*
X200750000Y-119275000D03*
D37*
X118770000Y-53730000D03*
X116230000Y-53730000D03*
X118770000Y-56270000D03*
X116230000Y-56270000D03*
X85259044Y-97872225D03*
X82872225Y-98740956D03*
X86127775Y-100259044D03*
X83740956Y-101127775D03*
X144770000Y-53730000D03*
X142230000Y-53730000D03*
X144770000Y-56270000D03*
X142230000Y-56270000D03*
X131770000Y-53730000D03*
X129230000Y-53730000D03*
X131770000Y-56270000D03*
X129230000Y-56270000D03*
X170770000Y-53730000D03*
X168230000Y-53730000D03*
X170770000Y-56270000D03*
X168230000Y-56270000D03*
X157770000Y-53730000D03*
X155230000Y-53730000D03*
X157770000Y-56270000D03*
X155230000Y-56270000D03*
X183770000Y-53730000D03*
X181230000Y-53730000D03*
X183770000Y-56270000D03*
X181230000Y-56270000D03*
X217127775Y-98740956D03*
X214740956Y-97872225D03*
X216259044Y-101127775D03*
X213872225Y-100259044D03*
D38*
X113025000Y-141750000D03*
X120975000Y-141750000D03*
X113025000Y-146250000D03*
X120975000Y-146250000D03*
D39*
X113450000Y-134600000D03*
D40*
X113550000Y-138100000D03*
X118450000Y-138150000D03*
D41*
X181000000Y-145000000D03*
X183500000Y-145000000D03*
X186000000Y-145000000D03*
D42*
X108500000Y-113215000D03*
X108500000Y-137785000D03*
X191500000Y-113215000D03*
X191500000Y-137785000D03*
D43*
X177500000Y-134850000D03*
X177500000Y-131150000D03*
D11*
X211000000Y-114000000D03*
X211000000Y-120000000D03*
X159040000Y-122500000D03*
X159040000Y-128500000D03*
X155840000Y-122500000D03*
X155840000Y-128500000D03*
X144160000Y-128500000D03*
X144160000Y-122500000D03*
X140960000Y-128500000D03*
X140960000Y-122500000D03*
M02*
