M48
;DRILL file {KiCad 4.0.1-stable} date 2017/09/30 15:08:15
;FORMAT={-:-/ absolute / metric / decimal}
FMAT,2
METRIC,TZ
T1C0.400
T2C0.762
T3C0.800
T4C1.200
%
G90
G05
M71
T1
X97.6Y-94.
X97.7Y-92.8
X104.Y-92.8
X116.6Y-130.6
X116.7Y-134.5
X117.7Y-144.7
X119.5Y-136.3
X121.2Y-108.5
X121.7Y-134.8
X122.2Y-129.
X122.5Y-143.8
X123.3Y-130.4
X124.7Y-140.6
X125.Y-135.4
X125.Y-138.
X125.2Y-131.1
X129.6Y-146.5
X130.3Y-128.7
X131.Y-144.4
X131.2Y-135.1
X131.4Y-137.4
X131.5Y-111.8
X132.3Y-130.5
X133.4Y-111.8
X133.7Y-129.
X134.1Y-118.9
X134.6Y-123.3
X135.Y-118.2
X135.Y-147.4
X135.8Y-149.
X136.Y-144.6
X136.1Y-112.5
X136.1Y-114.
X136.1Y-115.5
X136.1Y-117.
X136.7Y-122.
X136.7Y-129.7
X136.8Y-141.8
X137.6Y-128.
X137.7Y-141.9
X137.7Y-142.9
X137.7Y-143.85
X138.3Y-129.75
X138.9Y-146.8
X139.6Y-147.4
X139.75Y-142.85
X140.5Y-142.1
X141.3Y-139.2
X141.6Y-125.9
X141.6Y-130.6
X141.6Y-143.3
X142.1Y-139.4
X142.3Y-147.2
X142.4Y-140.4
X142.5Y-111.3
X142.6Y-118.
X143.3Y-138.5
X143.5Y-135.3
X143.6Y-131.1
X143.7Y-120.5
X143.8Y-126.2
X144.3Y-139.5
X144.9Y-114.
X145.Y-137.8
X145.3Y-143.8
X145.8Y-118.
X145.8Y-122.5
X146.1Y-132.7
X147.1Y-131.8
X147.1Y-144.25
X148.5Y-115.4
X148.7Y-136.7
X148.7Y-139.
X148.8Y-131.1
X149.2Y-129.7
X149.3Y-136.
X149.4Y-138.2
X149.5Y-140.2
X149.6Y-121.
X149.7Y-147.8
X150.Y-111.3
X150.2Y-129.7
X150.2Y-137.4
X150.45Y-131.9
X150.6Y-121.
X153.3Y-113.1
X153.7Y-142.4
X154.4Y-147.8
X155.1Y-117.5
X155.4Y-146.1
X155.9Y-58.8
X156.1Y-124.7
X156.75Y-120.4
X157.1Y-139.2
X157.1Y-141.
X157.3Y-117.7
X157.4Y-111.3
X157.5Y-143.6
X158.3Y-145.7
X158.5Y-134.7
X159.05Y-125.95
X159.6Y-133.6
X159.6Y-145.6
X160.5Y-147.9
X160.75Y-137.55
X160.75Y-141.45
X160.8Y-144.8
X161.Y-129.5
X161.4Y-133.8
X161.7Y-119.3
X161.7Y-125.3
X161.9Y-127.6
X162.Y-126.3
X162.4Y-118.6
X163.1Y-118.
X163.8Y-112.5
X163.8Y-114.
X163.8Y-115.5
X163.8Y-117.
X164.Y-149.
X164.3Y-127.7
X165.7Y-144.8
X165.8Y-133.8
X167.Y-120.2
X167.Y-122.3
X167.Y-130.
X171.8Y-133.6
X173.8Y-129.5
X174.Y-144.5
X174.1Y-136.4
X174.1Y-140.1
X177.8Y-141.8
X180.1Y-121.3
X181.8Y-129.1
X183.2Y-116.5
X187.7Y-141.1
X188.6Y-132.2
X188.6Y-142.5
X190.3Y-115.9
X192.Y-110.6
X192.4Y-135.4
X192.5Y-128.9
X192.6Y-122.1
X192.7Y-141.
X197.2Y-94.
X202.4Y-92.7
X202.5Y-94.
X203.3Y-90.7
X206.5Y-120.5
X206.5Y-137.5
X209.Y-113.5
X209.Y-130.5
T2
X82.872Y-98.741
X83.741Y-101.128
X85.259Y-97.872
X86.128Y-100.259
X116.23Y-53.73
X116.23Y-56.27
X118.77Y-53.73
X118.77Y-56.27
X129.23Y-53.73
X129.23Y-56.27
X131.77Y-53.73
X131.77Y-56.27
X142.23Y-53.73
X142.23Y-56.27
X144.77Y-53.73
X144.77Y-56.27
X155.23Y-53.73
X155.23Y-56.27
X157.77Y-53.73
X157.77Y-56.27
X168.23Y-53.73
X168.23Y-56.27
X170.77Y-53.73
X170.77Y-56.27
X181.23Y-53.73
X181.23Y-56.27
X183.77Y-53.73
X183.77Y-56.27
X213.872Y-100.259
X214.741Y-97.872
X216.259Y-101.128
X217.128Y-98.741
T3
X148.Y-117.5
X150.Y-117.5
X152.Y-117.5
X172.25Y-135.5
X172.25Y-137.5
X172.25Y-141.5
X172.25Y-143.5
T4
X182.Y-133.
X184.54Y-133.
T0
M30
