G04 #@! TF.FileFunction,Copper,L1,Top,Signal*
%FSLAX46Y46*%
G04 Gerber Fmt 4.6, Leading zero omitted, Abs format (unit mm)*
G04 Created by KiCad (PCBNEW 4.0.1-stable) date 2017/09/30 15:07:11*
%MOMM*%
G01*
G04 APERTURE LIST*
%ADD10C,0.100000*%
%ADD11R,2.000000X2.500000*%
%ADD12R,1.750000X0.450000*%
%ADD13R,1.200000X0.400000*%
%ADD14R,1.000000X0.750000*%
%ADD15R,0.750000X1.000000*%
%ADD16R,2.000000X1.600000*%
%ADD17R,0.800000X0.800000*%
%ADD18R,0.800000X0.900000*%
%ADD19R,2.500000X1.500000*%
%ADD20R,1.850000X1.850000*%
%ADD21O,1.850000X1.850000*%
%ADD22R,1.500000X2.500000*%
%ADD23R,1.350000X1.350000*%
%ADD24O,1.350000X1.350000*%
%ADD25R,1.500000X0.800000*%
%ADD26R,1.000000X0.900000*%
%ADD27R,0.900000X1.000000*%
%ADD28R,1.400000X0.300000*%
%ADD29R,0.300000X1.400000*%
%ADD30R,1.750000X0.550000*%
%ADD31R,2.200000X3.800000*%
%ADD32R,2.200000X1.500000*%
%ADD33R,1.400000X0.200000*%
%ADD34R,1.500000X0.200000*%
%ADD35R,0.200000X1.400000*%
%ADD36R,0.200000X1.500000*%
%ADD37C,1.524000*%
%ADD38R,1.550000X1.300000*%
%ADD39R,1.700000X1.300000*%
%ADD40R,1.900000X1.300000*%
%ADD41R,1.200000X5.000000*%
%ADD42R,1.000000X2.500000*%
%ADD43C,0.600000*%
%ADD44C,0.250000*%
%ADD45C,0.200000*%
%ADD46C,0.500000*%
%ADD47C,1.000000*%
%ADD48C,0.600000*%
%ADD49C,0.300000*%
%ADD50C,0.400000*%
%ADD51C,0.800000*%
%ADD52C,1.500000*%
%ADD53C,0.254000*%
G04 APERTURE END LIST*
D10*
D11*
X211000000Y-131000000D03*
X211000000Y-137000000D03*
D12*
X162600000Y-143075000D03*
X162600000Y-142425000D03*
X162600000Y-141775000D03*
X162600000Y-141125000D03*
X162600000Y-140475000D03*
X162600000Y-139825000D03*
X162600000Y-139175000D03*
X162600000Y-138525000D03*
X162600000Y-137875000D03*
X162600000Y-137225000D03*
X162600000Y-136575000D03*
X162600000Y-135925000D03*
X155400000Y-135925000D03*
X155400000Y-136575000D03*
X155400000Y-137225000D03*
X155400000Y-137875000D03*
X155400000Y-138525000D03*
X155400000Y-139175000D03*
X155400000Y-139825000D03*
X155400000Y-140475000D03*
X155400000Y-141125000D03*
X155400000Y-141775000D03*
X155400000Y-142425000D03*
X155400000Y-143075000D03*
D13*
X207650000Y-136275000D03*
X207650000Y-135625000D03*
X207650000Y-134975000D03*
X207650000Y-134325000D03*
X207650000Y-133675000D03*
X207650000Y-133025000D03*
X207650000Y-132375000D03*
X207650000Y-131725000D03*
X200750000Y-131725000D03*
X200750000Y-132375000D03*
X200750000Y-133025000D03*
X200750000Y-133675000D03*
X200750000Y-134325000D03*
X200750000Y-134975000D03*
X200750000Y-135625000D03*
X200750000Y-136275000D03*
D14*
X133050000Y-138600000D03*
X131350000Y-138600000D03*
D15*
X131600000Y-142050000D03*
X131600000Y-140350000D03*
X133000000Y-142050000D03*
X133000000Y-140350000D03*
D14*
X134450000Y-144400000D03*
X132750000Y-144400000D03*
X136850000Y-131500000D03*
X138550000Y-131500000D03*
X147450000Y-146500000D03*
X149150000Y-146500000D03*
D16*
X128500000Y-143000000D03*
X124500000Y-143000000D03*
D14*
X147450000Y-145200000D03*
X149150000Y-145200000D03*
D16*
X128500000Y-133000000D03*
X124500000Y-133000000D03*
D14*
X148250000Y-133100000D03*
X149950000Y-133100000D03*
X148250000Y-134500000D03*
X149950000Y-134500000D03*
X156950000Y-144700000D03*
X155250000Y-144700000D03*
X155450000Y-134000000D03*
X157150000Y-134000000D03*
X151650000Y-121000000D03*
X153350000Y-121000000D03*
X148350000Y-121000000D03*
X146650000Y-121000000D03*
D15*
X146000000Y-124650000D03*
X146000000Y-126350000D03*
X198750000Y-118100000D03*
X198750000Y-116400000D03*
X198750000Y-135100000D03*
X198750000Y-133400000D03*
D17*
X149200000Y-55000000D03*
X150800000Y-55000000D03*
X95800000Y-94000000D03*
X94200000Y-94000000D03*
X204200000Y-94000000D03*
X205800000Y-94000000D03*
X88500000Y-126800000D03*
X88500000Y-125200000D03*
X191300000Y-146000000D03*
X189700000Y-146000000D03*
D18*
X114850000Y-140000000D03*
X117150000Y-140000000D03*
D19*
X166000000Y-149000000D03*
D20*
X182000000Y-133000000D03*
D21*
X184540000Y-133000000D03*
D22*
X102000000Y-142000000D03*
X102000000Y-110000000D03*
D19*
X134000000Y-149000000D03*
D23*
X152000000Y-117500000D03*
D24*
X150000000Y-117500000D03*
X148000000Y-117500000D03*
D23*
X172250000Y-135500000D03*
D24*
X172250000Y-137500000D03*
D23*
X172250000Y-141500000D03*
D24*
X172250000Y-143500000D03*
D25*
X118300000Y-132950000D03*
X118300000Y-131050000D03*
X115470000Y-132000000D03*
X123800000Y-118450000D03*
X123800000Y-116550000D03*
X120970000Y-117500000D03*
X123800000Y-114450000D03*
X123800000Y-112550000D03*
X120970000Y-113500000D03*
X176200000Y-112550000D03*
X176200000Y-114450000D03*
X179030000Y-113500000D03*
X176200000Y-116550000D03*
X176200000Y-118450000D03*
X179030000Y-117500000D03*
D26*
X151000000Y-57000000D03*
X149000000Y-57000000D03*
X94000000Y-92000000D03*
X96000000Y-92000000D03*
X206000000Y-92000000D03*
X204000000Y-92000000D03*
D27*
X90500000Y-127000000D03*
X90500000Y-125000000D03*
D26*
X127500000Y-146000000D03*
X125500000Y-146000000D03*
D27*
X178000000Y-146000000D03*
X178000000Y-144000000D03*
D26*
X153300000Y-145300000D03*
X151300000Y-145300000D03*
X151300000Y-146700000D03*
X153300000Y-146700000D03*
X143600000Y-147500000D03*
X145600000Y-147500000D03*
X189500000Y-144000000D03*
X191500000Y-144000000D03*
D27*
X122000000Y-131000000D03*
X122000000Y-133000000D03*
X120500000Y-133000000D03*
X120500000Y-131000000D03*
D26*
X126500000Y-118500000D03*
X128500000Y-118500000D03*
X126500000Y-114500000D03*
X128500000Y-114500000D03*
X173500000Y-112500000D03*
X171500000Y-112500000D03*
X173500000Y-116500000D03*
X171500000Y-116500000D03*
X128500000Y-116500000D03*
X126500000Y-116500000D03*
X128500000Y-112500000D03*
X126500000Y-112500000D03*
X171500000Y-114500000D03*
X173500000Y-114500000D03*
X171500000Y-118500000D03*
X173500000Y-118500000D03*
D27*
X119000000Y-118500000D03*
X119000000Y-116500000D03*
X119000000Y-114500000D03*
X119000000Y-112500000D03*
X181000000Y-114500000D03*
X181000000Y-112500000D03*
X181000000Y-118500000D03*
X181000000Y-116500000D03*
D26*
X139000000Y-115500000D03*
X141000000Y-115500000D03*
X139000000Y-117000000D03*
X141000000Y-117000000D03*
X139000000Y-112500000D03*
X141000000Y-112500000D03*
X139000000Y-114000000D03*
X141000000Y-114000000D03*
X161000000Y-114000000D03*
X159000000Y-114000000D03*
X161000000Y-112500000D03*
X159000000Y-112500000D03*
X161000000Y-115500000D03*
X159000000Y-115500000D03*
X161000000Y-117000000D03*
X159000000Y-117000000D03*
D28*
X135150000Y-135750000D03*
X135150000Y-136250000D03*
X135150000Y-136750000D03*
X135150000Y-137250000D03*
X135150000Y-137750000D03*
X135150000Y-138250000D03*
X135150000Y-138750000D03*
X135150000Y-139250000D03*
X135150000Y-139750000D03*
X135150000Y-140250000D03*
X135150000Y-140750000D03*
X135150000Y-141250000D03*
X135150000Y-141750000D03*
X135150000Y-142250000D03*
X135150000Y-142750000D03*
X135150000Y-143250000D03*
D29*
X137250000Y-145350000D03*
X137750000Y-145350000D03*
X138250000Y-145350000D03*
X138750000Y-145350000D03*
X139250000Y-145350000D03*
X139750000Y-145350000D03*
X140250000Y-145350000D03*
X140750000Y-145350000D03*
X141250000Y-145350000D03*
X141750000Y-145350000D03*
X142250000Y-145350000D03*
X142750000Y-145350000D03*
X143250000Y-145350000D03*
X143750000Y-145350000D03*
X144250000Y-145350000D03*
X144750000Y-145350000D03*
D28*
X146850000Y-143250000D03*
X146850000Y-142750000D03*
X146850000Y-142250000D03*
X146850000Y-141750000D03*
X146850000Y-141250000D03*
X146850000Y-140750000D03*
X146850000Y-140250000D03*
X146850000Y-139750000D03*
X146850000Y-139250000D03*
X146850000Y-138750000D03*
X146850000Y-138250000D03*
X146850000Y-137750000D03*
X146850000Y-137250000D03*
X146850000Y-136750000D03*
X146850000Y-136250000D03*
X146850000Y-135750000D03*
D29*
X144750000Y-133650000D03*
X144250000Y-133650000D03*
X143750000Y-133650000D03*
X143250000Y-133650000D03*
X142750000Y-133650000D03*
X142250000Y-133650000D03*
X141750000Y-133650000D03*
X141250000Y-133650000D03*
X140750000Y-133650000D03*
X140250000Y-133650000D03*
X139750000Y-133650000D03*
X139250000Y-133650000D03*
X138750000Y-133650000D03*
X138250000Y-133650000D03*
X137750000Y-133650000D03*
X137250000Y-133650000D03*
D30*
X185200000Y-140905000D03*
X185200000Y-139635000D03*
X185200000Y-138365000D03*
X185200000Y-137095000D03*
X177800000Y-137095000D03*
X177800000Y-138365000D03*
X177800000Y-139635000D03*
X177800000Y-140905000D03*
D31*
X121750000Y-138000000D03*
D32*
X128250000Y-138000000D03*
X128250000Y-135700000D03*
X128250000Y-140300000D03*
D33*
X152050000Y-126500000D03*
D34*
X152000000Y-126100000D03*
X152000000Y-125700000D03*
X152000000Y-125300000D03*
X152000000Y-124900000D03*
D33*
X152050000Y-124500000D03*
D35*
X151000000Y-123450000D03*
D36*
X150600000Y-123500000D03*
X150200000Y-123500000D03*
X149800000Y-123500000D03*
X149400000Y-123500000D03*
D35*
X149000000Y-123450000D03*
D33*
X147950000Y-124500000D03*
D34*
X148000000Y-124900000D03*
X148000000Y-125300000D03*
X148000000Y-125700000D03*
X148000000Y-126100000D03*
D33*
X147950000Y-126500000D03*
D35*
X149000000Y-127550000D03*
D36*
X149400000Y-127500000D03*
X149800000Y-127500000D03*
X150200000Y-127500000D03*
X150600000Y-127500000D03*
D35*
X151000000Y-127550000D03*
D13*
X207650000Y-119275000D03*
X207650000Y-118625000D03*
X207650000Y-117975000D03*
X207650000Y-117325000D03*
X207650000Y-116675000D03*
X207650000Y-116025000D03*
X207650000Y-115375000D03*
X207650000Y-114725000D03*
X200750000Y-114725000D03*
X200750000Y-115375000D03*
X200750000Y-116025000D03*
X200750000Y-116675000D03*
X200750000Y-117325000D03*
X200750000Y-117975000D03*
X200750000Y-118625000D03*
X200750000Y-119275000D03*
D37*
X118770000Y-53730000D03*
X116230000Y-53730000D03*
X118770000Y-56270000D03*
X116230000Y-56270000D03*
X85259044Y-97872225D03*
X82872225Y-98740956D03*
X86127775Y-100259044D03*
X83740956Y-101127775D03*
X144770000Y-53730000D03*
X142230000Y-53730000D03*
X144770000Y-56270000D03*
X142230000Y-56270000D03*
X131770000Y-53730000D03*
X129230000Y-53730000D03*
X131770000Y-56270000D03*
X129230000Y-56270000D03*
X170770000Y-53730000D03*
X168230000Y-53730000D03*
X170770000Y-56270000D03*
X168230000Y-56270000D03*
X157770000Y-53730000D03*
X155230000Y-53730000D03*
X157770000Y-56270000D03*
X155230000Y-56270000D03*
X183770000Y-53730000D03*
X181230000Y-53730000D03*
X183770000Y-56270000D03*
X181230000Y-56270000D03*
X217127775Y-98740956D03*
X214740956Y-97872225D03*
X216259044Y-101127775D03*
X213872225Y-100259044D03*
D38*
X113025000Y-141750000D03*
X120975000Y-141750000D03*
X113025000Y-146250000D03*
X120975000Y-146250000D03*
D39*
X113450000Y-134600000D03*
D40*
X113550000Y-138100000D03*
X118450000Y-138150000D03*
D41*
X181000000Y-145000000D03*
X183500000Y-145000000D03*
X186000000Y-145000000D03*
D42*
X177500000Y-134850000D03*
X177500000Y-131150000D03*
D11*
X211000000Y-114000000D03*
X211000000Y-120000000D03*
X159040000Y-122500000D03*
X159040000Y-128500000D03*
X155840000Y-122500000D03*
X155840000Y-128500000D03*
X144160000Y-128500000D03*
X144160000Y-122500000D03*
X140960000Y-128500000D03*
X140960000Y-122500000D03*
D43*
X143700000Y-120500000D03*
X156100000Y-124700000D03*
X173800000Y-129500000D03*
X167000000Y-130000000D03*
X187700000Y-141100000D03*
X192700000Y-141000000D03*
X181800000Y-129100000D03*
X192500000Y-128900000D03*
X188600000Y-132200000D03*
X192400000Y-135400000D03*
X192000000Y-110600000D03*
X190300000Y-115900000D03*
X183200000Y-116500000D03*
X192600000Y-122100000D03*
X180100000Y-121300000D03*
X167000000Y-122300000D03*
X167000000Y-120200000D03*
X143800000Y-126200000D03*
X202400000Y-92700000D03*
X104000000Y-92800000D03*
X97700000Y-92800000D03*
X116600000Y-130600000D03*
X125200000Y-131100000D03*
X150450000Y-131900000D03*
X174100000Y-136400000D03*
X174100000Y-140100000D03*
X174000000Y-144500000D03*
X165700000Y-144800000D03*
X160800000Y-144800000D03*
X160750000Y-141450000D03*
X160750000Y-137550000D03*
X171800000Y-133600000D03*
X165800000Y-133800000D03*
X161400000Y-133800000D03*
X153300000Y-113100000D03*
X144900000Y-114000000D03*
X142600000Y-118000000D03*
X145800000Y-118000000D03*
X148500000Y-115400000D03*
X155100000Y-117500000D03*
X157300000Y-117700000D03*
X157400000Y-111300000D03*
X150000000Y-111300000D03*
X142500000Y-111300000D03*
X125000000Y-138000000D03*
X124700000Y-140600000D03*
X125000000Y-135400000D03*
X119500000Y-136300000D03*
X116700000Y-134500000D03*
X121700000Y-134800000D03*
X158500000Y-134700000D03*
X132300000Y-130500000D03*
X154400000Y-147800000D03*
X135800000Y-149000000D03*
X131400000Y-137400000D03*
X131000000Y-144400000D03*
X157100000Y-139200000D03*
X203300000Y-90700000D03*
X155900000Y-58800000D03*
X155400000Y-146100000D03*
X130300000Y-128700000D03*
X137700000Y-143850000D03*
X146100000Y-132700000D03*
X143500000Y-135300000D03*
X147100000Y-144250000D03*
X150600000Y-121000000D03*
X145800000Y-122500000D03*
X157100000Y-141000000D03*
X157500000Y-143600000D03*
X117700000Y-144700000D03*
X129600000Y-146500000D03*
X188600000Y-142500000D03*
X177800000Y-141800000D03*
X206500000Y-120500000D03*
X209000000Y-113500000D03*
X206500000Y-137500000D03*
X209000000Y-130500000D03*
X121200000Y-108500000D03*
X133400000Y-111800000D03*
X135000000Y-118200000D03*
X138900000Y-146800000D03*
X97600000Y-94000000D03*
X131500000Y-111800000D03*
X134100000Y-118900000D03*
X134600000Y-123300000D03*
X133700000Y-129000000D03*
X139600000Y-147400000D03*
X202500000Y-94000000D03*
X197200000Y-94000000D03*
X164300000Y-127700000D03*
X159600000Y-133600000D03*
X159600000Y-145600000D03*
X145300000Y-143800000D03*
X148700000Y-139000000D03*
X158300000Y-145700000D03*
X160500000Y-147900000D03*
X164000000Y-149000000D03*
X150200000Y-137400000D03*
X149400000Y-138200000D03*
X141600000Y-125900000D03*
X141600000Y-130600000D03*
X159050000Y-125950000D03*
X156750000Y-120400000D03*
X122500000Y-143800000D03*
X131200000Y-135100000D03*
X149700000Y-147800000D03*
X142300000Y-147200000D03*
X123300000Y-130400000D03*
X122200000Y-129000000D03*
X135000000Y-147400000D03*
X141600000Y-143300000D03*
X137600000Y-128000000D03*
X140500000Y-142100000D03*
X138300000Y-129750000D03*
X139750000Y-142850000D03*
X144300000Y-139500000D03*
X149300000Y-136000000D03*
X148700000Y-136700000D03*
X142400000Y-140400000D03*
X136000000Y-144600000D03*
X136100000Y-115500000D03*
X137700000Y-142900000D03*
X136700000Y-129700000D03*
X136700000Y-122000000D03*
X136100000Y-117000000D03*
X137700000Y-141900000D03*
X136100000Y-112500000D03*
X136800000Y-141800000D03*
X136100000Y-114000000D03*
X162400000Y-118600000D03*
X162000000Y-126300000D03*
X142100000Y-139400000D03*
X163800000Y-114000000D03*
X161700000Y-119300000D03*
X161700000Y-125300000D03*
X141300000Y-139200000D03*
X163800000Y-112500000D03*
X163100000Y-118000000D03*
X161900000Y-127600000D03*
X143300000Y-138500000D03*
X163800000Y-115500000D03*
X145000000Y-137800000D03*
X161000000Y-129500000D03*
X163800000Y-117000000D03*
X153700000Y-142400000D03*
X149500000Y-140200000D03*
X149200000Y-129700000D03*
X147100000Y-131800000D03*
X150200000Y-129700000D03*
X148800000Y-131100000D03*
X149600000Y-121000000D03*
X143600000Y-131100000D03*
D44*
X135150000Y-138750000D02*
X133200000Y-138750000D01*
X133200000Y-138750000D02*
X133050000Y-138600000D01*
X146650000Y-121000000D02*
X146000000Y-121000000D01*
X145500000Y-120500000D02*
X143700000Y-120500000D01*
X146000000Y-121000000D02*
X145500000Y-120500000D01*
D45*
X155840000Y-122500000D02*
X155840000Y-124440000D01*
X155840000Y-124440000D02*
X156100000Y-124700000D01*
D46*
X167000000Y-122300000D02*
X167000000Y-122400000D01*
D45*
X175450000Y-131150000D02*
X173800000Y-129500000D01*
X175450000Y-131150000D02*
X177500000Y-131150000D01*
D46*
X166500000Y-129500000D02*
X167000000Y-130000000D01*
X166500000Y-122900000D02*
X166500000Y-129500000D01*
X167000000Y-122400000D02*
X166500000Y-122900000D01*
D47*
X182000000Y-133000000D02*
X182000000Y-134300000D01*
X180100000Y-134300000D02*
X180100000Y-132500000D01*
X182000000Y-134300000D02*
X180100000Y-134300000D01*
D45*
X192300000Y-140600000D02*
X192700000Y-141000000D01*
X188500000Y-140600000D02*
X192300000Y-140600000D01*
X177500000Y-131150000D02*
X179750000Y-131150000D01*
X179750000Y-131150000D02*
X181800000Y-129100000D01*
X192500000Y-128900000D02*
X189200000Y-132200000D01*
X189200000Y-132200000D02*
X188600000Y-132200000D01*
X173500000Y-118500000D02*
X173500000Y-119900000D01*
X190400000Y-110600000D02*
X192000000Y-110600000D01*
X188600000Y-112400000D02*
X190400000Y-110600000D01*
X188600000Y-114200000D02*
X188600000Y-112400000D01*
X190300000Y-115900000D02*
X188600000Y-114200000D01*
X187000000Y-116500000D02*
X183200000Y-116500000D01*
X192600000Y-122100000D02*
X187000000Y-116500000D01*
X168000000Y-121300000D02*
X180100000Y-121300000D01*
X167000000Y-122300000D02*
X168000000Y-121300000D01*
X173200000Y-120200000D02*
X167000000Y-120200000D01*
X173500000Y-119900000D02*
X173200000Y-120200000D01*
X144160000Y-128500000D02*
X144160000Y-126560000D01*
X144160000Y-126560000D02*
X143800000Y-126200000D01*
X149400000Y-127500000D02*
X149400000Y-128600000D01*
X148900000Y-129100000D02*
X144760000Y-129100000D01*
X149400000Y-128600000D02*
X148900000Y-129100000D01*
X144760000Y-129100000D02*
X144160000Y-128500000D01*
D44*
X204000000Y-92000000D02*
X203100000Y-92000000D01*
X203100000Y-92000000D02*
X202400000Y-92700000D01*
X173500000Y-118500000D02*
X173500000Y-119700000D01*
X173500000Y-119700000D02*
X173800000Y-120000000D01*
X176200000Y-118450000D02*
X176200000Y-120000000D01*
X126500000Y-112500000D02*
X126500000Y-112100000D01*
X126500000Y-112100000D02*
X127700000Y-110900000D01*
X142100000Y-110900000D02*
X142500000Y-111300000D01*
X127700000Y-110900000D02*
X142100000Y-110900000D01*
X96000000Y-92000000D02*
X96900000Y-92000000D01*
X104000000Y-92800000D02*
X123750000Y-112550000D01*
X96900000Y-92000000D02*
X97700000Y-92800000D01*
X123750000Y-112550000D02*
X123800000Y-112550000D01*
X118300000Y-131050000D02*
X117050000Y-131050000D01*
X117050000Y-131050000D02*
X116600000Y-130600000D01*
X124500000Y-133000000D02*
X124500000Y-131800000D01*
X124500000Y-131800000D02*
X125200000Y-131100000D01*
X149950000Y-132400000D02*
X150450000Y-131900000D01*
X149950000Y-133100000D02*
X149950000Y-132400000D01*
X174050000Y-140050000D02*
X174100000Y-136400000D01*
X174100000Y-140100000D02*
X174050000Y-140050000D01*
X173600000Y-145150000D02*
X174000000Y-144500000D01*
X165850000Y-144950000D02*
X173600000Y-145150000D01*
X165700000Y-144800000D02*
X165850000Y-144950000D01*
X160750000Y-144650000D02*
X160800000Y-144800000D01*
X160750000Y-141450000D02*
X160750000Y-144650000D01*
D48*
X162600000Y-141450000D02*
X160750000Y-141450000D01*
D44*
X160750000Y-137550000D02*
X160650000Y-134550000D01*
D48*
X162600000Y-137550000D02*
X160750000Y-137550000D01*
D44*
X166000000Y-133600000D02*
X171800000Y-133600000D01*
X165800000Y-133800000D02*
X166000000Y-133600000D01*
X160650000Y-134550000D02*
X161400000Y-133800000D01*
X141000000Y-114000000D02*
X144900000Y-114000000D01*
X141000000Y-112500000D02*
X142600000Y-112500000D01*
X145800000Y-115500000D02*
X145800000Y-118000000D01*
X146100000Y-115200000D02*
X145800000Y-115500000D01*
X148300000Y-115200000D02*
X146100000Y-115200000D01*
X148500000Y-115400000D02*
X148300000Y-115200000D01*
X157100000Y-117500000D02*
X155100000Y-117500000D01*
X157300000Y-117700000D02*
X157100000Y-117500000D01*
X150000000Y-111300000D02*
X157400000Y-111300000D01*
X142500000Y-112400000D02*
X142500000Y-111300000D01*
X142600000Y-112500000D02*
X142500000Y-112400000D01*
X124500000Y-133000000D02*
X124500000Y-134800000D01*
X125500000Y-139000000D02*
X125000000Y-138000000D01*
X124700000Y-140600000D02*
X125500000Y-139000000D01*
X124800000Y-135400000D02*
X125000000Y-135400000D01*
X124500000Y-134800000D02*
X124800000Y-135400000D01*
X121750000Y-138000000D02*
X121750000Y-134850000D01*
X118500000Y-136300000D02*
X119500000Y-136300000D01*
X116700000Y-134500000D02*
X118500000Y-136300000D01*
X121750000Y-134850000D02*
X121700000Y-134800000D01*
X157150000Y-134000000D02*
X157800000Y-134000000D01*
X157800000Y-134000000D02*
X158500000Y-134700000D01*
X138550000Y-131500000D02*
X138550000Y-131150000D01*
X138550000Y-131150000D02*
X137900000Y-130500000D01*
X137900000Y-130500000D02*
X132300000Y-130500000D01*
X138550000Y-131850000D02*
X137750000Y-132650000D01*
X137750000Y-132650000D02*
X137750000Y-133650000D01*
X138550000Y-131500000D02*
X138550000Y-131850000D01*
X138550000Y-131500000D02*
X138550000Y-131650000D01*
X148000000Y-117500000D02*
X146300000Y-115800000D01*
X153300000Y-145300000D02*
X153600000Y-145300000D01*
X153600000Y-145300000D02*
X154400000Y-146100000D01*
X154400000Y-146100000D02*
X154400000Y-147800000D01*
X153300000Y-145300000D02*
X153500000Y-145300000D01*
X137750000Y-145350000D02*
X137750000Y-146350000D01*
X132750000Y-144950000D02*
X132750000Y-144400000D01*
X133300000Y-145500000D02*
X132750000Y-144950000D01*
X135600000Y-145500000D02*
X133300000Y-145500000D01*
X136800000Y-146700000D02*
X135600000Y-145500000D01*
X137400000Y-146700000D02*
X136800000Y-146700000D01*
X137750000Y-146350000D02*
X137400000Y-146700000D01*
X134000000Y-149000000D02*
X135800000Y-149000000D01*
X131350000Y-138600000D02*
X131350000Y-137450000D01*
X131350000Y-137450000D02*
X131400000Y-137400000D01*
X132750000Y-144400000D02*
X131000000Y-144400000D01*
X155400000Y-139175000D02*
X157075000Y-139175000D01*
X157075000Y-139175000D02*
X157100000Y-139200000D01*
X159000000Y-112200000D02*
X159000000Y-112500000D01*
X145600000Y-147500000D02*
X148700000Y-147500000D01*
X149150000Y-147050000D02*
X149150000Y-146500000D01*
X148700000Y-147500000D02*
X149150000Y-147050000D01*
X141000000Y-117000000D02*
X143300000Y-117000000D01*
X143800000Y-117500000D02*
X148000000Y-117500000D01*
X143300000Y-117000000D02*
X143800000Y-117500000D01*
X159000000Y-117000000D02*
X156200000Y-117000000D01*
X156200000Y-117000000D02*
X153600000Y-114400000D01*
X153600000Y-114400000D02*
X149700000Y-114400000D01*
X149700000Y-114400000D02*
X148000000Y-116100000D01*
X148000000Y-116100000D02*
X148000000Y-117500000D01*
X204000000Y-92000000D02*
X204000000Y-91400000D01*
X149000000Y-58100000D02*
X149000000Y-57000000D01*
X149700000Y-58800000D02*
X155900000Y-58800000D01*
X149000000Y-58100000D02*
X149700000Y-58800000D01*
X204000000Y-91400000D02*
X203300000Y-90700000D01*
X135150000Y-141250000D02*
X134050000Y-141250000D01*
X134050000Y-141250000D02*
X133150000Y-140350000D01*
X133150000Y-140350000D02*
X133000000Y-140350000D01*
X131350000Y-138600000D02*
X131350000Y-140100000D01*
X131350000Y-140100000D02*
X131600000Y-140350000D01*
X133000000Y-140350000D02*
X131600000Y-140350000D01*
D45*
X144660000Y-129000000D02*
X144160000Y-128500000D01*
X144760000Y-129100000D02*
X144160000Y-128500000D01*
D44*
X149150000Y-145200000D02*
X149150000Y-144650000D01*
X153300000Y-144700000D02*
X153300000Y-145300000D01*
X152800000Y-144200000D02*
X153300000Y-144700000D01*
X149600000Y-144200000D02*
X152800000Y-144200000D01*
X149150000Y-144650000D02*
X149600000Y-144200000D01*
X155250000Y-144700000D02*
X153900000Y-144700000D01*
X153900000Y-144700000D02*
X153300000Y-145300000D01*
X149150000Y-145200000D02*
X149150000Y-146500000D01*
X176200000Y-114450000D02*
X176950000Y-114450000D01*
X176950000Y-114450000D02*
X177600000Y-115100000D01*
X177050000Y-118450000D02*
X176200000Y-118450000D01*
X177600000Y-117900000D02*
X177050000Y-118450000D01*
X177600000Y-115100000D02*
X177600000Y-117900000D01*
X123800000Y-116550000D02*
X123050000Y-116550000D01*
X123050000Y-116550000D02*
X122400000Y-115900000D01*
X122950000Y-112550000D02*
X123800000Y-112550000D01*
X122400000Y-113100000D02*
X122950000Y-112550000D01*
X122400000Y-115900000D02*
X122400000Y-113100000D01*
X182000000Y-131800000D02*
X182000000Y-133000000D01*
X182900000Y-130900000D02*
X182000000Y-131800000D01*
X187100000Y-130900000D02*
X182900000Y-130900000D01*
X189700000Y-133500000D02*
X187100000Y-130900000D01*
X189700000Y-139400000D02*
X189700000Y-133500000D01*
X187600000Y-141500000D02*
X188500000Y-140600000D01*
X188500000Y-140600000D02*
X189700000Y-139400000D01*
X187600000Y-145300000D02*
X187600000Y-141500000D01*
X188300000Y-146000000D02*
X187600000Y-145300000D01*
X189700000Y-146000000D02*
X188300000Y-146000000D01*
X149950000Y-133100000D02*
X149950000Y-134500000D01*
X159000000Y-114000000D02*
X159000000Y-115500000D01*
X159000000Y-112500000D02*
X159000000Y-114000000D01*
X141000000Y-115500000D02*
X141000000Y-117000000D01*
X141000000Y-114000000D02*
X141000000Y-115500000D01*
X141000000Y-112500000D02*
X141000000Y-114000000D01*
X124500000Y-143000000D02*
X124500000Y-144200000D01*
X127500000Y-145200000D02*
X127500000Y-146000000D01*
X127100000Y-144800000D02*
X127500000Y-145200000D01*
X125100000Y-144800000D02*
X127100000Y-144800000D01*
X124500000Y-144200000D02*
X125100000Y-144800000D01*
D49*
X178000000Y-144000000D02*
X178000000Y-143300000D01*
X182000000Y-135800000D02*
X182000000Y-133000000D01*
X180300000Y-137500000D02*
X182000000Y-135800000D01*
X180300000Y-141000000D02*
X180300000Y-137500000D01*
X178000000Y-143300000D02*
X180300000Y-141000000D01*
D45*
X144760000Y-129100000D02*
X144160000Y-128500000D01*
D50*
X153350000Y-121000000D02*
X154340000Y-121000000D01*
X154340000Y-121000000D02*
X155840000Y-122500000D01*
X144160000Y-128500000D02*
X144160000Y-128190000D01*
X144160000Y-128190000D02*
X146000000Y-126350000D01*
D49*
X127500000Y-146000000D02*
X127500000Y-146300000D01*
D45*
X147950000Y-126500000D02*
X146150000Y-126500000D01*
X146150000Y-126500000D02*
X146000000Y-126350000D01*
D49*
X159000000Y-115500000D02*
X159000000Y-117000000D01*
X173500000Y-118500000D02*
X176150000Y-118500000D01*
X176150000Y-118500000D02*
X176200000Y-118450000D01*
X173500000Y-114500000D02*
X176150000Y-114500000D01*
X176150000Y-114500000D02*
X176200000Y-114450000D01*
X126500000Y-116500000D02*
X123850000Y-116500000D01*
X123850000Y-116500000D02*
X123800000Y-116550000D01*
X126500000Y-112500000D02*
X123850000Y-112500000D01*
X123850000Y-112500000D02*
X123800000Y-112550000D01*
D45*
X149400000Y-123500000D02*
X149400000Y-122300000D01*
X146650000Y-121650000D02*
X146650000Y-121000000D01*
X147000000Y-122000000D02*
X146650000Y-121650000D01*
X149100000Y-122000000D02*
X147000000Y-122000000D01*
X149400000Y-122300000D02*
X149100000Y-122000000D01*
D47*
X177500000Y-131150000D02*
X180150000Y-131150000D01*
X180150000Y-131150000D02*
X182000000Y-133000000D01*
D49*
X120500000Y-131000000D02*
X118350000Y-131000000D01*
X118350000Y-131000000D02*
X118300000Y-131050000D01*
D47*
X124500000Y-143000000D02*
X124500000Y-133000000D01*
X128250000Y-138000000D02*
X121750000Y-138000000D01*
D50*
X162600000Y-141125000D02*
X162600000Y-141450000D01*
X162600000Y-141450000D02*
X162600000Y-141775000D01*
X162600000Y-137225000D02*
X162600000Y-137550000D01*
X162600000Y-137550000D02*
X162600000Y-137875000D01*
D44*
X137250000Y-133650000D02*
X137250000Y-132650000D01*
X137250000Y-132650000D02*
X136850000Y-132250000D01*
X136850000Y-132250000D02*
X136850000Y-131500000D01*
X136850000Y-131500000D02*
X130000000Y-131500000D01*
X130000000Y-131500000D02*
X128500000Y-133000000D01*
X156950000Y-145550000D02*
X156950000Y-144700000D01*
X156400000Y-146100000D02*
X156950000Y-145550000D01*
X155400000Y-146100000D02*
X156400000Y-146100000D01*
X133000000Y-142050000D02*
X133000000Y-142800000D01*
X133000000Y-142800000D02*
X134450000Y-144250000D01*
X134450000Y-144250000D02*
X134450000Y-144400000D01*
D46*
X128500000Y-130500000D02*
X128500000Y-131200000D01*
X130300000Y-128700000D02*
X128500000Y-130500000D01*
D44*
X130400000Y-135300000D02*
X130100000Y-135600000D01*
X130850000Y-142050000D02*
X131600000Y-142050000D01*
X130100000Y-141300000D02*
X130850000Y-142050000D01*
X130100000Y-135600000D02*
X130100000Y-141300000D01*
X135150000Y-141750000D02*
X134050000Y-141750000D01*
X133750000Y-142050000D02*
X133000000Y-142050000D01*
X134050000Y-141750000D02*
X133750000Y-142050000D01*
X133000000Y-142050000D02*
X131600000Y-142050000D01*
X128500000Y-133000000D02*
X129900000Y-133000000D01*
X130850000Y-135750000D02*
X135150000Y-135750000D01*
X130400000Y-135300000D02*
X130850000Y-135750000D01*
X130400000Y-133500000D02*
X130400000Y-135300000D01*
X129900000Y-133000000D02*
X130400000Y-133500000D01*
X135200000Y-144400000D02*
X134450000Y-144400000D01*
X137700000Y-143850000D02*
X135750000Y-143850000D01*
X135750000Y-143850000D02*
X135200000Y-144400000D01*
X136450000Y-135750000D02*
X143050000Y-135750000D01*
X147800000Y-132700000D02*
X148200000Y-133100000D01*
X147500000Y-132700000D02*
X147800000Y-132700000D01*
X146100000Y-132700000D02*
X147500000Y-132700000D01*
X143050000Y-135750000D02*
X143500000Y-135300000D01*
X135150000Y-135750000D02*
X136450000Y-135750000D01*
X148200000Y-133100000D02*
X148250000Y-133100000D01*
X128500000Y-131200000D02*
X127000000Y-129700000D01*
X111600000Y-140325000D02*
X113025000Y-141750000D01*
X111600000Y-132000000D02*
X111600000Y-140325000D01*
X113900000Y-129700000D02*
X111600000Y-132000000D01*
X127000000Y-129700000D02*
X113900000Y-129700000D01*
D46*
X128500000Y-133000000D02*
X128500000Y-131200000D01*
D44*
X147450000Y-145200000D02*
X147450000Y-144600000D01*
X147450000Y-144600000D02*
X147100000Y-144250000D01*
X144750000Y-145350000D02*
X147300000Y-145350000D01*
X147300000Y-145350000D02*
X147450000Y-145200000D01*
X150600000Y-121000000D02*
X151650000Y-121000000D01*
X144160000Y-122500000D02*
X145800000Y-122500000D01*
X156950000Y-144700000D02*
X156950000Y-144150000D01*
X156575000Y-140475000D02*
X155400000Y-140475000D01*
X157100000Y-141000000D02*
X156575000Y-140475000D01*
X156950000Y-144150000D02*
X157500000Y-143600000D01*
X138250000Y-144400000D02*
X138250000Y-145350000D01*
X137700000Y-143850000D02*
X138250000Y-144400000D01*
X148250000Y-132750000D02*
X149900000Y-131100000D01*
X149900000Y-131100000D02*
X153240000Y-131100000D01*
X153240000Y-131100000D02*
X155840000Y-128500000D01*
X148250000Y-133100000D02*
X148250000Y-132750000D01*
X146850000Y-135750000D02*
X146850000Y-133850000D01*
X146850000Y-133850000D02*
X147600000Y-133100000D01*
X147600000Y-133100000D02*
X148250000Y-133100000D01*
X151650000Y-121000000D02*
X151650000Y-122150000D01*
X155840000Y-126340000D02*
X155840000Y-128500000D01*
X151650000Y-122150000D02*
X155840000Y-126340000D01*
D46*
X214740956Y-97872225D02*
X185600000Y-56300000D01*
X185570000Y-56270000D02*
X185600000Y-56300000D01*
X185570000Y-56270000D02*
X183770000Y-56270000D01*
X82872225Y-98740956D02*
X114300000Y-53800000D01*
X114370000Y-53730000D02*
X114300000Y-53800000D01*
X114370000Y-53730000D02*
X116230000Y-53730000D01*
D45*
X152050000Y-126500000D02*
X153840000Y-126500000D01*
X153840000Y-126500000D02*
X155840000Y-128500000D01*
D50*
X144160000Y-122500000D02*
X144160000Y-122810000D01*
X144160000Y-122810000D02*
X146000000Y-124650000D01*
D45*
X147950000Y-124500000D02*
X146150000Y-124500000D01*
X146150000Y-124500000D02*
X146000000Y-124650000D01*
X150600000Y-123500000D02*
X150600000Y-122050000D01*
X150600000Y-122050000D02*
X151650000Y-121000000D01*
D51*
X128500000Y-133000000D02*
X128500000Y-135450000D01*
D47*
X128500000Y-135450000D02*
X128250000Y-135700000D01*
D46*
X155230000Y-53730000D02*
X155270000Y-53730000D01*
X155270000Y-53730000D02*
X157000000Y-52000000D01*
X166500000Y-52000000D02*
X168230000Y-53730000D01*
X157000000Y-52000000D02*
X166500000Y-52000000D01*
X144770000Y-56270000D02*
X145730000Y-56270000D01*
X148270000Y-53730000D02*
X155230000Y-53730000D01*
X145730000Y-56270000D02*
X148270000Y-53730000D01*
X129230000Y-53730000D02*
X129270000Y-53730000D01*
X129270000Y-53730000D02*
X131000000Y-52000000D01*
X140500000Y-52000000D02*
X142230000Y-53730000D01*
X131000000Y-52000000D02*
X140500000Y-52000000D01*
X170770000Y-56270000D02*
X181230000Y-53730000D01*
X181230000Y-53730000D02*
X183770000Y-56270000D01*
X168230000Y-53730000D02*
X170770000Y-56270000D01*
X142230000Y-53730000D02*
X144770000Y-56270000D01*
X118770000Y-56270000D02*
X129230000Y-53730000D01*
X118770000Y-56270000D02*
X116230000Y-53730000D01*
D44*
X144250000Y-145350000D02*
X144250000Y-146250000D01*
X144600000Y-146600000D02*
X147350000Y-146600000D01*
X144250000Y-146250000D02*
X144600000Y-146600000D01*
X147350000Y-146600000D02*
X147450000Y-146500000D01*
X131000000Y-146500000D02*
X129600000Y-146500000D01*
X114850000Y-141850000D02*
X114850000Y-140000000D01*
X117700000Y-144700000D02*
X114850000Y-141850000D01*
X153300000Y-146700000D02*
X153300000Y-148400000D01*
X153300000Y-148400000D02*
X153700000Y-149000000D01*
D48*
X154000000Y-149000000D02*
X153700000Y-149000000D01*
X153700000Y-149000000D02*
X137700000Y-149000000D01*
D44*
X189500000Y-143400000D02*
X189500000Y-144000000D01*
X188600000Y-142500000D02*
X189500000Y-143400000D01*
X177800000Y-140905000D02*
X177800000Y-141800000D01*
D50*
X155400000Y-136575000D02*
X157075000Y-136575000D01*
X156925000Y-143075000D02*
X155400000Y-143075000D01*
X158000000Y-142000000D02*
X156925000Y-143075000D01*
X158000000Y-137500000D02*
X158000000Y-142000000D01*
X157075000Y-136575000D02*
X158000000Y-137500000D01*
D48*
X177800000Y-140905000D02*
X177095000Y-140905000D01*
X177095000Y-140905000D02*
X176000000Y-142000000D01*
X135400000Y-146500000D02*
X131000000Y-146500000D01*
X137700000Y-149000000D02*
X135400000Y-146500000D01*
X161500000Y-149000000D02*
X154000000Y-149000000D01*
X164000000Y-146500000D02*
X161500000Y-149000000D01*
X174500000Y-146500000D02*
X164000000Y-146500000D01*
X176000000Y-145000000D02*
X174500000Y-146500000D01*
X176000000Y-142000000D02*
X176000000Y-145000000D01*
X131000000Y-146500000D02*
X128500000Y-144000000D01*
X128500000Y-144000000D02*
X128500000Y-143000000D01*
X177800000Y-140905000D02*
X177595000Y-140905000D01*
D51*
X128500000Y-143000000D02*
X128500000Y-143500000D01*
D47*
X155450000Y-134000000D02*
X155450000Y-132800000D01*
X175850000Y-134850000D02*
X177500000Y-134850000D01*
X172750000Y-131750000D02*
X175850000Y-134850000D01*
X156500000Y-131750000D02*
X172750000Y-131750000D01*
X155450000Y-132800000D02*
X156500000Y-131750000D01*
X155400000Y-135925000D02*
X155400000Y-134050000D01*
X155400000Y-134050000D02*
X155450000Y-134000000D01*
D50*
X155400000Y-136575000D02*
X155275000Y-136575000D01*
X155275000Y-136575000D02*
X154900000Y-136200000D01*
X155400000Y-136575000D02*
X155525000Y-136575000D01*
X155525000Y-136575000D02*
X155900000Y-136200000D01*
X155400000Y-136575000D02*
X155400000Y-135925000D01*
D47*
X177500000Y-134850000D02*
X177500000Y-136795000D01*
X177500000Y-136795000D02*
X177800000Y-137095000D01*
D49*
X113550000Y-138100000D02*
X113550000Y-139550000D01*
X114000000Y-140000000D02*
X114850000Y-140000000D01*
X113550000Y-139550000D02*
X114000000Y-140000000D01*
D51*
X128500000Y-143000000D02*
X128500000Y-140550000D01*
D47*
X128500000Y-140550000D02*
X128250000Y-140300000D01*
D52*
X177800000Y-139635000D02*
X177800000Y-140500000D01*
X177800000Y-138365000D02*
X177800000Y-139635000D01*
X177800000Y-137500000D02*
X177800000Y-138365000D01*
D47*
X177800000Y-137095000D02*
X177800000Y-137500000D01*
D50*
X177800000Y-140500000D02*
X177800000Y-140905000D01*
D44*
X146850000Y-136250000D02*
X147750000Y-136250000D01*
X148250000Y-135750000D02*
X148250000Y-134500000D01*
X147750000Y-136250000D02*
X148250000Y-135750000D01*
D45*
X149800000Y-123500000D02*
X149800000Y-122100000D01*
X149800000Y-122100000D02*
X148700000Y-121000000D01*
X148700000Y-121000000D02*
X148350000Y-121000000D01*
D49*
X200750000Y-118625000D02*
X199625000Y-118625000D01*
X199625000Y-118625000D02*
X199100000Y-118100000D01*
X199100000Y-118100000D02*
X198750000Y-118100000D01*
D50*
X200750000Y-118625000D02*
X200750000Y-119275000D01*
X206500000Y-120500000D02*
X205500000Y-119500000D01*
X206475000Y-116025000D02*
X207650000Y-116025000D01*
X205500000Y-117000000D02*
X206475000Y-116025000D01*
X205500000Y-119500000D02*
X205500000Y-117000000D01*
X198750000Y-119250000D02*
X198750000Y-118100000D01*
X200000000Y-120500000D02*
X198750000Y-119250000D01*
X206500000Y-120500000D02*
X200000000Y-120500000D01*
X207650000Y-114725000D02*
X207650000Y-115375000D01*
X209000000Y-113500000D02*
X208500000Y-113500000D01*
X207650000Y-114350000D02*
X207650000Y-114725000D01*
X208500000Y-113500000D02*
X207650000Y-114350000D01*
D49*
X200750000Y-116025000D02*
X199975000Y-116025000D01*
X199600000Y-116400000D02*
X198750000Y-116400000D01*
X199975000Y-116025000D02*
X199600000Y-116400000D01*
D50*
X209000000Y-113500000D02*
X200000000Y-113500000D01*
X198750000Y-114750000D02*
X198750000Y-116400000D01*
X200000000Y-113500000D02*
X198750000Y-114750000D01*
D49*
X200750000Y-135625000D02*
X199625000Y-135625000D01*
X199625000Y-135625000D02*
X199100000Y-135100000D01*
X199100000Y-135100000D02*
X198750000Y-135100000D01*
D50*
X200750000Y-135625000D02*
X200750000Y-136275000D01*
X206500000Y-137500000D02*
X205500000Y-136500000D01*
X206475000Y-133025000D02*
X207650000Y-133025000D01*
X205500000Y-134000000D02*
X206475000Y-133025000D01*
X205500000Y-136500000D02*
X205500000Y-134000000D01*
X198750000Y-136250000D02*
X198750000Y-135100000D01*
X200000000Y-137500000D02*
X198750000Y-136250000D01*
X206500000Y-137500000D02*
X200000000Y-137500000D01*
D49*
X200750000Y-133025000D02*
X199975000Y-133025000D01*
X199600000Y-133400000D02*
X198750000Y-133400000D01*
X199975000Y-133025000D02*
X199600000Y-133400000D01*
D50*
X209000000Y-130500000D02*
X200000000Y-130500000D01*
X198750000Y-131750000D02*
X198750000Y-133400000D01*
X200000000Y-130500000D02*
X198750000Y-131750000D01*
X207650000Y-131725000D02*
X207650000Y-132375000D01*
X207650000Y-131350000D02*
X207650000Y-131725000D01*
X208500000Y-130500000D02*
X207650000Y-131350000D01*
X209000000Y-130500000D02*
X208500000Y-130500000D01*
D45*
X119100000Y-59000000D02*
X99700000Y-87000000D01*
X144400000Y-59000000D02*
X119100000Y-59000000D01*
X148400000Y-55000000D02*
X144400000Y-59000000D01*
X148400000Y-55000000D02*
X149200000Y-55000000D01*
X121200000Y-108500000D02*
X99700000Y-87000000D01*
X134400000Y-112800000D02*
X133400000Y-111800000D01*
X134400000Y-117600000D02*
X134400000Y-112800000D01*
X135000000Y-118200000D02*
X134400000Y-117600000D01*
X140300000Y-146800000D02*
X138900000Y-146800000D01*
X140750000Y-146350000D02*
X140300000Y-146800000D01*
X140750000Y-145350000D02*
X140750000Y-146350000D01*
D44*
X151000000Y-57000000D02*
X151000000Y-55200000D01*
X151000000Y-55200000D02*
X150800000Y-55000000D01*
D45*
X97600000Y-94000000D02*
X95800000Y-94000000D01*
X132900000Y-113200000D02*
X131500000Y-111800000D01*
X132900000Y-117700000D02*
X132900000Y-113200000D01*
X134100000Y-118900000D02*
X132900000Y-117700000D01*
X133700000Y-124200000D02*
X134600000Y-123300000D01*
X133700000Y-124500000D02*
X133700000Y-124200000D01*
X133700000Y-129000000D02*
X133700000Y-124500000D01*
X140400000Y-147400000D02*
X139600000Y-147400000D01*
X141250000Y-146550000D02*
X140400000Y-147400000D01*
X141250000Y-145350000D02*
X141250000Y-146550000D01*
D44*
X94000000Y-92000000D02*
X94000000Y-93800000D01*
X94000000Y-93800000D02*
X94200000Y-94000000D01*
X141750000Y-145350000D02*
X141750000Y-144150000D01*
X202500000Y-94000000D02*
X204200000Y-94000000D01*
X179900000Y-111300000D02*
X197200000Y-94000000D01*
X166600000Y-111300000D02*
X179900000Y-111300000D01*
X164700000Y-113200000D02*
X166600000Y-111300000D01*
X164700000Y-118000000D02*
X164700000Y-113200000D01*
X164300000Y-118400000D02*
X164700000Y-118000000D01*
X164300000Y-127700000D02*
X164300000Y-118400000D01*
X159600000Y-136500000D02*
X159600000Y-133600000D01*
X159600000Y-142100000D02*
X159600000Y-136500000D01*
X159600000Y-145600000D02*
X159600000Y-142100000D01*
X144900000Y-143400000D02*
X145300000Y-143800000D01*
X142500000Y-143400000D02*
X144900000Y-143400000D01*
X141750000Y-144150000D02*
X142500000Y-143400000D01*
X206000000Y-92000000D02*
X206000000Y-93800000D01*
X206000000Y-93800000D02*
X205800000Y-94000000D01*
X88500000Y-126800000D02*
X88500000Y-128500000D01*
X88500000Y-128500000D02*
X102000000Y-142000000D01*
X88700000Y-125200000D02*
X90500000Y-127000000D01*
D49*
X90500000Y-127000000D02*
X90300000Y-127000000D01*
X191500000Y-144000000D02*
X191500000Y-145800000D01*
X191500000Y-145800000D02*
X191300000Y-146000000D01*
D44*
X115470000Y-132000000D02*
X115470000Y-135470000D01*
X115470000Y-135470000D02*
X118150000Y-138150000D01*
X118150000Y-138150000D02*
X118450000Y-138150000D01*
D49*
X118450000Y-138150000D02*
X118450000Y-139550000D01*
X118000000Y-140000000D02*
X117150000Y-140000000D01*
X118450000Y-139550000D02*
X118000000Y-140000000D01*
D44*
X166000000Y-149000000D02*
X164000000Y-149000000D01*
X147950000Y-139750000D02*
X146850000Y-139750000D01*
X148700000Y-139000000D02*
X147950000Y-139750000D01*
X160500000Y-147900000D02*
X158300000Y-145700000D01*
D52*
X184540000Y-133000000D02*
X186500000Y-133000000D01*
X186500000Y-133000000D02*
X188000000Y-134500000D01*
X188000000Y-134500000D02*
X188000000Y-138000000D01*
X188000000Y-138000000D02*
X186365000Y-139635000D01*
D49*
X183500000Y-145000000D02*
X183500000Y-142605000D01*
X183500000Y-142605000D02*
X185200000Y-140905000D01*
D52*
X186365000Y-139635000D02*
X185200000Y-139635000D01*
D47*
X185200000Y-140600000D02*
X185200000Y-139635000D01*
D50*
X185200000Y-140600000D02*
X185200000Y-140905000D01*
D47*
X185200000Y-138700000D02*
X185200000Y-139635000D01*
D50*
X185200000Y-138365000D02*
X185200000Y-138700000D01*
D44*
X90500000Y-125000000D02*
X90500000Y-121500000D01*
X90500000Y-121500000D02*
X102000000Y-110000000D01*
X146850000Y-138250000D02*
X147850000Y-138250000D01*
X148700000Y-137400000D02*
X150200000Y-137400000D01*
X147850000Y-138250000D02*
X148700000Y-137400000D01*
X146850000Y-138750000D02*
X148050000Y-138750000D01*
X148600000Y-138200000D02*
X149400000Y-138200000D01*
X148050000Y-138750000D02*
X148600000Y-138200000D01*
X140750000Y-133650000D02*
X140750000Y-128710000D01*
X140750000Y-128710000D02*
X140960000Y-128500000D01*
X141250000Y-133650000D02*
X141250000Y-130950000D01*
X140960000Y-125260000D02*
X140960000Y-122500000D01*
X141600000Y-125900000D02*
X140960000Y-125260000D01*
X141250000Y-130950000D02*
X141600000Y-130600000D01*
X139750000Y-133650000D02*
X139750000Y-130950000D01*
X159040000Y-120340000D02*
X159040000Y-122500000D01*
X158000000Y-119300000D02*
X159040000Y-120340000D01*
X140100000Y-119300000D02*
X158000000Y-119300000D01*
X139000000Y-120400000D02*
X140100000Y-119300000D01*
X139000000Y-130200000D02*
X139000000Y-120400000D01*
X139750000Y-130950000D02*
X139000000Y-130200000D01*
X159040000Y-121840000D02*
X159040000Y-122500000D01*
X140250000Y-133650000D02*
X140250000Y-130800000D01*
X159040000Y-125960000D02*
X159040000Y-128500000D01*
X159050000Y-125950000D02*
X159040000Y-125960000D01*
X156150000Y-119800000D02*
X156750000Y-120400000D01*
X140300000Y-119800000D02*
X156150000Y-119800000D01*
X139450000Y-120650000D02*
X140300000Y-119800000D01*
X139450000Y-130000000D02*
X139450000Y-120650000D01*
X140250000Y-130800000D02*
X139450000Y-130000000D01*
D50*
X207650000Y-117325000D02*
X210175000Y-117325000D01*
X211000000Y-116500000D02*
X211000000Y-113500000D01*
X210175000Y-117325000D02*
X211000000Y-116500000D01*
X207650000Y-117975000D02*
X209975000Y-117975000D01*
X209975000Y-117975000D02*
X211000000Y-119000000D01*
X211000000Y-119000000D02*
X211000000Y-120500000D01*
X207650000Y-134325000D02*
X210175000Y-134325000D01*
X211000000Y-133500000D02*
X211000000Y-130500000D01*
X210175000Y-134325000D02*
X211000000Y-133500000D01*
X207650000Y-134975000D02*
X209975000Y-134975000D01*
X209975000Y-134975000D02*
X211000000Y-136000000D01*
X211000000Y-136000000D02*
X211000000Y-137500000D01*
D47*
X162600000Y-136250000D02*
X166650000Y-136250000D01*
X167400000Y-135500000D02*
X172250000Y-135500000D01*
X166650000Y-136250000D02*
X167400000Y-135500000D01*
D50*
X162600000Y-135925000D02*
X162600000Y-136250000D01*
X162600000Y-136250000D02*
X162600000Y-136575000D01*
D47*
X162600000Y-138850000D02*
X167650000Y-138850000D01*
X169000000Y-137500000D02*
X172250000Y-137500000D01*
X167650000Y-138850000D02*
X169000000Y-137500000D01*
D50*
X162600000Y-138525000D02*
X162600000Y-138850000D01*
X162600000Y-138850000D02*
X162600000Y-139175000D01*
D47*
X162600000Y-140150000D02*
X167650000Y-140150000D01*
X169000000Y-141500000D02*
X172250000Y-141500000D01*
X167650000Y-140150000D02*
X169000000Y-141500000D01*
D50*
X162600000Y-139825000D02*
X162600000Y-140150000D01*
X162600000Y-140150000D02*
X162600000Y-140475000D01*
D47*
X162600000Y-142750000D02*
X166650000Y-142750000D01*
X167400000Y-143500000D02*
X172250000Y-143500000D01*
X166650000Y-142750000D02*
X167400000Y-143500000D01*
D50*
X162600000Y-142425000D02*
X162600000Y-142750000D01*
X162600000Y-142750000D02*
X162600000Y-143075000D01*
D49*
X122000000Y-133000000D02*
X120500000Y-133000000D01*
X120500000Y-133000000D02*
X118350000Y-133000000D01*
X118350000Y-133000000D02*
X118300000Y-132950000D01*
X126500000Y-118500000D02*
X123850000Y-118500000D01*
X123850000Y-118500000D02*
X123800000Y-118450000D01*
X128500000Y-116500000D02*
X126500000Y-118500000D01*
X119000000Y-118500000D02*
X119970000Y-118500000D01*
X119970000Y-118500000D02*
X120970000Y-117500000D01*
X128500000Y-112500000D02*
X126500000Y-114500000D01*
X126500000Y-114500000D02*
X123850000Y-114500000D01*
X123850000Y-114500000D02*
X123800000Y-114450000D01*
X119000000Y-114500000D02*
X119970000Y-114500000D01*
X119970000Y-114500000D02*
X120970000Y-113500000D01*
X171500000Y-114500000D02*
X173500000Y-112500000D01*
X173500000Y-112500000D02*
X176150000Y-112500000D01*
X176150000Y-112500000D02*
X176200000Y-112550000D01*
X181000000Y-114500000D02*
X180030000Y-114500000D01*
X180030000Y-114500000D02*
X179030000Y-113500000D01*
X173500000Y-116500000D02*
X176150000Y-116500000D01*
X171500000Y-118500000D02*
X173500000Y-116500000D01*
X176150000Y-116500000D02*
X176200000Y-116550000D01*
X181000000Y-118500000D02*
X180030000Y-118500000D01*
X180030000Y-118500000D02*
X179030000Y-117500000D01*
D44*
X139000000Y-133650000D02*
X139000000Y-134400000D01*
X120975000Y-145325000D02*
X120975000Y-146250000D01*
X122500000Y-143800000D02*
X120975000Y-145325000D01*
X138300000Y-135100000D02*
X131200000Y-135100000D01*
X139000000Y-134400000D02*
X138300000Y-135100000D01*
X113025000Y-146250000D02*
X120975000Y-146250000D01*
X138750000Y-133650000D02*
X139000000Y-133650000D01*
X139000000Y-133650000D02*
X139250000Y-133650000D01*
X120975000Y-146250000D02*
X125250000Y-146250000D01*
D49*
X181000000Y-145000000D02*
X181000000Y-141800000D01*
X182805000Y-137095000D02*
X185200000Y-137095000D01*
X181900000Y-138000000D02*
X182805000Y-137095000D01*
X181900000Y-140900000D02*
X181900000Y-138000000D01*
X181000000Y-141800000D02*
X181900000Y-140900000D01*
X178000000Y-146000000D02*
X178900000Y-146000000D01*
X179900000Y-145000000D02*
X181000000Y-145000000D01*
X178900000Y-146000000D02*
X179900000Y-145000000D01*
D44*
X142250000Y-145350000D02*
X142250000Y-147150000D01*
X149700000Y-147800000D02*
X150800000Y-146700000D01*
X142250000Y-147150000D02*
X142300000Y-147200000D01*
X150800000Y-146700000D02*
X151300000Y-146700000D01*
X151300000Y-145300000D02*
X151300000Y-146700000D01*
X151300000Y-146900000D02*
X151300000Y-146700000D01*
X142750000Y-145350000D02*
X142750000Y-146650000D01*
X142750000Y-146650000D02*
X143600000Y-147500000D01*
D45*
X146850000Y-139250000D02*
X145650000Y-139250000D01*
X122700000Y-131000000D02*
X122000000Y-131000000D01*
X123300000Y-130400000D02*
X122700000Y-131000000D01*
X113300000Y-129000000D02*
X122200000Y-129000000D01*
X110600000Y-131700000D02*
X113300000Y-129000000D01*
X110600000Y-146300000D02*
X110600000Y-131700000D01*
X111700000Y-147400000D02*
X110600000Y-146300000D01*
X112000000Y-147400000D02*
X111700000Y-147400000D01*
X112500000Y-147400000D02*
X112000000Y-147400000D01*
X114800000Y-147400000D02*
X112500000Y-147400000D01*
X120700000Y-147400000D02*
X114800000Y-147400000D01*
X128400000Y-147400000D02*
X120700000Y-147400000D01*
X135000000Y-147400000D02*
X128400000Y-147400000D01*
X145650000Y-139250000D02*
X141600000Y-143300000D01*
D44*
X140250000Y-145350000D02*
X140250000Y-143450000D01*
X129900000Y-118500000D02*
X128500000Y-118500000D01*
X132300000Y-120900000D02*
X129900000Y-118500000D01*
X136700000Y-120900000D02*
X132300000Y-120900000D01*
X137600000Y-121800000D02*
X136700000Y-120900000D01*
X137600000Y-124500000D02*
X137600000Y-121800000D01*
X137600000Y-128000000D02*
X137600000Y-124500000D01*
X140500000Y-143200000D02*
X140500000Y-142100000D01*
X140250000Y-143450000D02*
X140500000Y-143200000D01*
X139750000Y-145350000D02*
X139750000Y-142850000D01*
X129700000Y-114500000D02*
X128500000Y-114500000D01*
X130750000Y-115550000D02*
X129700000Y-114500000D01*
X130750000Y-118500000D02*
X130750000Y-115550000D01*
X132600000Y-120350000D02*
X130750000Y-118500000D01*
X137050000Y-120350000D02*
X132600000Y-120350000D01*
X138300000Y-121600000D02*
X137050000Y-120350000D01*
X138300000Y-122850000D02*
X138300000Y-121600000D01*
X138300000Y-125450000D02*
X138300000Y-122850000D01*
X138300000Y-127600000D02*
X138300000Y-125450000D01*
X138300000Y-129750000D02*
X138300000Y-127600000D01*
X171500000Y-112500000D02*
X166800000Y-112500000D01*
X139250000Y-143550000D02*
X139250000Y-145350000D01*
X139000000Y-143300000D02*
X139250000Y-143550000D01*
X139000000Y-142000000D02*
X139000000Y-143300000D01*
X139900000Y-141100000D02*
X139000000Y-142000000D01*
X142700000Y-141100000D02*
X139900000Y-141100000D01*
X144300000Y-139500000D02*
X142700000Y-141100000D01*
X150200000Y-136000000D02*
X149300000Y-136000000D01*
X155900000Y-130300000D02*
X150200000Y-136000000D01*
X163500000Y-130300000D02*
X155900000Y-130300000D01*
X165200000Y-128600000D02*
X163500000Y-130300000D01*
X165200000Y-114100000D02*
X165200000Y-128600000D01*
X166800000Y-112500000D02*
X165200000Y-114100000D01*
X138750000Y-145350000D02*
X138750000Y-143750000D01*
X167000000Y-116500000D02*
X171500000Y-116500000D01*
X165700000Y-117800000D02*
X167000000Y-116500000D01*
X165700000Y-128800000D02*
X165700000Y-117800000D01*
X163700000Y-130800000D02*
X165700000Y-128800000D01*
X156100000Y-130800000D02*
X163700000Y-130800000D01*
X150200000Y-136700000D02*
X156100000Y-130800000D01*
X149900000Y-136700000D02*
X150200000Y-136700000D01*
X148700000Y-136700000D02*
X149900000Y-136700000D01*
X139800000Y-140400000D02*
X142400000Y-140400000D01*
X138500000Y-141700000D02*
X139800000Y-140400000D01*
X138500000Y-143500000D02*
X138500000Y-141700000D01*
X138750000Y-143750000D02*
X138500000Y-143500000D01*
D49*
X83740956Y-101127775D02*
X83740956Y-101240956D01*
X83740956Y-101240956D02*
X84500000Y-102000000D01*
X101500000Y-99000000D02*
X119000000Y-116500000D01*
X90000000Y-99000000D02*
X101500000Y-99000000D01*
X87000000Y-102000000D02*
X90000000Y-99000000D01*
X84500000Y-102000000D02*
X87000000Y-102000000D01*
X83740956Y-101127775D02*
X83740956Y-101140956D01*
X118000000Y-58400000D02*
X96000000Y-89500000D01*
X119000000Y-112500000D02*
X114300000Y-107800000D01*
X97100000Y-90600000D02*
X96000000Y-89500000D01*
X98800000Y-92300000D02*
X97100000Y-90600000D01*
X100700000Y-94200000D02*
X98800000Y-92300000D01*
X103600000Y-97100000D02*
X100700000Y-94200000D01*
X106800000Y-100300000D02*
X103600000Y-97100000D01*
X110000000Y-103500000D02*
X106800000Y-100300000D01*
X114300000Y-107800000D02*
X110000000Y-103500000D01*
X127630000Y-56270000D02*
X129230000Y-56270000D01*
X125500000Y-58400000D02*
X118400000Y-58400000D01*
X127630000Y-56270000D02*
X125500000Y-58400000D01*
X118000000Y-58400000D02*
X118400000Y-58400000D01*
X180800000Y-58800000D02*
X202600000Y-90900000D01*
X155230000Y-56330000D02*
X157700000Y-58800000D01*
X157700000Y-58800000D02*
X180800000Y-58800000D01*
X183600000Y-109900000D02*
X186100000Y-107400000D01*
X186100000Y-107400000D02*
X188900000Y-104600000D01*
X188900000Y-104600000D02*
X190900000Y-102600000D01*
X190900000Y-102600000D02*
X192600000Y-100900000D01*
X192600000Y-100900000D02*
X194300000Y-99200000D01*
X194300000Y-99200000D02*
X196500000Y-97000000D01*
X196500000Y-97000000D02*
X198500000Y-95000000D01*
X198500000Y-95000000D02*
X200700000Y-92800000D01*
X200700000Y-92800000D02*
X202200000Y-91300000D01*
X183600000Y-109900000D02*
X181000000Y-112500000D01*
X202600000Y-90900000D02*
X202200000Y-91300000D01*
X155230000Y-56270000D02*
X155230000Y-56330000D01*
X213872225Y-100259044D02*
X211759044Y-100259044D01*
X198500000Y-99000000D02*
X181000000Y-116500000D01*
X210500000Y-99000000D02*
X198500000Y-99000000D01*
X211759044Y-100259044D02*
X210500000Y-99000000D01*
D44*
X136750000Y-145350000D02*
X137250000Y-145350000D01*
X136000000Y-144600000D02*
X136750000Y-145350000D01*
X136100000Y-115500000D02*
X139000000Y-115500000D01*
X135150000Y-143250000D02*
X137350000Y-143250000D01*
X137350000Y-143250000D02*
X137700000Y-142900000D01*
X136700000Y-129700000D02*
X136700000Y-126600000D01*
X136700000Y-126600000D02*
X136700000Y-124000000D01*
X136700000Y-124000000D02*
X136700000Y-122000000D01*
X136100000Y-117000000D02*
X139000000Y-117000000D01*
X135150000Y-142750000D02*
X136850000Y-142750000D01*
X136850000Y-142750000D02*
X137700000Y-141900000D01*
X136100000Y-112500000D02*
X139000000Y-112500000D01*
X135150000Y-142250000D02*
X136350000Y-142250000D01*
X136350000Y-142250000D02*
X136800000Y-141800000D01*
X136100000Y-114000000D02*
X139000000Y-114000000D01*
X135150000Y-140750000D02*
X137350000Y-140750000D01*
X162400000Y-125900000D02*
X162400000Y-118600000D01*
X162000000Y-126300000D02*
X162400000Y-125900000D01*
X141600000Y-139900000D02*
X142100000Y-139400000D01*
X138200000Y-139900000D02*
X141600000Y-139900000D01*
X137350000Y-140750000D02*
X138200000Y-139900000D01*
X163800000Y-114000000D02*
X161000000Y-114000000D01*
X135150000Y-140250000D02*
X137150000Y-140250000D01*
X161700000Y-125300000D02*
X161700000Y-119300000D01*
X138200000Y-139200000D02*
X141300000Y-139200000D01*
X137150000Y-140250000D02*
X138200000Y-139200000D01*
X163800000Y-112500000D02*
X161000000Y-112500000D01*
X163100000Y-118000000D02*
X163100000Y-123700000D01*
X163100000Y-123700000D02*
X163100000Y-126400000D01*
X163100000Y-126400000D02*
X161900000Y-127600000D01*
X143300000Y-138500000D02*
X138700000Y-138500000D01*
X138700000Y-138500000D02*
X138400000Y-138500000D01*
X138400000Y-138500000D02*
X138200000Y-138500000D01*
X138200000Y-138500000D02*
X136950000Y-139750000D01*
X136950000Y-139750000D02*
X135150000Y-139750000D01*
X163800000Y-115500000D02*
X161000000Y-115500000D01*
X161000000Y-117000000D02*
X161000000Y-129500000D01*
X136750000Y-139250000D02*
X135150000Y-139250000D01*
X138200000Y-137800000D02*
X136750000Y-139250000D01*
X145000000Y-137800000D02*
X138200000Y-137800000D01*
X163800000Y-117000000D02*
X161000000Y-117000000D01*
X146850000Y-143250000D02*
X150500000Y-143250000D01*
X150500000Y-143250000D02*
X151975000Y-141775000D01*
X151975000Y-141775000D02*
X155400000Y-141775000D01*
X146850000Y-142750000D02*
X150250000Y-142750000D01*
X150250000Y-142750000D02*
X151875000Y-141125000D01*
X151875000Y-141125000D02*
X155400000Y-141125000D01*
X146850000Y-142250000D02*
X150000000Y-142250000D01*
X150000000Y-142250000D02*
X152425000Y-139825000D01*
X152425000Y-139825000D02*
X155400000Y-139825000D01*
X146850000Y-141750000D02*
X149750000Y-141750000D01*
X149750000Y-141750000D02*
X152975000Y-138525000D01*
X152975000Y-138525000D02*
X155400000Y-138525000D01*
X146850000Y-141250000D02*
X149500000Y-141250000D01*
X149500000Y-141250000D02*
X152875000Y-137875000D01*
X152875000Y-137875000D02*
X155400000Y-137875000D01*
X146850000Y-140750000D02*
X148950000Y-140750000D01*
X153725000Y-142425000D02*
X155400000Y-142425000D01*
X153700000Y-142400000D02*
X153725000Y-142425000D01*
X148950000Y-140750000D02*
X149500000Y-140200000D01*
X146850000Y-140250000D02*
X148350000Y-140250000D01*
X148350000Y-140250000D02*
X151375000Y-137225000D01*
X151375000Y-137225000D02*
X155400000Y-137225000D01*
D45*
X144250000Y-133650000D02*
X144250000Y-132550000D01*
X150200000Y-128700000D02*
X150200000Y-127500000D01*
X149200000Y-129700000D02*
X150200000Y-128700000D01*
X145000000Y-131800000D02*
X147100000Y-131800000D01*
X144250000Y-132550000D02*
X145000000Y-131800000D01*
X143750000Y-133650000D02*
X143750000Y-131950000D01*
X150600000Y-129300000D02*
X150600000Y-127500000D01*
X150200000Y-129700000D02*
X150600000Y-129300000D01*
X144600000Y-131100000D02*
X148800000Y-131100000D01*
X143750000Y-131950000D02*
X144600000Y-131100000D01*
X150580002Y-127500000D02*
X150600000Y-127500000D01*
X150619998Y-127550000D02*
X150600000Y-127500000D01*
X150600000Y-127569998D02*
X150619998Y-127550000D01*
X150619998Y-127550000D02*
X150600000Y-127500000D01*
X143250000Y-133650000D02*
X143250000Y-131450000D01*
X150180002Y-121580002D02*
X150180002Y-123500000D01*
X149600000Y-121000000D02*
X150180002Y-121580002D01*
X143250000Y-131450000D02*
X143600000Y-131100000D01*
X150180002Y-123500000D02*
X150200000Y-123500000D01*
X142750000Y-133650000D02*
X142750000Y-130950000D01*
X151000000Y-129800000D02*
X151000000Y-127550000D01*
X150400000Y-130400000D02*
X151000000Y-129800000D01*
X143300000Y-130400000D02*
X150400000Y-130400000D01*
X142750000Y-130950000D02*
X143300000Y-130400000D01*
D49*
X86127775Y-100259044D02*
X116200000Y-57800000D01*
X116230000Y-57770000D02*
X116200000Y-57800000D01*
X116230000Y-57770000D02*
X116230000Y-56270000D01*
X142230000Y-56270000D02*
X131770000Y-56270000D01*
X168230000Y-56270000D02*
X157770000Y-56270000D01*
X185100000Y-58500000D02*
X213400000Y-98700000D01*
X215500000Y-99500000D02*
X213400000Y-98700000D01*
X216259044Y-101127775D02*
X215500000Y-99500000D01*
X181230000Y-57330000D02*
X182400000Y-58500000D01*
X182400000Y-58500000D02*
X185100000Y-58500000D01*
X181230000Y-57330000D02*
X181230000Y-56270000D01*
D53*
G36*
X134127000Y-148873000D02*
X134147000Y-148873000D01*
X134147000Y-149127000D01*
X134127000Y-149127000D01*
X134127000Y-149147000D01*
X133873000Y-149147000D01*
X133873000Y-149127000D01*
X133853000Y-149127000D01*
X133853000Y-148873000D01*
X133873000Y-148873000D01*
X133873000Y-148853000D01*
X134127000Y-148853000D01*
X134127000Y-148873000D01*
X134127000Y-148873000D01*
G37*
X134127000Y-148873000D02*
X134147000Y-148873000D01*
X134147000Y-149127000D01*
X134127000Y-149127000D01*
X134127000Y-149147000D01*
X133873000Y-149147000D01*
X133873000Y-149127000D01*
X133853000Y-149127000D01*
X133853000Y-148873000D01*
X133873000Y-148873000D01*
X133873000Y-148853000D01*
X134127000Y-148853000D01*
X134127000Y-148873000D01*
G36*
X145727000Y-147373000D02*
X145747000Y-147373000D01*
X145747000Y-147627000D01*
X145727000Y-147627000D01*
X145727000Y-147647000D01*
X145473000Y-147647000D01*
X145473000Y-147627000D01*
X145453000Y-147627000D01*
X145453000Y-147373000D01*
X145473000Y-147373000D01*
X145473000Y-147360000D01*
X145727000Y-147360000D01*
X145727000Y-147373000D01*
X145727000Y-147373000D01*
G37*
X145727000Y-147373000D02*
X145747000Y-147373000D01*
X145747000Y-147627000D01*
X145727000Y-147627000D01*
X145727000Y-147647000D01*
X145473000Y-147647000D01*
X145473000Y-147627000D01*
X145453000Y-147627000D01*
X145453000Y-147373000D01*
X145473000Y-147373000D01*
X145473000Y-147360000D01*
X145727000Y-147360000D01*
X145727000Y-147373000D01*
G36*
X149277000Y-145073000D02*
X149297000Y-145073000D01*
X149297000Y-145327000D01*
X149277000Y-145327000D01*
X149277000Y-146373000D01*
X149297000Y-146373000D01*
X149297000Y-146627000D01*
X149277000Y-146627000D01*
X149277000Y-146647000D01*
X149023000Y-146647000D01*
X149023000Y-146627000D01*
X149003000Y-146627000D01*
X149003000Y-146373000D01*
X149023000Y-146373000D01*
X149023000Y-145327000D01*
X149003000Y-145327000D01*
X149003000Y-145073000D01*
X149023000Y-145073000D01*
X149023000Y-145053000D01*
X149277000Y-145053000D01*
X149277000Y-145073000D01*
X149277000Y-145073000D01*
G37*
X149277000Y-145073000D02*
X149297000Y-145073000D01*
X149297000Y-145327000D01*
X149277000Y-145327000D01*
X149277000Y-146373000D01*
X149297000Y-146373000D01*
X149297000Y-146627000D01*
X149277000Y-146627000D01*
X149277000Y-146647000D01*
X149023000Y-146647000D01*
X149023000Y-146627000D01*
X149003000Y-146627000D01*
X149003000Y-146373000D01*
X149023000Y-146373000D01*
X149023000Y-145327000D01*
X149003000Y-145327000D01*
X149003000Y-145073000D01*
X149023000Y-145073000D01*
X149023000Y-145053000D01*
X149277000Y-145053000D01*
X149277000Y-145073000D01*
G36*
X153427000Y-145173000D02*
X153447000Y-145173000D01*
X153447000Y-145427000D01*
X153427000Y-145427000D01*
X153427000Y-145447000D01*
X153173000Y-145447000D01*
X153173000Y-145427000D01*
X153153000Y-145427000D01*
X153153000Y-145173000D01*
X153173000Y-145173000D01*
X153173000Y-145153000D01*
X153427000Y-145153000D01*
X153427000Y-145173000D01*
X153427000Y-145173000D01*
G37*
X153427000Y-145173000D02*
X153447000Y-145173000D01*
X153447000Y-145427000D01*
X153427000Y-145427000D01*
X153427000Y-145447000D01*
X153173000Y-145447000D01*
X153173000Y-145427000D01*
X153153000Y-145427000D01*
X153153000Y-145173000D01*
X153173000Y-145173000D01*
X153173000Y-145153000D01*
X153427000Y-145153000D01*
X153427000Y-145173000D01*
G36*
X174673000Y-135278132D02*
X174673000Y-144647394D01*
X174047394Y-145273000D01*
X160476558Y-145273000D01*
X160393117Y-145071057D01*
X160360000Y-145037882D01*
X160360000Y-135300000D01*
X161073000Y-135300000D01*
X161073000Y-143600000D01*
X161081685Y-143646159D01*
X161108965Y-143688553D01*
X161150590Y-143716994D01*
X161200000Y-143727000D01*
X161245183Y-143727000D01*
X161260910Y-143751441D01*
X161473110Y-143896431D01*
X161725000Y-143947440D01*
X163475000Y-143947440D01*
X163710317Y-143903162D01*
X163738542Y-143885000D01*
X166179868Y-143885000D01*
X166597434Y-144302566D01*
X166965654Y-144548603D01*
X167400000Y-144635000D01*
X170979585Y-144635000D01*
X170981685Y-144646159D01*
X171008965Y-144688553D01*
X171050590Y-144716994D01*
X171100000Y-144727000D01*
X171807068Y-144727000D01*
X172224336Y-144810000D01*
X172275664Y-144810000D01*
X172692932Y-144727000D01*
X173300000Y-144727000D01*
X173346159Y-144718315D01*
X173388553Y-144691035D01*
X173416994Y-144649410D01*
X173427000Y-144600000D01*
X173427000Y-144089534D01*
X173485946Y-144001315D01*
X173585664Y-143500000D01*
X173527000Y-143205077D01*
X173527000Y-142399389D01*
X173572440Y-142175000D01*
X173572440Y-140825000D01*
X173528162Y-140589683D01*
X173527000Y-140587877D01*
X173527000Y-137794923D01*
X173585664Y-137500000D01*
X173527000Y-137205077D01*
X173527000Y-136399389D01*
X173572440Y-136175000D01*
X173572440Y-134825000D01*
X173528162Y-134589683D01*
X173389090Y-134373559D01*
X173176890Y-134228569D01*
X172925000Y-134177560D01*
X171575000Y-134177560D01*
X171339683Y-134221838D01*
X171123559Y-134360910D01*
X171120764Y-134365000D01*
X167400000Y-134365000D01*
X166965654Y-134451397D01*
X166702846Y-134627000D01*
X166597434Y-134697434D01*
X166179868Y-135115000D01*
X163743620Y-135115000D01*
X163726890Y-135103569D01*
X163475000Y-135052560D01*
X161725000Y-135052560D01*
X161489683Y-135096838D01*
X161371324Y-135173000D01*
X161200000Y-135173000D01*
X161153841Y-135181685D01*
X161111447Y-135208965D01*
X161083006Y-135250590D01*
X161073000Y-135300000D01*
X160360000Y-135300000D01*
X160360000Y-134162463D01*
X160392192Y-134130327D01*
X160534838Y-133786799D01*
X160535162Y-133414833D01*
X160527000Y-133395079D01*
X160527000Y-132885000D01*
X172279868Y-132885000D01*
X174673000Y-135278132D01*
X174673000Y-135278132D01*
G37*
X174673000Y-135278132D02*
X174673000Y-144647394D01*
X174047394Y-145273000D01*
X160476558Y-145273000D01*
X160393117Y-145071057D01*
X160360000Y-145037882D01*
X160360000Y-135300000D01*
X161073000Y-135300000D01*
X161073000Y-143600000D01*
X161081685Y-143646159D01*
X161108965Y-143688553D01*
X161150590Y-143716994D01*
X161200000Y-143727000D01*
X161245183Y-143727000D01*
X161260910Y-143751441D01*
X161473110Y-143896431D01*
X161725000Y-143947440D01*
X163475000Y-143947440D01*
X163710317Y-143903162D01*
X163738542Y-143885000D01*
X166179868Y-143885000D01*
X166597434Y-144302566D01*
X166965654Y-144548603D01*
X167400000Y-144635000D01*
X170979585Y-144635000D01*
X170981685Y-144646159D01*
X171008965Y-144688553D01*
X171050590Y-144716994D01*
X171100000Y-144727000D01*
X171807068Y-144727000D01*
X172224336Y-144810000D01*
X172275664Y-144810000D01*
X172692932Y-144727000D01*
X173300000Y-144727000D01*
X173346159Y-144718315D01*
X173388553Y-144691035D01*
X173416994Y-144649410D01*
X173427000Y-144600000D01*
X173427000Y-144089534D01*
X173485946Y-144001315D01*
X173585664Y-143500000D01*
X173527000Y-143205077D01*
X173527000Y-142399389D01*
X173572440Y-142175000D01*
X173572440Y-140825000D01*
X173528162Y-140589683D01*
X173527000Y-140587877D01*
X173527000Y-137794923D01*
X173585664Y-137500000D01*
X173527000Y-137205077D01*
X173527000Y-136399389D01*
X173572440Y-136175000D01*
X173572440Y-134825000D01*
X173528162Y-134589683D01*
X173389090Y-134373559D01*
X173176890Y-134228569D01*
X172925000Y-134177560D01*
X171575000Y-134177560D01*
X171339683Y-134221838D01*
X171123559Y-134360910D01*
X171120764Y-134365000D01*
X167400000Y-134365000D01*
X166965654Y-134451397D01*
X166702846Y-134627000D01*
X166597434Y-134697434D01*
X166179868Y-135115000D01*
X163743620Y-135115000D01*
X163726890Y-135103569D01*
X163475000Y-135052560D01*
X161725000Y-135052560D01*
X161489683Y-135096838D01*
X161371324Y-135173000D01*
X161200000Y-135173000D01*
X161153841Y-135181685D01*
X161111447Y-135208965D01*
X161083006Y-135250590D01*
X161073000Y-135300000D01*
X160360000Y-135300000D01*
X160360000Y-134162463D01*
X160392192Y-134130327D01*
X160534838Y-133786799D01*
X160535162Y-133414833D01*
X160527000Y-133395079D01*
X160527000Y-132885000D01*
X172279868Y-132885000D01*
X174673000Y-135278132D01*
G36*
X155377000Y-144573000D02*
X155397000Y-144573000D01*
X155397000Y-144827000D01*
X155377000Y-144827000D01*
X155377000Y-144847000D01*
X155123000Y-144847000D01*
X155123000Y-144827000D01*
X155103000Y-144827000D01*
X155103000Y-144573000D01*
X155123000Y-144573000D01*
X155123000Y-144553000D01*
X155377000Y-144553000D01*
X155377000Y-144573000D01*
X155377000Y-144573000D01*
G37*
X155377000Y-144573000D02*
X155397000Y-144573000D01*
X155397000Y-144827000D01*
X155377000Y-144827000D01*
X155377000Y-144847000D01*
X155123000Y-144847000D01*
X155123000Y-144827000D01*
X155103000Y-144827000D01*
X155103000Y-144573000D01*
X155123000Y-144573000D01*
X155123000Y-144553000D01*
X155377000Y-144553000D01*
X155377000Y-144573000D01*
G36*
X132877000Y-144273000D02*
X132897000Y-144273000D01*
X132897000Y-144527000D01*
X132877000Y-144527000D01*
X132877000Y-144547000D01*
X132623000Y-144547000D01*
X132623000Y-144527000D01*
X132603000Y-144527000D01*
X132603000Y-144273000D01*
X132623000Y-144273000D01*
X132623000Y-144253000D01*
X132877000Y-144253000D01*
X132877000Y-144273000D01*
X132877000Y-144273000D01*
G37*
X132877000Y-144273000D02*
X132897000Y-144273000D01*
X132897000Y-144527000D01*
X132877000Y-144527000D01*
X132877000Y-144547000D01*
X132623000Y-144547000D01*
X132623000Y-144527000D01*
X132603000Y-144527000D01*
X132603000Y-144273000D01*
X132623000Y-144273000D01*
X132623000Y-144253000D01*
X132877000Y-144253000D01*
X132877000Y-144273000D01*
G36*
X124627000Y-132873000D02*
X124647000Y-132873000D01*
X124647000Y-133127000D01*
X124627000Y-133127000D01*
X124627000Y-134276250D01*
X124785750Y-134435000D01*
X125626309Y-134435000D01*
X125645623Y-134427000D01*
X126173000Y-134427000D01*
X126173000Y-141573000D01*
X125645623Y-141573000D01*
X125626309Y-141565000D01*
X124785750Y-141565000D01*
X124627000Y-141723750D01*
X124627000Y-142873000D01*
X124647000Y-142873000D01*
X124647000Y-143127000D01*
X124627000Y-143127000D01*
X124627000Y-143147000D01*
X124373000Y-143147000D01*
X124373000Y-143127000D01*
X124353000Y-143127000D01*
X124353000Y-142873000D01*
X124373000Y-142873000D01*
X124373000Y-141723750D01*
X124214250Y-141565000D01*
X123427000Y-141565000D01*
X123427000Y-140166334D01*
X123485000Y-140026310D01*
X123485000Y-138285750D01*
X123326250Y-138127000D01*
X121877000Y-138127000D01*
X121877000Y-138147000D01*
X121623000Y-138147000D01*
X121623000Y-138127000D01*
X121603000Y-138127000D01*
X121603000Y-137873000D01*
X121623000Y-137873000D01*
X121623000Y-135623750D01*
X121877000Y-135623750D01*
X121877000Y-137873000D01*
X123326250Y-137873000D01*
X123485000Y-137714250D01*
X123485000Y-135973690D01*
X123388327Y-135740301D01*
X123209698Y-135561673D01*
X122976309Y-135465000D01*
X122035750Y-135465000D01*
X121877000Y-135623750D01*
X121623000Y-135623750D01*
X121464250Y-135465000D01*
X120523691Y-135465000D01*
X120290302Y-135561673D01*
X120111673Y-135740301D01*
X120015000Y-135973690D01*
X120015000Y-136873000D01*
X119500936Y-136873000D01*
X119400000Y-136852560D01*
X117927362Y-136852560D01*
X116230000Y-135155198D01*
X116230000Y-134027000D01*
X119696494Y-134027000D01*
X119798110Y-134096431D01*
X120050000Y-134147440D01*
X120950000Y-134147440D01*
X121185317Y-134103162D01*
X121248478Y-134062519D01*
X121298110Y-134096431D01*
X121550000Y-134147440D01*
X122450000Y-134147440D01*
X122558629Y-134127000D01*
X122948129Y-134127000D01*
X122961673Y-134159699D01*
X123140302Y-134338327D01*
X123373691Y-134435000D01*
X124214250Y-134435000D01*
X124373000Y-134276250D01*
X124373000Y-133127000D01*
X124353000Y-133127000D01*
X124353000Y-132873000D01*
X124373000Y-132873000D01*
X124373000Y-132853000D01*
X124627000Y-132853000D01*
X124627000Y-132873000D01*
X124627000Y-132873000D01*
G37*
X124627000Y-132873000D02*
X124647000Y-132873000D01*
X124647000Y-133127000D01*
X124627000Y-133127000D01*
X124627000Y-134276250D01*
X124785750Y-134435000D01*
X125626309Y-134435000D01*
X125645623Y-134427000D01*
X126173000Y-134427000D01*
X126173000Y-141573000D01*
X125645623Y-141573000D01*
X125626309Y-141565000D01*
X124785750Y-141565000D01*
X124627000Y-141723750D01*
X124627000Y-142873000D01*
X124647000Y-142873000D01*
X124647000Y-143127000D01*
X124627000Y-143127000D01*
X124627000Y-143147000D01*
X124373000Y-143147000D01*
X124373000Y-143127000D01*
X124353000Y-143127000D01*
X124353000Y-142873000D01*
X124373000Y-142873000D01*
X124373000Y-141723750D01*
X124214250Y-141565000D01*
X123427000Y-141565000D01*
X123427000Y-140166334D01*
X123485000Y-140026310D01*
X123485000Y-138285750D01*
X123326250Y-138127000D01*
X121877000Y-138127000D01*
X121877000Y-138147000D01*
X121623000Y-138147000D01*
X121623000Y-138127000D01*
X121603000Y-138127000D01*
X121603000Y-137873000D01*
X121623000Y-137873000D01*
X121623000Y-135623750D01*
X121877000Y-135623750D01*
X121877000Y-137873000D01*
X123326250Y-137873000D01*
X123485000Y-137714250D01*
X123485000Y-135973690D01*
X123388327Y-135740301D01*
X123209698Y-135561673D01*
X122976309Y-135465000D01*
X122035750Y-135465000D01*
X121877000Y-135623750D01*
X121623000Y-135623750D01*
X121464250Y-135465000D01*
X120523691Y-135465000D01*
X120290302Y-135561673D01*
X120111673Y-135740301D01*
X120015000Y-135973690D01*
X120015000Y-136873000D01*
X119500936Y-136873000D01*
X119400000Y-136852560D01*
X117927362Y-136852560D01*
X116230000Y-135155198D01*
X116230000Y-134027000D01*
X119696494Y-134027000D01*
X119798110Y-134096431D01*
X120050000Y-134147440D01*
X120950000Y-134147440D01*
X121185317Y-134103162D01*
X121248478Y-134062519D01*
X121298110Y-134096431D01*
X121550000Y-134147440D01*
X122450000Y-134147440D01*
X122558629Y-134127000D01*
X122948129Y-134127000D01*
X122961673Y-134159699D01*
X123140302Y-134338327D01*
X123373691Y-134435000D01*
X124214250Y-134435000D01*
X124373000Y-134276250D01*
X124373000Y-133127000D01*
X124353000Y-133127000D01*
X124353000Y-132873000D01*
X124373000Y-132873000D01*
X124373000Y-132853000D01*
X124627000Y-132853000D01*
X124627000Y-132873000D01*
G36*
X193290000Y-115240354D02*
X193283006Y-115250590D01*
X193273000Y-115300000D01*
X193273000Y-118600000D01*
X193282334Y-118647789D01*
X193290000Y-118659348D01*
X193290000Y-122790000D01*
X167500000Y-122790000D01*
X167228295Y-122844046D01*
X166997954Y-122997954D01*
X166747954Y-123247954D01*
X166594046Y-123478295D01*
X166540000Y-123750000D01*
X166540000Y-127250000D01*
X166594046Y-127521705D01*
X166747954Y-127752046D01*
X166997954Y-128002046D01*
X167228295Y-128155954D01*
X167500000Y-128210000D01*
X193290000Y-128210000D01*
X193290000Y-132240354D01*
X193283006Y-132250590D01*
X193273000Y-132300000D01*
X193273000Y-136200000D01*
X193281685Y-136246159D01*
X193290000Y-136259081D01*
X193290000Y-141573000D01*
X188805675Y-141573000D01*
X188786799Y-141565162D01*
X188414833Y-141564838D01*
X188395079Y-141573000D01*
X187127000Y-141573000D01*
X187127000Y-140759567D01*
X187344343Y-140614343D01*
X188979343Y-138979343D01*
X189001062Y-138946838D01*
X189279573Y-138530017D01*
X189363359Y-138108795D01*
X189864716Y-138108795D01*
X190113106Y-138709943D01*
X190572637Y-139170278D01*
X191173352Y-139419716D01*
X191823795Y-139420284D01*
X192424943Y-139171894D01*
X192885278Y-138712363D01*
X193134716Y-138111648D01*
X193135284Y-137461205D01*
X192886894Y-136860057D01*
X192427363Y-136399722D01*
X191826648Y-136150284D01*
X191176205Y-136149716D01*
X190575057Y-136398106D01*
X190114722Y-136857637D01*
X189865284Y-137458352D01*
X189864716Y-138108795D01*
X189363359Y-138108795D01*
X189385000Y-138000000D01*
X189385000Y-134500000D01*
X189279573Y-133969983D01*
X188979343Y-133520657D01*
X187479343Y-132020657D01*
X187474817Y-132017633D01*
X187030017Y-131720427D01*
X186500000Y-131615000D01*
X185266913Y-131615000D01*
X185136986Y-131528186D01*
X184540000Y-131409438D01*
X184220453Y-131473000D01*
X183130979Y-131473000D01*
X183051310Y-131440000D01*
X182285750Y-131440000D01*
X182127000Y-131598750D01*
X182127000Y-132873000D01*
X182147000Y-132873000D01*
X182147000Y-133127000D01*
X182127000Y-133127000D01*
X182127000Y-133147000D01*
X181873000Y-133147000D01*
X181873000Y-133127000D01*
X180598750Y-133127000D01*
X180552750Y-133173000D01*
X179727000Y-133173000D01*
X179727000Y-131948691D01*
X180440000Y-131948691D01*
X180440000Y-132714250D01*
X180598750Y-132873000D01*
X181873000Y-132873000D01*
X181873000Y-131598750D01*
X181714250Y-131440000D01*
X180948690Y-131440000D01*
X180715301Y-131536673D01*
X180536673Y-131715302D01*
X180440000Y-131948691D01*
X179727000Y-131948691D01*
X179727000Y-131700000D01*
X179718315Y-131653841D01*
X179691035Y-131611447D01*
X179649410Y-131583006D01*
X179600000Y-131573000D01*
X178635000Y-131573000D01*
X178635000Y-131435750D01*
X178476250Y-131277000D01*
X177627000Y-131277000D01*
X177627000Y-131297000D01*
X177373000Y-131297000D01*
X177373000Y-131277000D01*
X176619752Y-131277000D01*
X176600000Y-131273000D01*
X173878132Y-131273000D01*
X173552566Y-130947434D01*
X173511095Y-130919724D01*
X173184346Y-130701397D01*
X172750000Y-130615000D01*
X166427000Y-130615000D01*
X166427000Y-129773691D01*
X176365000Y-129773691D01*
X176365000Y-130864250D01*
X176523750Y-131023000D01*
X177373000Y-131023000D01*
X177373000Y-129423750D01*
X177627000Y-129423750D01*
X177627000Y-131023000D01*
X178476250Y-131023000D01*
X178635000Y-130864250D01*
X178635000Y-129773691D01*
X178538327Y-129540302D01*
X178359699Y-129361673D01*
X178126310Y-129265000D01*
X177785750Y-129265000D01*
X177627000Y-129423750D01*
X177373000Y-129423750D01*
X177214250Y-129265000D01*
X176873690Y-129265000D01*
X176640301Y-129361673D01*
X176461673Y-129540302D01*
X176365000Y-129773691D01*
X166427000Y-129773691D01*
X166427000Y-128965901D01*
X166460000Y-128800000D01*
X166460000Y-119627000D01*
X170400000Y-119627000D01*
X170446159Y-119618315D01*
X170449437Y-119616206D01*
X170450590Y-119616994D01*
X170500000Y-119627000D01*
X180449064Y-119627000D01*
X180550000Y-119647440D01*
X181450000Y-119647440D01*
X181558629Y-119627000D01*
X182200000Y-119627000D01*
X182246159Y-119618315D01*
X182288553Y-119591035D01*
X182316994Y-119549410D01*
X182327000Y-119500000D01*
X182327000Y-116283158D01*
X185071363Y-113538795D01*
X189864716Y-113538795D01*
X190113106Y-114139943D01*
X190572637Y-114600278D01*
X191173352Y-114849716D01*
X191823795Y-114850284D01*
X192424943Y-114601894D01*
X192885278Y-114142363D01*
X193134716Y-113541648D01*
X193135284Y-112891205D01*
X192886894Y-112290057D01*
X192427363Y-111829722D01*
X191826648Y-111580284D01*
X191176205Y-111579716D01*
X190575057Y-111828106D01*
X190114722Y-112287637D01*
X189865284Y-112888352D01*
X189864716Y-113538795D01*
X185071363Y-113538795D01*
X188483158Y-110127000D01*
X190000000Y-110127000D01*
X190049410Y-110116994D01*
X190089803Y-110089803D01*
X193290000Y-106889606D01*
X193290000Y-115240354D01*
X193290000Y-115240354D01*
G37*
X193290000Y-115240354D02*
X193283006Y-115250590D01*
X193273000Y-115300000D01*
X193273000Y-118600000D01*
X193282334Y-118647789D01*
X193290000Y-118659348D01*
X193290000Y-122790000D01*
X167500000Y-122790000D01*
X167228295Y-122844046D01*
X166997954Y-122997954D01*
X166747954Y-123247954D01*
X166594046Y-123478295D01*
X166540000Y-123750000D01*
X166540000Y-127250000D01*
X166594046Y-127521705D01*
X166747954Y-127752046D01*
X166997954Y-128002046D01*
X167228295Y-128155954D01*
X167500000Y-128210000D01*
X193290000Y-128210000D01*
X193290000Y-132240354D01*
X193283006Y-132250590D01*
X193273000Y-132300000D01*
X193273000Y-136200000D01*
X193281685Y-136246159D01*
X193290000Y-136259081D01*
X193290000Y-141573000D01*
X188805675Y-141573000D01*
X188786799Y-141565162D01*
X188414833Y-141564838D01*
X188395079Y-141573000D01*
X187127000Y-141573000D01*
X187127000Y-140759567D01*
X187344343Y-140614343D01*
X188979343Y-138979343D01*
X189001062Y-138946838D01*
X189279573Y-138530017D01*
X189363359Y-138108795D01*
X189864716Y-138108795D01*
X190113106Y-138709943D01*
X190572637Y-139170278D01*
X191173352Y-139419716D01*
X191823795Y-139420284D01*
X192424943Y-139171894D01*
X192885278Y-138712363D01*
X193134716Y-138111648D01*
X193135284Y-137461205D01*
X192886894Y-136860057D01*
X192427363Y-136399722D01*
X191826648Y-136150284D01*
X191176205Y-136149716D01*
X190575057Y-136398106D01*
X190114722Y-136857637D01*
X189865284Y-137458352D01*
X189864716Y-138108795D01*
X189363359Y-138108795D01*
X189385000Y-138000000D01*
X189385000Y-134500000D01*
X189279573Y-133969983D01*
X188979343Y-133520657D01*
X187479343Y-132020657D01*
X187474817Y-132017633D01*
X187030017Y-131720427D01*
X186500000Y-131615000D01*
X185266913Y-131615000D01*
X185136986Y-131528186D01*
X184540000Y-131409438D01*
X184220453Y-131473000D01*
X183130979Y-131473000D01*
X183051310Y-131440000D01*
X182285750Y-131440000D01*
X182127000Y-131598750D01*
X182127000Y-132873000D01*
X182147000Y-132873000D01*
X182147000Y-133127000D01*
X182127000Y-133127000D01*
X182127000Y-133147000D01*
X181873000Y-133147000D01*
X181873000Y-133127000D01*
X180598750Y-133127000D01*
X180552750Y-133173000D01*
X179727000Y-133173000D01*
X179727000Y-131948691D01*
X180440000Y-131948691D01*
X180440000Y-132714250D01*
X180598750Y-132873000D01*
X181873000Y-132873000D01*
X181873000Y-131598750D01*
X181714250Y-131440000D01*
X180948690Y-131440000D01*
X180715301Y-131536673D01*
X180536673Y-131715302D01*
X180440000Y-131948691D01*
X179727000Y-131948691D01*
X179727000Y-131700000D01*
X179718315Y-131653841D01*
X179691035Y-131611447D01*
X179649410Y-131583006D01*
X179600000Y-131573000D01*
X178635000Y-131573000D01*
X178635000Y-131435750D01*
X178476250Y-131277000D01*
X177627000Y-131277000D01*
X177627000Y-131297000D01*
X177373000Y-131297000D01*
X177373000Y-131277000D01*
X176619752Y-131277000D01*
X176600000Y-131273000D01*
X173878132Y-131273000D01*
X173552566Y-130947434D01*
X173511095Y-130919724D01*
X173184346Y-130701397D01*
X172750000Y-130615000D01*
X166427000Y-130615000D01*
X166427000Y-129773691D01*
X176365000Y-129773691D01*
X176365000Y-130864250D01*
X176523750Y-131023000D01*
X177373000Y-131023000D01*
X177373000Y-129423750D01*
X177627000Y-129423750D01*
X177627000Y-131023000D01*
X178476250Y-131023000D01*
X178635000Y-130864250D01*
X178635000Y-129773691D01*
X178538327Y-129540302D01*
X178359699Y-129361673D01*
X178126310Y-129265000D01*
X177785750Y-129265000D01*
X177627000Y-129423750D01*
X177373000Y-129423750D01*
X177214250Y-129265000D01*
X176873690Y-129265000D01*
X176640301Y-129361673D01*
X176461673Y-129540302D01*
X176365000Y-129773691D01*
X166427000Y-129773691D01*
X166427000Y-128965901D01*
X166460000Y-128800000D01*
X166460000Y-119627000D01*
X170400000Y-119627000D01*
X170446159Y-119618315D01*
X170449437Y-119616206D01*
X170450590Y-119616994D01*
X170500000Y-119627000D01*
X180449064Y-119627000D01*
X180550000Y-119647440D01*
X181450000Y-119647440D01*
X181558629Y-119627000D01*
X182200000Y-119627000D01*
X182246159Y-119618315D01*
X182288553Y-119591035D01*
X182316994Y-119549410D01*
X182327000Y-119500000D01*
X182327000Y-116283158D01*
X185071363Y-113538795D01*
X189864716Y-113538795D01*
X190113106Y-114139943D01*
X190572637Y-114600278D01*
X191173352Y-114849716D01*
X191823795Y-114850284D01*
X192424943Y-114601894D01*
X192885278Y-114142363D01*
X193134716Y-113541648D01*
X193135284Y-112891205D01*
X192886894Y-112290057D01*
X192427363Y-111829722D01*
X191826648Y-111580284D01*
X191176205Y-111579716D01*
X190575057Y-111828106D01*
X190114722Y-112287637D01*
X189865284Y-112888352D01*
X189864716Y-113538795D01*
X185071363Y-113538795D01*
X188483158Y-110127000D01*
X190000000Y-110127000D01*
X190049410Y-110116994D01*
X190089803Y-110089803D01*
X193290000Y-106889606D01*
X193290000Y-115240354D01*
G36*
X131727000Y-140223000D02*
X132873000Y-140223000D01*
X132873000Y-140203000D01*
X133127000Y-140203000D01*
X133127000Y-140223000D01*
X133147000Y-140223000D01*
X133147000Y-140477000D01*
X133127000Y-140477000D01*
X133127000Y-140497000D01*
X132873000Y-140497000D01*
X132873000Y-140477000D01*
X131727000Y-140477000D01*
X131727000Y-140497000D01*
X131473000Y-140497000D01*
X131473000Y-140477000D01*
X131453000Y-140477000D01*
X131453000Y-140223000D01*
X131473000Y-140223000D01*
X131473000Y-140203000D01*
X131727000Y-140203000D01*
X131727000Y-140223000D01*
X131727000Y-140223000D01*
G37*
X131727000Y-140223000D02*
X132873000Y-140223000D01*
X132873000Y-140203000D01*
X133127000Y-140203000D01*
X133127000Y-140223000D01*
X133147000Y-140223000D01*
X133147000Y-140477000D01*
X133127000Y-140477000D01*
X133127000Y-140497000D01*
X132873000Y-140497000D01*
X132873000Y-140477000D01*
X131727000Y-140477000D01*
X131727000Y-140497000D01*
X131473000Y-140497000D01*
X131473000Y-140477000D01*
X131453000Y-140477000D01*
X131453000Y-140223000D01*
X131473000Y-140223000D01*
X131473000Y-140203000D01*
X131727000Y-140203000D01*
X131727000Y-140223000D01*
G36*
X131477000Y-138473000D02*
X131497000Y-138473000D01*
X131497000Y-138727000D01*
X131477000Y-138727000D01*
X131477000Y-138747000D01*
X131223000Y-138747000D01*
X131223000Y-138727000D01*
X131203000Y-138727000D01*
X131203000Y-138473000D01*
X131223000Y-138473000D01*
X131223000Y-138453000D01*
X131477000Y-138453000D01*
X131477000Y-138473000D01*
X131477000Y-138473000D01*
G37*
X131477000Y-138473000D02*
X131497000Y-138473000D01*
X131497000Y-138727000D01*
X131477000Y-138727000D01*
X131477000Y-138747000D01*
X131223000Y-138747000D01*
X131223000Y-138727000D01*
X131203000Y-138727000D01*
X131203000Y-138473000D01*
X131223000Y-138473000D01*
X131223000Y-138453000D01*
X131477000Y-138453000D01*
X131477000Y-138473000D01*
G36*
X128377000Y-137873000D02*
X128397000Y-137873000D01*
X128397000Y-138127000D01*
X128377000Y-138127000D01*
X128377000Y-138147000D01*
X128123000Y-138147000D01*
X128123000Y-138127000D01*
X128103000Y-138127000D01*
X128103000Y-137873000D01*
X128123000Y-137873000D01*
X128123000Y-137853000D01*
X128377000Y-137853000D01*
X128377000Y-137873000D01*
X128377000Y-137873000D01*
G37*
X128377000Y-137873000D02*
X128397000Y-137873000D01*
X128397000Y-138127000D01*
X128377000Y-138127000D01*
X128377000Y-138147000D01*
X128123000Y-138147000D01*
X128123000Y-138127000D01*
X128103000Y-138127000D01*
X128103000Y-137873000D01*
X128123000Y-137873000D01*
X128123000Y-137853000D01*
X128377000Y-137853000D01*
X128377000Y-137873000D01*
G36*
X150077000Y-134373000D02*
X150097000Y-134373000D01*
X150097000Y-134627000D01*
X150077000Y-134627000D01*
X150077000Y-134647000D01*
X149823000Y-134647000D01*
X149823000Y-134627000D01*
X149803000Y-134627000D01*
X149803000Y-134373000D01*
X149823000Y-134373000D01*
X149823000Y-134353000D01*
X150077000Y-134353000D01*
X150077000Y-134373000D01*
X150077000Y-134373000D01*
G37*
X150077000Y-134373000D02*
X150097000Y-134373000D01*
X150097000Y-134627000D01*
X150077000Y-134627000D01*
X150077000Y-134647000D01*
X149823000Y-134647000D01*
X149823000Y-134627000D01*
X149803000Y-134627000D01*
X149803000Y-134373000D01*
X149823000Y-134373000D01*
X149823000Y-134353000D01*
X150077000Y-134353000D01*
X150077000Y-134373000D01*
G36*
X138677000Y-131373000D02*
X138697000Y-131373000D01*
X138697000Y-131627000D01*
X138677000Y-131627000D01*
X138677000Y-131647000D01*
X138423000Y-131647000D01*
X138423000Y-131627000D01*
X138403000Y-131627000D01*
X138403000Y-131373000D01*
X138423000Y-131373000D01*
X138423000Y-131353000D01*
X138677000Y-131353000D01*
X138677000Y-131373000D01*
X138677000Y-131373000D01*
G37*
X138677000Y-131373000D02*
X138697000Y-131373000D01*
X138697000Y-131627000D01*
X138677000Y-131627000D01*
X138677000Y-131647000D01*
X138423000Y-131647000D01*
X138423000Y-131627000D01*
X138403000Y-131627000D01*
X138403000Y-131373000D01*
X138423000Y-131373000D01*
X138423000Y-131353000D01*
X138677000Y-131353000D01*
X138677000Y-131373000D01*
G36*
X118427000Y-130923000D02*
X118447000Y-130923000D01*
X118447000Y-131177000D01*
X118427000Y-131177000D01*
X118427000Y-131197000D01*
X118173000Y-131197000D01*
X118173000Y-131177000D01*
X118153000Y-131177000D01*
X118153000Y-130923000D01*
X118173000Y-130923000D01*
X118173000Y-130903000D01*
X118427000Y-130903000D01*
X118427000Y-130923000D01*
X118427000Y-130923000D01*
G37*
X118427000Y-130923000D02*
X118447000Y-130923000D01*
X118447000Y-131177000D01*
X118427000Y-131177000D01*
X118427000Y-131197000D01*
X118173000Y-131197000D01*
X118173000Y-131177000D01*
X118153000Y-131177000D01*
X118153000Y-130923000D01*
X118173000Y-130923000D01*
X118173000Y-130903000D01*
X118427000Y-130903000D01*
X118427000Y-130923000D01*
G36*
X120627000Y-130873000D02*
X120647000Y-130873000D01*
X120647000Y-131127000D01*
X120627000Y-131127000D01*
X120627000Y-131147000D01*
X120373000Y-131147000D01*
X120373000Y-131127000D01*
X120353000Y-131127000D01*
X120353000Y-130873000D01*
X120373000Y-130873000D01*
X120373000Y-130853000D01*
X120627000Y-130853000D01*
X120627000Y-130873000D01*
X120627000Y-130873000D01*
G37*
X120627000Y-130873000D02*
X120647000Y-130873000D01*
X120647000Y-131127000D01*
X120627000Y-131127000D01*
X120627000Y-131147000D01*
X120373000Y-131147000D01*
X120373000Y-131127000D01*
X120353000Y-131127000D01*
X120353000Y-130873000D01*
X120373000Y-130873000D01*
X120373000Y-130853000D01*
X120627000Y-130853000D01*
X120627000Y-130873000D01*
G36*
X144287000Y-128373000D02*
X144307000Y-128373000D01*
X144307000Y-128627000D01*
X144287000Y-128627000D01*
X144287000Y-128647000D01*
X144033000Y-128647000D01*
X144033000Y-128627000D01*
X144013000Y-128627000D01*
X144013000Y-128373000D01*
X144033000Y-128373000D01*
X144033000Y-128353000D01*
X144287000Y-128353000D01*
X144287000Y-128373000D01*
X144287000Y-128373000D01*
G37*
X144287000Y-128373000D02*
X144307000Y-128373000D01*
X144307000Y-128627000D01*
X144287000Y-128627000D01*
X144287000Y-128647000D01*
X144033000Y-128647000D01*
X144033000Y-128627000D01*
X144013000Y-128627000D01*
X144013000Y-128373000D01*
X144033000Y-128373000D01*
X144033000Y-128353000D01*
X144287000Y-128353000D01*
X144287000Y-128373000D01*
G36*
X146127000Y-126223000D02*
X146147000Y-126223000D01*
X146147000Y-126477000D01*
X146127000Y-126477000D01*
X146127000Y-126497000D01*
X145873000Y-126497000D01*
X145873000Y-126477000D01*
X145853000Y-126477000D01*
X145853000Y-126223000D01*
X145873000Y-126223000D01*
X145873000Y-126203000D01*
X146127000Y-126203000D01*
X146127000Y-126223000D01*
X146127000Y-126223000D01*
G37*
X146127000Y-126223000D02*
X146147000Y-126223000D01*
X146147000Y-126477000D01*
X146127000Y-126477000D01*
X146127000Y-126497000D01*
X145873000Y-126497000D01*
X145873000Y-126477000D01*
X145853000Y-126477000D01*
X145853000Y-126223000D01*
X145873000Y-126223000D01*
X145873000Y-126203000D01*
X146127000Y-126203000D01*
X146127000Y-126223000D01*
G36*
X155967000Y-122373000D02*
X155987000Y-122373000D01*
X155987000Y-122627000D01*
X155967000Y-122627000D01*
X155967000Y-122647000D01*
X155713000Y-122647000D01*
X155713000Y-122627000D01*
X155693000Y-122627000D01*
X155693000Y-122373000D01*
X155713000Y-122373000D01*
X155713000Y-122353000D01*
X155967000Y-122353000D01*
X155967000Y-122373000D01*
X155967000Y-122373000D01*
G37*
X155967000Y-122373000D02*
X155987000Y-122373000D01*
X155987000Y-122627000D01*
X155967000Y-122627000D01*
X155967000Y-122647000D01*
X155713000Y-122647000D01*
X155713000Y-122627000D01*
X155693000Y-122627000D01*
X155693000Y-122373000D01*
X155713000Y-122373000D01*
X155713000Y-122353000D01*
X155967000Y-122353000D01*
X155967000Y-122373000D01*
G36*
X146777000Y-120873000D02*
X146797000Y-120873000D01*
X146797000Y-121127000D01*
X146777000Y-121127000D01*
X146777000Y-121147000D01*
X146523000Y-121147000D01*
X146523000Y-121127000D01*
X146503000Y-121127000D01*
X146503000Y-120873000D01*
X146523000Y-120873000D01*
X146523000Y-120853000D01*
X146777000Y-120853000D01*
X146777000Y-120873000D01*
X146777000Y-120873000D01*
G37*
X146777000Y-120873000D02*
X146797000Y-120873000D01*
X146797000Y-121127000D01*
X146777000Y-121127000D01*
X146777000Y-121147000D01*
X146523000Y-121147000D01*
X146523000Y-121127000D01*
X146503000Y-121127000D01*
X146503000Y-120873000D01*
X146523000Y-120873000D01*
X146523000Y-120853000D01*
X146777000Y-120853000D01*
X146777000Y-120873000D01*
G36*
X153477000Y-120873000D02*
X153497000Y-120873000D01*
X153497000Y-121127000D01*
X153477000Y-121127000D01*
X153477000Y-121147000D01*
X153223000Y-121147000D01*
X153223000Y-121127000D01*
X153203000Y-121127000D01*
X153203000Y-120873000D01*
X153223000Y-120873000D01*
X153223000Y-120853000D01*
X153477000Y-120853000D01*
X153477000Y-120873000D01*
X153477000Y-120873000D01*
G37*
X153477000Y-120873000D02*
X153497000Y-120873000D01*
X153497000Y-121127000D01*
X153477000Y-121127000D01*
X153477000Y-121147000D01*
X153223000Y-121147000D01*
X153223000Y-121127000D01*
X153203000Y-121127000D01*
X153203000Y-120873000D01*
X153223000Y-120873000D01*
X153223000Y-120853000D01*
X153477000Y-120853000D01*
X153477000Y-120873000D01*
G36*
X159123000Y-111850000D02*
X159127000Y-111871259D01*
X159127000Y-112373000D01*
X159147000Y-112373000D01*
X159147000Y-112627000D01*
X159127000Y-112627000D01*
X159127000Y-113873000D01*
X159147000Y-113873000D01*
X159147000Y-114127000D01*
X159127000Y-114127000D01*
X159127000Y-115373000D01*
X159147000Y-115373000D01*
X159147000Y-115627000D01*
X159127000Y-115627000D01*
X159127000Y-116873000D01*
X159147000Y-116873000D01*
X159147000Y-117127000D01*
X159127000Y-117127000D01*
X159127000Y-117926250D01*
X159173000Y-117972250D01*
X159173000Y-118773000D01*
X158547802Y-118773000D01*
X158537401Y-118762599D01*
X158290839Y-118597852D01*
X158000000Y-118540000D01*
X153627000Y-118540000D01*
X153627000Y-117285750D01*
X157865000Y-117285750D01*
X157865000Y-117576310D01*
X157961673Y-117809699D01*
X158140302Y-117988327D01*
X158373691Y-118085000D01*
X158714250Y-118085000D01*
X158873000Y-117926250D01*
X158873000Y-117127000D01*
X158023750Y-117127000D01*
X157865000Y-117285750D01*
X153627000Y-117285750D01*
X153627000Y-116000000D01*
X153618315Y-115953841D01*
X153591035Y-115911447D01*
X153549410Y-115883006D01*
X153500000Y-115873000D01*
X146500000Y-115873000D01*
X146453841Y-115881685D01*
X146411447Y-115908965D01*
X146383006Y-115950590D01*
X146373000Y-116000000D01*
X146373000Y-118540000D01*
X140827000Y-118540000D01*
X140827000Y-117972250D01*
X140873000Y-117926250D01*
X140873000Y-117127000D01*
X141127000Y-117127000D01*
X141127000Y-117926250D01*
X141285750Y-118085000D01*
X141626309Y-118085000D01*
X141859698Y-117988327D01*
X142038327Y-117809699D01*
X142135000Y-117576310D01*
X142135000Y-117285750D01*
X141976250Y-117127000D01*
X141127000Y-117127000D01*
X140873000Y-117127000D01*
X140853000Y-117127000D01*
X140853000Y-116873000D01*
X140873000Y-116873000D01*
X140873000Y-115627000D01*
X141127000Y-115627000D01*
X141127000Y-116873000D01*
X141976250Y-116873000D01*
X142135000Y-116714250D01*
X142135000Y-116423690D01*
X142063055Y-116250000D01*
X142135000Y-116076310D01*
X142135000Y-115785750D01*
X157865000Y-115785750D01*
X157865000Y-116076310D01*
X157936945Y-116250000D01*
X157865000Y-116423690D01*
X157865000Y-116714250D01*
X158023750Y-116873000D01*
X158873000Y-116873000D01*
X158873000Y-115627000D01*
X158023750Y-115627000D01*
X157865000Y-115785750D01*
X142135000Y-115785750D01*
X141976250Y-115627000D01*
X141127000Y-115627000D01*
X140873000Y-115627000D01*
X140853000Y-115627000D01*
X140853000Y-115373000D01*
X140873000Y-115373000D01*
X140873000Y-114127000D01*
X141127000Y-114127000D01*
X141127000Y-115373000D01*
X141976250Y-115373000D01*
X142135000Y-115214250D01*
X142135000Y-114923690D01*
X142063055Y-114750000D01*
X142135000Y-114576310D01*
X142135000Y-114285750D01*
X157865000Y-114285750D01*
X157865000Y-114576310D01*
X157936945Y-114750000D01*
X157865000Y-114923690D01*
X157865000Y-115214250D01*
X158023750Y-115373000D01*
X158873000Y-115373000D01*
X158873000Y-114127000D01*
X158023750Y-114127000D01*
X157865000Y-114285750D01*
X142135000Y-114285750D01*
X141976250Y-114127000D01*
X141127000Y-114127000D01*
X140873000Y-114127000D01*
X140853000Y-114127000D01*
X140853000Y-113873000D01*
X140873000Y-113873000D01*
X140873000Y-112627000D01*
X141127000Y-112627000D01*
X141127000Y-113873000D01*
X141976250Y-113873000D01*
X142135000Y-113714250D01*
X142135000Y-113423690D01*
X142063055Y-113250000D01*
X142135000Y-113076310D01*
X142135000Y-112785750D01*
X157865000Y-112785750D01*
X157865000Y-113076310D01*
X157936945Y-113250000D01*
X157865000Y-113423690D01*
X157865000Y-113714250D01*
X158023750Y-113873000D01*
X158873000Y-113873000D01*
X158873000Y-112627000D01*
X158023750Y-112627000D01*
X157865000Y-112785750D01*
X142135000Y-112785750D01*
X141976250Y-112627000D01*
X141127000Y-112627000D01*
X140873000Y-112627000D01*
X140853000Y-112627000D01*
X140853000Y-112373000D01*
X140873000Y-112373000D01*
X140873000Y-111573750D01*
X141127000Y-111573750D01*
X141127000Y-112373000D01*
X141976250Y-112373000D01*
X142135000Y-112214250D01*
X142135000Y-111923690D01*
X157865000Y-111923690D01*
X157865000Y-112214250D01*
X158023750Y-112373000D01*
X158873000Y-112373000D01*
X158873000Y-111573750D01*
X158714250Y-111415000D01*
X158373691Y-111415000D01*
X158140302Y-111511673D01*
X157961673Y-111690301D01*
X157865000Y-111923690D01*
X142135000Y-111923690D01*
X142038327Y-111690301D01*
X141859698Y-111511673D01*
X141626309Y-111415000D01*
X141285750Y-111415000D01*
X141127000Y-111573750D01*
X140873000Y-111573750D01*
X140827000Y-111527750D01*
X140827000Y-110710000D01*
X159123000Y-110710000D01*
X159123000Y-111850000D01*
X159123000Y-111850000D01*
G37*
X159123000Y-111850000D02*
X159127000Y-111871259D01*
X159127000Y-112373000D01*
X159147000Y-112373000D01*
X159147000Y-112627000D01*
X159127000Y-112627000D01*
X159127000Y-113873000D01*
X159147000Y-113873000D01*
X159147000Y-114127000D01*
X159127000Y-114127000D01*
X159127000Y-115373000D01*
X159147000Y-115373000D01*
X159147000Y-115627000D01*
X159127000Y-115627000D01*
X159127000Y-116873000D01*
X159147000Y-116873000D01*
X159147000Y-117127000D01*
X159127000Y-117127000D01*
X159127000Y-117926250D01*
X159173000Y-117972250D01*
X159173000Y-118773000D01*
X158547802Y-118773000D01*
X158537401Y-118762599D01*
X158290839Y-118597852D01*
X158000000Y-118540000D01*
X153627000Y-118540000D01*
X153627000Y-117285750D01*
X157865000Y-117285750D01*
X157865000Y-117576310D01*
X157961673Y-117809699D01*
X158140302Y-117988327D01*
X158373691Y-118085000D01*
X158714250Y-118085000D01*
X158873000Y-117926250D01*
X158873000Y-117127000D01*
X158023750Y-117127000D01*
X157865000Y-117285750D01*
X153627000Y-117285750D01*
X153627000Y-116000000D01*
X153618315Y-115953841D01*
X153591035Y-115911447D01*
X153549410Y-115883006D01*
X153500000Y-115873000D01*
X146500000Y-115873000D01*
X146453841Y-115881685D01*
X146411447Y-115908965D01*
X146383006Y-115950590D01*
X146373000Y-116000000D01*
X146373000Y-118540000D01*
X140827000Y-118540000D01*
X140827000Y-117972250D01*
X140873000Y-117926250D01*
X140873000Y-117127000D01*
X141127000Y-117127000D01*
X141127000Y-117926250D01*
X141285750Y-118085000D01*
X141626309Y-118085000D01*
X141859698Y-117988327D01*
X142038327Y-117809699D01*
X142135000Y-117576310D01*
X142135000Y-117285750D01*
X141976250Y-117127000D01*
X141127000Y-117127000D01*
X140873000Y-117127000D01*
X140853000Y-117127000D01*
X140853000Y-116873000D01*
X140873000Y-116873000D01*
X140873000Y-115627000D01*
X141127000Y-115627000D01*
X141127000Y-116873000D01*
X141976250Y-116873000D01*
X142135000Y-116714250D01*
X142135000Y-116423690D01*
X142063055Y-116250000D01*
X142135000Y-116076310D01*
X142135000Y-115785750D01*
X157865000Y-115785750D01*
X157865000Y-116076310D01*
X157936945Y-116250000D01*
X157865000Y-116423690D01*
X157865000Y-116714250D01*
X158023750Y-116873000D01*
X158873000Y-116873000D01*
X158873000Y-115627000D01*
X158023750Y-115627000D01*
X157865000Y-115785750D01*
X142135000Y-115785750D01*
X141976250Y-115627000D01*
X141127000Y-115627000D01*
X140873000Y-115627000D01*
X140853000Y-115627000D01*
X140853000Y-115373000D01*
X140873000Y-115373000D01*
X140873000Y-114127000D01*
X141127000Y-114127000D01*
X141127000Y-115373000D01*
X141976250Y-115373000D01*
X142135000Y-115214250D01*
X142135000Y-114923690D01*
X142063055Y-114750000D01*
X142135000Y-114576310D01*
X142135000Y-114285750D01*
X157865000Y-114285750D01*
X157865000Y-114576310D01*
X157936945Y-114750000D01*
X157865000Y-114923690D01*
X157865000Y-115214250D01*
X158023750Y-115373000D01*
X158873000Y-115373000D01*
X158873000Y-114127000D01*
X158023750Y-114127000D01*
X157865000Y-114285750D01*
X142135000Y-114285750D01*
X141976250Y-114127000D01*
X141127000Y-114127000D01*
X140873000Y-114127000D01*
X140853000Y-114127000D01*
X140853000Y-113873000D01*
X140873000Y-113873000D01*
X140873000Y-112627000D01*
X141127000Y-112627000D01*
X141127000Y-113873000D01*
X141976250Y-113873000D01*
X142135000Y-113714250D01*
X142135000Y-113423690D01*
X142063055Y-113250000D01*
X142135000Y-113076310D01*
X142135000Y-112785750D01*
X157865000Y-112785750D01*
X157865000Y-113076310D01*
X157936945Y-113250000D01*
X157865000Y-113423690D01*
X157865000Y-113714250D01*
X158023750Y-113873000D01*
X158873000Y-113873000D01*
X158873000Y-112627000D01*
X158023750Y-112627000D01*
X157865000Y-112785750D01*
X142135000Y-112785750D01*
X141976250Y-112627000D01*
X141127000Y-112627000D01*
X140873000Y-112627000D01*
X140853000Y-112627000D01*
X140853000Y-112373000D01*
X140873000Y-112373000D01*
X140873000Y-111573750D01*
X141127000Y-111573750D01*
X141127000Y-112373000D01*
X141976250Y-112373000D01*
X142135000Y-112214250D01*
X142135000Y-111923690D01*
X157865000Y-111923690D01*
X157865000Y-112214250D01*
X158023750Y-112373000D01*
X158873000Y-112373000D01*
X158873000Y-111573750D01*
X158714250Y-111415000D01*
X158373691Y-111415000D01*
X158140302Y-111511673D01*
X157961673Y-111690301D01*
X157865000Y-111923690D01*
X142135000Y-111923690D01*
X142038327Y-111690301D01*
X141859698Y-111511673D01*
X141626309Y-111415000D01*
X141285750Y-111415000D01*
X141127000Y-111573750D01*
X140873000Y-111573750D01*
X140827000Y-111527750D01*
X140827000Y-110710000D01*
X159123000Y-110710000D01*
X159123000Y-111850000D01*
M02*
