%FSLAX45Y45*%
G04 Gerber Fmt 4.5, Leading zero omitted, Abs format (unit mm)*
G04 Created by KiCad (PCBNEW 4.0.1-stable) date 2017/09/30 15:08:16*
%MOMM*%
G01*
G04 APERTURE LIST*
%ADD10C,0.127000*%
%ADD11C,0.150000*%
%ADD12C,0.200000*%
%ADD13C,0.300000*%
G04 APERTURE END LIST*
D10*
D11*
X16725000Y-12725000D02*
X16750000Y-12750000D01*
X16725000Y-12375000D02*
X16725000Y-12725000D01*
X16750000Y-12350000D02*
X16725000Y-12375000D01*
X13275000Y-12725000D02*
X13250000Y-12750000D01*
X13275000Y-12375000D02*
X13275000Y-12725000D01*
X13250000Y-12350000D02*
X13275000Y-12375000D01*
X16750000Y-15000000D02*
X13250000Y-15000000D01*
X16750000Y-14850000D02*
X16750000Y-15000000D01*
X17000000Y-14850000D02*
X16750000Y-14850000D01*
X17000000Y-15000000D02*
X17000000Y-14850000D01*
X13250000Y-14850000D02*
X13250000Y-15000000D01*
X13000000Y-14850000D02*
X13250000Y-14850000D01*
X13000000Y-15000000D02*
X13000000Y-14850000D01*
X10300000Y-14350000D02*
X10300000Y-13600000D01*
X10450000Y-14350000D02*
X10300000Y-14350000D01*
X10450000Y-14600000D02*
X10450000Y-14350000D01*
X10300000Y-14600000D02*
X10450000Y-14600000D01*
X10300000Y-10850000D02*
X10300000Y-11600000D01*
X10450000Y-10850000D02*
X10300000Y-10850000D01*
X10450000Y-10600000D02*
X10450000Y-10850000D01*
X10300000Y-10600000D02*
X10450000Y-10600000D01*
X19850000Y-12975000D02*
X21200000Y-12975000D01*
X19700000Y-13125000D02*
X19850000Y-12975000D01*
X19700000Y-13250000D02*
X19700000Y-13125000D01*
X19850000Y-13825000D02*
X21200000Y-13825000D01*
X19700000Y-13675000D02*
X19850000Y-13825000D01*
X19700000Y-13550000D02*
X19700000Y-13675000D01*
X21200000Y-12975000D02*
X21200000Y-13825000D01*
X19850000Y-11275000D02*
X21200000Y-11275000D01*
X19700000Y-11425000D02*
X19850000Y-11275000D01*
X19700000Y-11550000D02*
X19700000Y-11425000D01*
X19700000Y-11975000D02*
X19700000Y-11850000D01*
X19850000Y-12125000D02*
X19700000Y-11975000D01*
X21200000Y-12125000D02*
X19850000Y-12125000D01*
X21200000Y-11275000D02*
X21200000Y-12125000D01*
X19400000Y-13550000D02*
X19400000Y-14500000D01*
X19700000Y-13550000D02*
X19400000Y-13550000D01*
X19400000Y-13250000D02*
X19700000Y-13250000D01*
X19400000Y-12750000D02*
X19400000Y-13250000D01*
X19400000Y-11850000D02*
X19700000Y-11850000D01*
X19400000Y-12350000D02*
X19400000Y-11850000D01*
X19400000Y-11550000D02*
X19700000Y-11550000D01*
X19400000Y-10600000D02*
X19400000Y-11550000D01*
X12500000Y-11000000D02*
X17500000Y-11000000D01*
X19500000Y-9000000D02*
X17500000Y-11000000D01*
X10500000Y-9000000D02*
X12500000Y-11000000D01*
X10200000Y-8700000D02*
X10500000Y-9000000D01*
X19800000Y-8700000D02*
X19500000Y-9000000D01*
X19400000Y-12750000D02*
X16750000Y-12750000D01*
X19400000Y-12350000D02*
X16750000Y-12350000D01*
X10600000Y-10600000D02*
X10600000Y-12350000D01*
X10600000Y-13100000D02*
X10600000Y-12750000D01*
X10300000Y-13600000D02*
X10100000Y-13400000D01*
X9300000Y-12600000D02*
X9800000Y-13100000D01*
X10600000Y-13100000D02*
X9800000Y-13100000D01*
X10600000Y-13400000D02*
X10100000Y-13400000D01*
X10600000Y-14500000D02*
X10600000Y-13400000D01*
X10600000Y-12750000D02*
X13250000Y-12750000D01*
X10600000Y-12350000D02*
X13250000Y-12350000D01*
X8300000Y-12600000D02*
X10300000Y-10600000D01*
X10300000Y-14600000D02*
X8300000Y-12600000D01*
X10300000Y-11600000D02*
X9300000Y-12600000D01*
X12000000Y-6000000D02*
X10200000Y-8700000D01*
X18000000Y-6000000D02*
X19800000Y-8700000D01*
X12000000Y-6000000D02*
X18000000Y-6000000D01*
X17200000Y-14800000D02*
X17000000Y-15000000D01*
X12800000Y-14800000D02*
X13000000Y-15000000D01*
X19100000Y-14800000D02*
X17200000Y-14800000D01*
X10900000Y-14800000D02*
X12800000Y-14800000D01*
X19400000Y-14500000D02*
X19100000Y-14800000D01*
X10600000Y-14500000D02*
X10900000Y-14800000D01*
X20000000Y-10000000D02*
X19400000Y-10600000D01*
X10000000Y-10000000D02*
X10600000Y-10600000D01*
X9000000Y-10000000D02*
X10000000Y-10000000D01*
X8000000Y-11000000D02*
X9000000Y-10000000D01*
X8000000Y-10000000D02*
X8000000Y-11000000D01*
X11500000Y-5000000D02*
X8000000Y-10000000D01*
X21000000Y-10000000D02*
X20000000Y-10000000D01*
X22000000Y-11000000D02*
X21000000Y-10000000D01*
X22000000Y-10000000D02*
X22000000Y-11000000D01*
X18500000Y-5000000D02*
X22000000Y-10000000D01*
X11500000Y-5000000D02*
X18500000Y-5000000D01*
D12*
X9740000Y-9380000D02*
X9780000Y-9420000D01*
X9780000Y-9380000D02*
X9740000Y-9420000D01*
X9750000Y-9260000D02*
X9790000Y-9300000D01*
X9790000Y-9260000D02*
X9750000Y-9300000D01*
X10380000Y-9260000D02*
X10420000Y-9300000D01*
X10420000Y-9260000D02*
X10380000Y-9300000D01*
X11640000Y-13040000D02*
X11680000Y-13080000D01*
X11680000Y-13040000D02*
X11640000Y-13080000D01*
X11650000Y-13430000D02*
X11690000Y-13470000D01*
X11690000Y-13430000D02*
X11650000Y-13470000D01*
X11750000Y-14450000D02*
X11790000Y-14490000D01*
X11790000Y-14450000D02*
X11750000Y-14490000D01*
X11930000Y-13610000D02*
X11970000Y-13650000D01*
X11970000Y-13610000D02*
X11930000Y-13650000D01*
X12100000Y-10830000D02*
X12140000Y-10870000D01*
X12140000Y-10830000D02*
X12100000Y-10870000D01*
X12150000Y-13460000D02*
X12190000Y-13500000D01*
X12190000Y-13460000D02*
X12150000Y-13500000D01*
X12200000Y-12880000D02*
X12240000Y-12920000D01*
X12240000Y-12880000D02*
X12200000Y-12920000D01*
X12230000Y-14360000D02*
X12270000Y-14400000D01*
X12270000Y-14360000D02*
X12230000Y-14400000D01*
X12310000Y-13020000D02*
X12350000Y-13060000D01*
X12350000Y-13020000D02*
X12310000Y-13060000D01*
X12450000Y-14040000D02*
X12490000Y-14080000D01*
X12490000Y-14040000D02*
X12450000Y-14080000D01*
X12480000Y-13520000D02*
X12520000Y-13560000D01*
X12520000Y-13520000D02*
X12480000Y-13560000D01*
X12480000Y-13780000D02*
X12520000Y-13820000D01*
X12520000Y-13780000D02*
X12480000Y-13820000D01*
X12500000Y-13090000D02*
X12540000Y-13130000D01*
X12540000Y-13090000D02*
X12500000Y-13130000D01*
X12940000Y-14630000D02*
X12980000Y-14670000D01*
X12980000Y-14630000D02*
X12940000Y-14670000D01*
X13010000Y-12850000D02*
X13050000Y-12890000D01*
X13050000Y-12850000D02*
X13010000Y-12890000D01*
X13080000Y-14420000D02*
X13120000Y-14460000D01*
X13120000Y-14420000D02*
X13080000Y-14460000D01*
X13100000Y-13490000D02*
X13140000Y-13530000D01*
X13140000Y-13490000D02*
X13100000Y-13530000D01*
X13120000Y-13720000D02*
X13160000Y-13760000D01*
X13160000Y-13720000D02*
X13120000Y-13760000D01*
X13130000Y-11160000D02*
X13170000Y-11200000D01*
X13170000Y-11160000D02*
X13130000Y-11200000D01*
X13210000Y-13030000D02*
X13250000Y-13070000D01*
X13250000Y-13030000D02*
X13210000Y-13070000D01*
X13320000Y-11160000D02*
X13360000Y-11200000D01*
X13360000Y-11160000D02*
X13320000Y-11200000D01*
X13350000Y-12880000D02*
X13390000Y-12920000D01*
X13390000Y-12880000D02*
X13350000Y-12920000D01*
X13390000Y-11870000D02*
X13430000Y-11910000D01*
X13430000Y-11870000D02*
X13390000Y-11910000D01*
X13440000Y-12310000D02*
X13480000Y-12350000D01*
X13480000Y-12310000D02*
X13440000Y-12350000D01*
X13480000Y-11800000D02*
X13520000Y-11840000D01*
X13520000Y-11800000D02*
X13480000Y-11840000D01*
X13480000Y-14720000D02*
X13520000Y-14760000D01*
X13520000Y-14720000D02*
X13480000Y-14760000D01*
X13560000Y-14880000D02*
X13600000Y-14920000D01*
X13600000Y-14880000D02*
X13560000Y-14920000D01*
X13580000Y-14440000D02*
X13620000Y-14480000D01*
X13620000Y-14440000D02*
X13580000Y-14480000D01*
X13590000Y-11230000D02*
X13630000Y-11270000D01*
X13630000Y-11230000D02*
X13590000Y-11270000D01*
X13590000Y-11380000D02*
X13630000Y-11420000D01*
X13630000Y-11380000D02*
X13590000Y-11420000D01*
X13590000Y-11530000D02*
X13630000Y-11570000D01*
X13630000Y-11530000D02*
X13590000Y-11570000D01*
X13590000Y-11680000D02*
X13630000Y-11720000D01*
X13630000Y-11680000D02*
X13590000Y-11720000D01*
X13650000Y-12180000D02*
X13690000Y-12220000D01*
X13690000Y-12180000D02*
X13650000Y-12220000D01*
X13650000Y-12950000D02*
X13690000Y-12990000D01*
X13690000Y-12950000D02*
X13650000Y-12990000D01*
X13660000Y-14160000D02*
X13700000Y-14200000D01*
X13700000Y-14160000D02*
X13660000Y-14200000D01*
X13740000Y-12780000D02*
X13780000Y-12820000D01*
X13780000Y-12780000D02*
X13740000Y-12820000D01*
X13750000Y-14170000D02*
X13790000Y-14210000D01*
X13790000Y-14170000D02*
X13750000Y-14210000D01*
X13750000Y-14270000D02*
X13790000Y-14310000D01*
X13790000Y-14270000D02*
X13750000Y-14310000D01*
X13750000Y-14365000D02*
X13790000Y-14405000D01*
X13790000Y-14365000D02*
X13750000Y-14405000D01*
X13810000Y-12955000D02*
X13850000Y-12995000D01*
X13850000Y-12955000D02*
X13810000Y-12995000D01*
X13870000Y-14660000D02*
X13910000Y-14700000D01*
X13910000Y-14660000D02*
X13870000Y-14700000D01*
X13940000Y-14720000D02*
X13980000Y-14760000D01*
X13980000Y-14720000D02*
X13940000Y-14760000D01*
X13955000Y-14265000D02*
X13995000Y-14305000D01*
X13995000Y-14265000D02*
X13955000Y-14305000D01*
X14030000Y-14190000D02*
X14070000Y-14230000D01*
X14070000Y-14190000D02*
X14030000Y-14230000D01*
X14110000Y-13900000D02*
X14150000Y-13940000D01*
X14150000Y-13900000D02*
X14110000Y-13940000D01*
X14140000Y-12570000D02*
X14180000Y-12610000D01*
X14180000Y-12570000D02*
X14140000Y-12610000D01*
X14140000Y-13040000D02*
X14180000Y-13080000D01*
X14180000Y-13040000D02*
X14140000Y-13080000D01*
X14140000Y-14310000D02*
X14180000Y-14350000D01*
X14180000Y-14310000D02*
X14140000Y-14350000D01*
X14190000Y-13920000D02*
X14230000Y-13960000D01*
X14230000Y-13920000D02*
X14190000Y-13960000D01*
X14210000Y-14700000D02*
X14250000Y-14740000D01*
X14250000Y-14700000D02*
X14210000Y-14740000D01*
X14220000Y-14020000D02*
X14260000Y-14060000D01*
X14260000Y-14020000D02*
X14220000Y-14060000D01*
X14230000Y-11110000D02*
X14270000Y-11150000D01*
X14270000Y-11110000D02*
X14230000Y-11150000D01*
X14240000Y-11780000D02*
X14280000Y-11820000D01*
X14280000Y-11780000D02*
X14240000Y-11820000D01*
X14310000Y-13830000D02*
X14350000Y-13870000D01*
X14350000Y-13830000D02*
X14310000Y-13870000D01*
X14330000Y-13510000D02*
X14370000Y-13550000D01*
X14370000Y-13510000D02*
X14330000Y-13550000D01*
X14340000Y-13090000D02*
X14380000Y-13130000D01*
X14380000Y-13090000D02*
X14340000Y-13130000D01*
X14350000Y-12030000D02*
X14390000Y-12070000D01*
X14390000Y-12030000D02*
X14350000Y-12070000D01*
X14360000Y-12600000D02*
X14400000Y-12640000D01*
X14400000Y-12600000D02*
X14360000Y-12640000D01*
X14410000Y-13930000D02*
X14450000Y-13970000D01*
X14450000Y-13930000D02*
X14410000Y-13970000D01*
X14470000Y-11380000D02*
X14510000Y-11420000D01*
X14510000Y-11380000D02*
X14470000Y-11420000D01*
X14480000Y-13760000D02*
X14520000Y-13800000D01*
X14520000Y-13760000D02*
X14480000Y-13800000D01*
X14510000Y-14360000D02*
X14550000Y-14400000D01*
X14550000Y-14360000D02*
X14510000Y-14400000D01*
X14560000Y-11780000D02*
X14600000Y-11820000D01*
X14600000Y-11780000D02*
X14560000Y-11820000D01*
X14560000Y-12230000D02*
X14600000Y-12270000D01*
X14600000Y-12230000D02*
X14560000Y-12270000D01*
X14590000Y-13250000D02*
X14630000Y-13290000D01*
X14630000Y-13250000D02*
X14590000Y-13290000D01*
X14690000Y-13160000D02*
X14730000Y-13200000D01*
X14730000Y-13160000D02*
X14690000Y-13200000D01*
X14690000Y-14405000D02*
X14730000Y-14445000D01*
X14730000Y-14405000D02*
X14690000Y-14445000D01*
X14830000Y-11520000D02*
X14870000Y-11560000D01*
X14870000Y-11520000D02*
X14830000Y-11560000D01*
X14850000Y-13650000D02*
X14890000Y-13690000D01*
X14890000Y-13650000D02*
X14850000Y-13690000D01*
X14850000Y-13880000D02*
X14890000Y-13920000D01*
X14890000Y-13880000D02*
X14850000Y-13920000D01*
X14860000Y-13090000D02*
X14900000Y-13130000D01*
X14900000Y-13090000D02*
X14860000Y-13130000D01*
X14900000Y-12950000D02*
X14940000Y-12990000D01*
X14940000Y-12950000D02*
X14900000Y-12990000D01*
X14910000Y-13580000D02*
X14950000Y-13620000D01*
X14950000Y-13580000D02*
X14910000Y-13620000D01*
X14920000Y-13800000D02*
X14960000Y-13840000D01*
X14960000Y-13800000D02*
X14920000Y-13840000D01*
X14930000Y-14000000D02*
X14970000Y-14040000D01*
X14970000Y-14000000D02*
X14930000Y-14040000D01*
X14940000Y-12080000D02*
X14980000Y-12120000D01*
X14980000Y-12080000D02*
X14940000Y-12120000D01*
X14950000Y-14760000D02*
X14990000Y-14800000D01*
X14990000Y-14760000D02*
X14950000Y-14800000D01*
X14980000Y-11110000D02*
X15020000Y-11150000D01*
X15020000Y-11110000D02*
X14980000Y-11150000D01*
X15000000Y-12950000D02*
X15040000Y-12990000D01*
X15040000Y-12950000D02*
X15000000Y-12990000D01*
X15000000Y-13720000D02*
X15040000Y-13760000D01*
X15040000Y-13720000D02*
X15000000Y-13760000D01*
X15025000Y-13170000D02*
X15065000Y-13210000D01*
X15065000Y-13170000D02*
X15025000Y-13210000D01*
X15040000Y-12080000D02*
X15080000Y-12120000D01*
X15080000Y-12080000D02*
X15040000Y-12120000D01*
X15310000Y-11290000D02*
X15350000Y-11330000D01*
X15350000Y-11290000D02*
X15310000Y-11330000D01*
X15350000Y-14220000D02*
X15390000Y-14260000D01*
X15390000Y-14220000D02*
X15350000Y-14260000D01*
X15420000Y-14760000D02*
X15460000Y-14800000D01*
X15460000Y-14760000D02*
X15420000Y-14800000D01*
X15490000Y-11730000D02*
X15530000Y-11770000D01*
X15530000Y-11730000D02*
X15490000Y-11770000D01*
X15520000Y-14590000D02*
X15560000Y-14630000D01*
X15560000Y-14590000D02*
X15520000Y-14630000D01*
X15570000Y-5860000D02*
X15610000Y-5900000D01*
X15610000Y-5860000D02*
X15570000Y-5900000D01*
X15590000Y-12450000D02*
X15630000Y-12490000D01*
X15630000Y-12450000D02*
X15590000Y-12490000D01*
X15655000Y-12020000D02*
X15695000Y-12060000D01*
X15695000Y-12020000D02*
X15655000Y-12060000D01*
X15690000Y-13900000D02*
X15730000Y-13940000D01*
X15730000Y-13900000D02*
X15690000Y-13940000D01*
X15690000Y-14080000D02*
X15730000Y-14120000D01*
X15730000Y-14080000D02*
X15690000Y-14120000D01*
X15710000Y-11750000D02*
X15750000Y-11790000D01*
X15750000Y-11750000D02*
X15710000Y-11790000D01*
X15720000Y-11110000D02*
X15760000Y-11150000D01*
X15760000Y-11110000D02*
X15720000Y-11150000D01*
X15730000Y-14340000D02*
X15770000Y-14380000D01*
X15770000Y-14340000D02*
X15730000Y-14380000D01*
X15810000Y-14550000D02*
X15850000Y-14590000D01*
X15850000Y-14550000D02*
X15810000Y-14590000D01*
X15830000Y-13450000D02*
X15870000Y-13490000D01*
X15870000Y-13450000D02*
X15830000Y-13490000D01*
X15885000Y-12575000D02*
X15925000Y-12615000D01*
X15925000Y-12575000D02*
X15885000Y-12615000D01*
X15940000Y-13340000D02*
X15980000Y-13380000D01*
X15980000Y-13340000D02*
X15940000Y-13380000D01*
X15940000Y-14540000D02*
X15980000Y-14580000D01*
X15980000Y-14540000D02*
X15940000Y-14580000D01*
X16030000Y-14770000D02*
X16070000Y-14810000D01*
X16070000Y-14770000D02*
X16030000Y-14810000D01*
X16055000Y-13735000D02*
X16095000Y-13775000D01*
X16095000Y-13735000D02*
X16055000Y-13775000D01*
X16055000Y-14125000D02*
X16095000Y-14165000D01*
X16095000Y-14125000D02*
X16055000Y-14165000D01*
X16060000Y-14460000D02*
X16100000Y-14500000D01*
X16100000Y-14460000D02*
X16060000Y-14500000D01*
X16080000Y-12930000D02*
X16120000Y-12970000D01*
X16120000Y-12930000D02*
X16080000Y-12970000D01*
X16120000Y-13360000D02*
X16160000Y-13400000D01*
X16160000Y-13360000D02*
X16120000Y-13400000D01*
X16150000Y-11910000D02*
X16190000Y-11950000D01*
X16190000Y-11910000D02*
X16150000Y-11950000D01*
X16150000Y-12510000D02*
X16190000Y-12550000D01*
X16190000Y-12510000D02*
X16150000Y-12550000D01*
X16170000Y-12740000D02*
X16210000Y-12780000D01*
X16210000Y-12740000D02*
X16170000Y-12780000D01*
X16180000Y-12610000D02*
X16220000Y-12650000D01*
X16220000Y-12610000D02*
X16180000Y-12650000D01*
X16220000Y-11840000D02*
X16260000Y-11880000D01*
X16260000Y-11840000D02*
X16220000Y-11880000D01*
X16290000Y-11780000D02*
X16330000Y-11820000D01*
X16330000Y-11780000D02*
X16290000Y-11820000D01*
X16360000Y-11230000D02*
X16400000Y-11270000D01*
X16400000Y-11230000D02*
X16360000Y-11270000D01*
X16360000Y-11380000D02*
X16400000Y-11420000D01*
X16400000Y-11380000D02*
X16360000Y-11420000D01*
X16360000Y-11530000D02*
X16400000Y-11570000D01*
X16400000Y-11530000D02*
X16360000Y-11570000D01*
X16360000Y-11680000D02*
X16400000Y-11720000D01*
X16400000Y-11680000D02*
X16360000Y-11720000D01*
X16380000Y-14880000D02*
X16420000Y-14920000D01*
X16420000Y-14880000D02*
X16380000Y-14920000D01*
X16410000Y-12750000D02*
X16450000Y-12790000D01*
X16450000Y-12750000D02*
X16410000Y-12790000D01*
X16550000Y-14460000D02*
X16590000Y-14500000D01*
X16590000Y-14460000D02*
X16550000Y-14500000D01*
X16560000Y-13360000D02*
X16600000Y-13400000D01*
X16600000Y-13360000D02*
X16560000Y-13400000D01*
X16680000Y-12000000D02*
X16720000Y-12040000D01*
X16720000Y-12000000D02*
X16680000Y-12040000D01*
X16680000Y-12210000D02*
X16720000Y-12250000D01*
X16720000Y-12210000D02*
X16680000Y-12250000D01*
X16680000Y-12980000D02*
X16720000Y-13020000D01*
X16720000Y-12980000D02*
X16680000Y-13020000D01*
X17160000Y-13340000D02*
X17200000Y-13380000D01*
X17200000Y-13340000D02*
X17160000Y-13380000D01*
X17360000Y-12930000D02*
X17400000Y-12970000D01*
X17400000Y-12930000D02*
X17360000Y-12970000D01*
X17380000Y-14430000D02*
X17420000Y-14470000D01*
X17420000Y-14430000D02*
X17380000Y-14470000D01*
X17390000Y-13620000D02*
X17430000Y-13660000D01*
X17430000Y-13620000D02*
X17390000Y-13660000D01*
X17390000Y-13990000D02*
X17430000Y-14030000D01*
X17430000Y-13990000D02*
X17390000Y-14030000D01*
X17760000Y-14160000D02*
X17800000Y-14200000D01*
X17800000Y-14160000D02*
X17760000Y-14200000D01*
X17990000Y-12110000D02*
X18030000Y-12150000D01*
X18030000Y-12110000D02*
X17990000Y-12150000D01*
X18160000Y-12890000D02*
X18200000Y-12930000D01*
X18200000Y-12890000D02*
X18160000Y-12930000D01*
X18300000Y-11630000D02*
X18340000Y-11670000D01*
X18340000Y-11630000D02*
X18300000Y-11670000D01*
X18750000Y-14090000D02*
X18790000Y-14130000D01*
X18790000Y-14090000D02*
X18750000Y-14130000D01*
X18840000Y-13200000D02*
X18880000Y-13240000D01*
X18880000Y-13200000D02*
X18840000Y-13240000D01*
X18840000Y-14230000D02*
X18880000Y-14270000D01*
X18880000Y-14230000D02*
X18840000Y-14270000D01*
X19010000Y-11570000D02*
X19050000Y-11610000D01*
X19050000Y-11570000D02*
X19010000Y-11610000D01*
X19180000Y-11040000D02*
X19220000Y-11080000D01*
X19220000Y-11040000D02*
X19180000Y-11080000D01*
X19220000Y-13520000D02*
X19260000Y-13560000D01*
X19260000Y-13520000D02*
X19220000Y-13560000D01*
X19230000Y-12870000D02*
X19270000Y-12910000D01*
X19270000Y-12870000D02*
X19230000Y-12910000D01*
X19240000Y-12190000D02*
X19280000Y-12230000D01*
X19280000Y-12190000D02*
X19240000Y-12230000D01*
X19250000Y-14080000D02*
X19290000Y-14120000D01*
X19290000Y-14080000D02*
X19250000Y-14120000D01*
X19700000Y-9380000D02*
X19740000Y-9420000D01*
X19740000Y-9380000D02*
X19700000Y-9420000D01*
X20220000Y-9250000D02*
X20260000Y-9290000D01*
X20260000Y-9250000D02*
X20220000Y-9290000D01*
X20230000Y-9380000D02*
X20270000Y-9420000D01*
X20270000Y-9380000D02*
X20230000Y-9420000D01*
X20310000Y-9050000D02*
X20350000Y-9090000D01*
X20350000Y-9050000D02*
X20310000Y-9090000D01*
X20630000Y-12030000D02*
X20670000Y-12070000D01*
X20670000Y-12030000D02*
X20630000Y-12070000D01*
X20630000Y-13730000D02*
X20670000Y-13770000D01*
X20670000Y-13730000D02*
X20630000Y-13770000D01*
X20880000Y-11330000D02*
X20920000Y-11370000D01*
X20920000Y-11330000D02*
X20880000Y-11370000D01*
X20880000Y-13030000D02*
X20920000Y-13070000D01*
X20920000Y-13030000D02*
X20880000Y-13070000D01*
X8325322Y-9874096D02*
G75*
G03X8325322Y-9874096I-38100J0D01*
G01*
X8412196Y-10112778D02*
G75*
G03X8412196Y-10112778I-38100J0D01*
G01*
X8564004Y-9787223D02*
G75*
G03X8564004Y-9787223I-38100J0D01*
G01*
X8650878Y-10025904D02*
G75*
G03X8650878Y-10025904I-38100J0D01*
G01*
X11661100Y-5373000D02*
G75*
G03X11661100Y-5373000I-38100J0D01*
G01*
X11661100Y-5627000D02*
G75*
G03X11661100Y-5627000I-38100J0D01*
G01*
X11915100Y-5373000D02*
G75*
G03X11915100Y-5373000I-38100J0D01*
G01*
X11915100Y-5627000D02*
G75*
G03X11915100Y-5627000I-38100J0D01*
G01*
X12961100Y-5373000D02*
G75*
G03X12961100Y-5373000I-38100J0D01*
G01*
X12961100Y-5627000D02*
G75*
G03X12961100Y-5627000I-38100J0D01*
G01*
X13215100Y-5373000D02*
G75*
G03X13215100Y-5373000I-38100J0D01*
G01*
X13215100Y-5627000D02*
G75*
G03X13215100Y-5627000I-38100J0D01*
G01*
X14261100Y-5373000D02*
G75*
G03X14261100Y-5373000I-38100J0D01*
G01*
X14261100Y-5627000D02*
G75*
G03X14261100Y-5627000I-38100J0D01*
G01*
X14515100Y-5373000D02*
G75*
G03X14515100Y-5373000I-38100J0D01*
G01*
X14515100Y-5627000D02*
G75*
G03X14515100Y-5627000I-38100J0D01*
G01*
X15561100Y-5373000D02*
G75*
G03X15561100Y-5373000I-38100J0D01*
G01*
X15561100Y-5627000D02*
G75*
G03X15561100Y-5627000I-38100J0D01*
G01*
X15815100Y-5373000D02*
G75*
G03X15815100Y-5373000I-38100J0D01*
G01*
X15815100Y-5627000D02*
G75*
G03X15815100Y-5627000I-38100J0D01*
G01*
X16861100Y-5373000D02*
G75*
G03X16861100Y-5373000I-38100J0D01*
G01*
X16861100Y-5627000D02*
G75*
G03X16861100Y-5627000I-38100J0D01*
G01*
X17115100Y-5373000D02*
G75*
G03X17115100Y-5373000I-38100J0D01*
G01*
X17115100Y-5627000D02*
G75*
G03X17115100Y-5627000I-38100J0D01*
G01*
X18161100Y-5373000D02*
G75*
G03X18161100Y-5373000I-38100J0D01*
G01*
X18161100Y-5627000D02*
G75*
G03X18161100Y-5627000I-38100J0D01*
G01*
X18415100Y-5373000D02*
G75*
G03X18415100Y-5373000I-38100J0D01*
G01*
X18415100Y-5627000D02*
G75*
G03X18415100Y-5627000I-38100J0D01*
G01*
X21425323Y-10025904D02*
G75*
G03X21425323Y-10025904I-38100J0D01*
G01*
X21512196Y-9787223D02*
G75*
G03X21512196Y-9787223I-38100J0D01*
G01*
X21664004Y-10112778D02*
G75*
G03X21664004Y-10112778I-38100J0D01*
G01*
X21750878Y-9874096D02*
G75*
G03X21750878Y-9874096I-38100J0D01*
G01*
X14800000Y-11710000D02*
X14800000Y-11790000D01*
X14760000Y-11750000D02*
X14840000Y-11750000D01*
X15000000Y-11710000D02*
X15000000Y-11790000D01*
X14960000Y-11750000D02*
X15040000Y-11750000D01*
X15200000Y-11710000D02*
X15200000Y-11790000D01*
X15160000Y-11750000D02*
X15240000Y-11750000D01*
X17225000Y-13510000D02*
X17225000Y-13590000D01*
X17185000Y-13550000D02*
X17265000Y-13550000D01*
X17225000Y-13710000D02*
X17225000Y-13790000D01*
X17185000Y-13750000D02*
X17265000Y-13750000D01*
X17225000Y-14110000D02*
X17225000Y-14190000D01*
X17185000Y-14150000D02*
X17265000Y-14150000D01*
X17225000Y-14310000D02*
X17225000Y-14390000D01*
X17185000Y-14350000D02*
X17265000Y-14350000D01*
X18242427Y-13342427D02*
X18242427Y-13257573D01*
X18157573Y-13257573D01*
X18157573Y-13342427D01*
X18242427Y-13342427D01*
X18496427Y-13342427D02*
X18496427Y-13257573D01*
X18411573Y-13257573D01*
X18411573Y-13342427D01*
X18496427Y-13342427D01*
D13*
X8263928Y-15473214D02*
X8263928Y-15173214D01*
X8335357Y-15173214D01*
X8378214Y-15187500D01*
X8406786Y-15216071D01*
X8421071Y-15244643D01*
X8435357Y-15301786D01*
X8435357Y-15344643D01*
X8421071Y-15401786D01*
X8406786Y-15430357D01*
X8378214Y-15458929D01*
X8335357Y-15473214D01*
X8263928Y-15473214D01*
X8563929Y-15473214D02*
X8563929Y-15273214D01*
X8563929Y-15330357D02*
X8578214Y-15301786D01*
X8592500Y-15287500D01*
X8621071Y-15273214D01*
X8649643Y-15273214D01*
X8749643Y-15473214D02*
X8749643Y-15273214D01*
X8749643Y-15173214D02*
X8735357Y-15187500D01*
X8749643Y-15201786D01*
X8763929Y-15187500D01*
X8749643Y-15173214D01*
X8749643Y-15201786D01*
X8935357Y-15473214D02*
X8906786Y-15458929D01*
X8892500Y-15430357D01*
X8892500Y-15173214D01*
X9092500Y-15473214D02*
X9063929Y-15458929D01*
X9049643Y-15430357D01*
X9049643Y-15173214D01*
X9435357Y-15473214D02*
X9435357Y-15173214D01*
X9535357Y-15387500D01*
X9635357Y-15173214D01*
X9635357Y-15473214D01*
X9906786Y-15473214D02*
X9906786Y-15316071D01*
X9892500Y-15287500D01*
X9863929Y-15273214D01*
X9806786Y-15273214D01*
X9778214Y-15287500D01*
X9906786Y-15458929D02*
X9878214Y-15473214D01*
X9806786Y-15473214D01*
X9778214Y-15458929D01*
X9763929Y-15430357D01*
X9763929Y-15401786D01*
X9778214Y-15373214D01*
X9806786Y-15358929D01*
X9878214Y-15358929D01*
X9906786Y-15344643D01*
X10049643Y-15273214D02*
X10049643Y-15573214D01*
X10049643Y-15287500D02*
X10078214Y-15273214D01*
X10135357Y-15273214D01*
X10163929Y-15287500D01*
X10178214Y-15301786D01*
X10192500Y-15330357D01*
X10192500Y-15416071D01*
X10178214Y-15444643D01*
X10163929Y-15458929D01*
X10135357Y-15473214D01*
X10078214Y-15473214D01*
X10049643Y-15458929D01*
X10321071Y-15444643D02*
X10335357Y-15458929D01*
X10321071Y-15473214D01*
X10306786Y-15458929D01*
X10321071Y-15444643D01*
X10321071Y-15473214D01*
X10321071Y-15287500D02*
X10335357Y-15301786D01*
X10321071Y-15316071D01*
X10306786Y-15301786D01*
X10321071Y-15287500D01*
X10321071Y-15316071D01*
X7952500Y-15947500D02*
X7992500Y-15987500D01*
X7992500Y-15947500D02*
X7952500Y-15987500D01*
X8321071Y-15803214D02*
X8349643Y-15803214D01*
X8378214Y-15817500D01*
X8392500Y-15831786D01*
X8406786Y-15860357D01*
X8421071Y-15917500D01*
X8421071Y-15988929D01*
X8406786Y-16046071D01*
X8392500Y-16074643D01*
X8378214Y-16088929D01*
X8349643Y-16103214D01*
X8321071Y-16103214D01*
X8292500Y-16088929D01*
X8278214Y-16074643D01*
X8263928Y-16046071D01*
X8249643Y-15988929D01*
X8249643Y-15917500D01*
X8263928Y-15860357D01*
X8278214Y-15831786D01*
X8292500Y-15817500D01*
X8321071Y-15803214D01*
X8549643Y-16074643D02*
X8563929Y-16088929D01*
X8549643Y-16103214D01*
X8535357Y-16088929D01*
X8549643Y-16074643D01*
X8549643Y-16103214D01*
X8821071Y-15903214D02*
X8821071Y-16103214D01*
X8749643Y-15788929D02*
X8678214Y-16003214D01*
X8863928Y-16003214D01*
X9035357Y-15803214D02*
X9063929Y-15803214D01*
X9092500Y-15817500D01*
X9106786Y-15831786D01*
X9121071Y-15860357D01*
X9135357Y-15917500D01*
X9135357Y-15988929D01*
X9121071Y-16046071D01*
X9106786Y-16074643D01*
X9092500Y-16088929D01*
X9063929Y-16103214D01*
X9035357Y-16103214D01*
X9006786Y-16088929D01*
X8992500Y-16074643D01*
X8978214Y-16046071D01*
X8963929Y-15988929D01*
X8963929Y-15917500D01*
X8978214Y-15860357D01*
X8992500Y-15831786D01*
X9006786Y-15817500D01*
X9035357Y-15803214D01*
X9263929Y-16103214D02*
X9263929Y-15903214D01*
X9263929Y-15931786D02*
X9278214Y-15917500D01*
X9306786Y-15903214D01*
X9349643Y-15903214D01*
X9378214Y-15917500D01*
X9392500Y-15946071D01*
X9392500Y-16103214D01*
X9392500Y-15946071D02*
X9406786Y-15917500D01*
X9435357Y-15903214D01*
X9478214Y-15903214D01*
X9506786Y-15917500D01*
X9521071Y-15946071D01*
X9521071Y-16103214D01*
X9663929Y-16103214D02*
X9663929Y-15903214D01*
X9663929Y-15931786D02*
X9678214Y-15917500D01*
X9706786Y-15903214D01*
X9749643Y-15903214D01*
X9778214Y-15917500D01*
X9792500Y-15946071D01*
X9792500Y-16103214D01*
X9792500Y-15946071D02*
X9806786Y-15917500D01*
X9835357Y-15903214D01*
X9878214Y-15903214D01*
X9906786Y-15917500D01*
X9921071Y-15946071D01*
X9921071Y-16103214D01*
X10506786Y-15788929D02*
X10249643Y-16174643D01*
X10892500Y-15803214D02*
X10921071Y-15803214D01*
X10949643Y-15817500D01*
X10963928Y-15831786D01*
X10978214Y-15860357D01*
X10992500Y-15917500D01*
X10992500Y-15988929D01*
X10978214Y-16046071D01*
X10963928Y-16074643D01*
X10949643Y-16088929D01*
X10921071Y-16103214D01*
X10892500Y-16103214D01*
X10863928Y-16088929D01*
X10849643Y-16074643D01*
X10835357Y-16046071D01*
X10821071Y-15988929D01*
X10821071Y-15917500D01*
X10835357Y-15860357D01*
X10849643Y-15831786D01*
X10863928Y-15817500D01*
X10892500Y-15803214D01*
X11121071Y-16074643D02*
X11135357Y-16088929D01*
X11121071Y-16103214D01*
X11106786Y-16088929D01*
X11121071Y-16074643D01*
X11121071Y-16103214D01*
X11321071Y-15803214D02*
X11349643Y-15803214D01*
X11378214Y-15817500D01*
X11392500Y-15831786D01*
X11406785Y-15860357D01*
X11421071Y-15917500D01*
X11421071Y-15988929D01*
X11406785Y-16046071D01*
X11392500Y-16074643D01*
X11378214Y-16088929D01*
X11349643Y-16103214D01*
X11321071Y-16103214D01*
X11292500Y-16088929D01*
X11278214Y-16074643D01*
X11263928Y-16046071D01*
X11249643Y-15988929D01*
X11249643Y-15917500D01*
X11263928Y-15860357D01*
X11278214Y-15831786D01*
X11292500Y-15817500D01*
X11321071Y-15803214D01*
X11706785Y-16103214D02*
X11535357Y-16103214D01*
X11621071Y-16103214D02*
X11621071Y-15803214D01*
X11592500Y-15846071D01*
X11563928Y-15874643D01*
X11535357Y-15888929D01*
X11963928Y-15803214D02*
X11906785Y-15803214D01*
X11878214Y-15817500D01*
X11863928Y-15831786D01*
X11835357Y-15874643D01*
X11821071Y-15931786D01*
X11821071Y-16046071D01*
X11835357Y-16074643D01*
X11849643Y-16088929D01*
X11878214Y-16103214D01*
X11935357Y-16103214D01*
X11963928Y-16088929D01*
X11978214Y-16074643D01*
X11992500Y-16046071D01*
X11992500Y-15974643D01*
X11978214Y-15946071D01*
X11963928Y-15931786D01*
X11935357Y-15917500D01*
X11878214Y-15917500D01*
X11849643Y-15931786D01*
X11835357Y-15946071D01*
X11821071Y-15974643D01*
X12106786Y-15803214D02*
X12106786Y-15860357D01*
X12221071Y-15803214D02*
X12221071Y-15860357D01*
X12663928Y-16217500D02*
X12649643Y-16203214D01*
X12621071Y-16160357D01*
X12606785Y-16131786D01*
X12592500Y-16088929D01*
X12578214Y-16017500D01*
X12578214Y-15960357D01*
X12592500Y-15888929D01*
X12606785Y-15846071D01*
X12621071Y-15817500D01*
X12649643Y-15774643D01*
X12663928Y-15760357D01*
X12935357Y-16103214D02*
X12763928Y-16103214D01*
X12849643Y-16103214D02*
X12849643Y-15803214D01*
X12821071Y-15846071D01*
X12792500Y-15874643D01*
X12763928Y-15888929D01*
X13206785Y-15803214D02*
X13063928Y-15803214D01*
X13049643Y-15946071D01*
X13063928Y-15931786D01*
X13092500Y-15917500D01*
X13163928Y-15917500D01*
X13192500Y-15931786D01*
X13206785Y-15946071D01*
X13221071Y-15974643D01*
X13221071Y-16046071D01*
X13206785Y-16074643D01*
X13192500Y-16088929D01*
X13163928Y-16103214D01*
X13092500Y-16103214D01*
X13063928Y-16088929D01*
X13049643Y-16074643D01*
X13335357Y-15831786D02*
X13349643Y-15817500D01*
X13378214Y-15803214D01*
X13449643Y-15803214D01*
X13478214Y-15817500D01*
X13492500Y-15831786D01*
X13506785Y-15860357D01*
X13506785Y-15888929D01*
X13492500Y-15931786D01*
X13321071Y-16103214D01*
X13506785Y-16103214D01*
X13863928Y-16103214D02*
X13863928Y-15803214D01*
X13992500Y-16103214D02*
X13992500Y-15946071D01*
X13978214Y-15917500D01*
X13949643Y-15903214D01*
X13906785Y-15903214D01*
X13878214Y-15917500D01*
X13863928Y-15931786D01*
X14178214Y-16103214D02*
X14149643Y-16088929D01*
X14135357Y-16074643D01*
X14121071Y-16046071D01*
X14121071Y-15960357D01*
X14135357Y-15931786D01*
X14149643Y-15917500D01*
X14178214Y-15903214D01*
X14221071Y-15903214D01*
X14249643Y-15917500D01*
X14263928Y-15931786D01*
X14278214Y-15960357D01*
X14278214Y-16046071D01*
X14263928Y-16074643D01*
X14249643Y-16088929D01*
X14221071Y-16103214D01*
X14178214Y-16103214D01*
X14449643Y-16103214D02*
X14421071Y-16088929D01*
X14406786Y-16060357D01*
X14406786Y-15803214D01*
X14678214Y-16088929D02*
X14649643Y-16103214D01*
X14592500Y-16103214D01*
X14563928Y-16088929D01*
X14549643Y-16060357D01*
X14549643Y-15946071D01*
X14563928Y-15917500D01*
X14592500Y-15903214D01*
X14649643Y-15903214D01*
X14678214Y-15917500D01*
X14692500Y-15946071D01*
X14692500Y-15974643D01*
X14549643Y-16003214D01*
X14806786Y-16088929D02*
X14835357Y-16103214D01*
X14892500Y-16103214D01*
X14921071Y-16088929D01*
X14935357Y-16060357D01*
X14935357Y-16046071D01*
X14921071Y-16017500D01*
X14892500Y-16003214D01*
X14849643Y-16003214D01*
X14821071Y-15988929D01*
X14806786Y-15960357D01*
X14806786Y-15946071D01*
X14821071Y-15917500D01*
X14849643Y-15903214D01*
X14892500Y-15903214D01*
X14921071Y-15917500D01*
X15035357Y-16217500D02*
X15049643Y-16203214D01*
X15078214Y-16160357D01*
X15092500Y-16131786D01*
X15106786Y-16088929D01*
X15121071Y-16017500D01*
X15121071Y-15960357D01*
X15106786Y-15888929D01*
X15092500Y-15846071D01*
X15078214Y-15817500D01*
X15049643Y-15774643D01*
X15035357Y-15760357D01*
X7992500Y-16363500D02*
G75*
G03X7992500Y-16363500I-38100J0D01*
G01*
X8321071Y-16199214D02*
X8349643Y-16199214D01*
X8378214Y-16213500D01*
X8392500Y-16227786D01*
X8406786Y-16256357D01*
X8421071Y-16313500D01*
X8421071Y-16384929D01*
X8406786Y-16442071D01*
X8392500Y-16470643D01*
X8378214Y-16484929D01*
X8349643Y-16499214D01*
X8321071Y-16499214D01*
X8292500Y-16484929D01*
X8278214Y-16470643D01*
X8263928Y-16442071D01*
X8249643Y-16384929D01*
X8249643Y-16313500D01*
X8263928Y-16256357D01*
X8278214Y-16227786D01*
X8292500Y-16213500D01*
X8321071Y-16199214D01*
X8549643Y-16470643D02*
X8563929Y-16484929D01*
X8549643Y-16499214D01*
X8535357Y-16484929D01*
X8549643Y-16470643D01*
X8549643Y-16499214D01*
X8663928Y-16199214D02*
X8863928Y-16199214D01*
X8735357Y-16499214D01*
X9106786Y-16199214D02*
X9049643Y-16199214D01*
X9021071Y-16213500D01*
X9006786Y-16227786D01*
X8978214Y-16270643D01*
X8963929Y-16327786D01*
X8963929Y-16442071D01*
X8978214Y-16470643D01*
X8992500Y-16484929D01*
X9021071Y-16499214D01*
X9078214Y-16499214D01*
X9106786Y-16484929D01*
X9121071Y-16470643D01*
X9135357Y-16442071D01*
X9135357Y-16370643D01*
X9121071Y-16342071D01*
X9106786Y-16327786D01*
X9078214Y-16313500D01*
X9021071Y-16313500D01*
X8992500Y-16327786D01*
X8978214Y-16342071D01*
X8963929Y-16370643D01*
X9263929Y-16499214D02*
X9263929Y-16299214D01*
X9263929Y-16327786D02*
X9278214Y-16313500D01*
X9306786Y-16299214D01*
X9349643Y-16299214D01*
X9378214Y-16313500D01*
X9392500Y-16342071D01*
X9392500Y-16499214D01*
X9392500Y-16342071D02*
X9406786Y-16313500D01*
X9435357Y-16299214D01*
X9478214Y-16299214D01*
X9506786Y-16313500D01*
X9521071Y-16342071D01*
X9521071Y-16499214D01*
X9663929Y-16499214D02*
X9663929Y-16299214D01*
X9663929Y-16327786D02*
X9678214Y-16313500D01*
X9706786Y-16299214D01*
X9749643Y-16299214D01*
X9778214Y-16313500D01*
X9792500Y-16342071D01*
X9792500Y-16499214D01*
X9792500Y-16342071D02*
X9806786Y-16313500D01*
X9835357Y-16299214D01*
X9878214Y-16299214D01*
X9906786Y-16313500D01*
X9921071Y-16342071D01*
X9921071Y-16499214D01*
X10506786Y-16184929D02*
X10249643Y-16570643D01*
X10892500Y-16199214D02*
X10921071Y-16199214D01*
X10949643Y-16213500D01*
X10963928Y-16227786D01*
X10978214Y-16256357D01*
X10992500Y-16313500D01*
X10992500Y-16384929D01*
X10978214Y-16442071D01*
X10963928Y-16470643D01*
X10949643Y-16484929D01*
X10921071Y-16499214D01*
X10892500Y-16499214D01*
X10863928Y-16484929D01*
X10849643Y-16470643D01*
X10835357Y-16442071D01*
X10821071Y-16384929D01*
X10821071Y-16313500D01*
X10835357Y-16256357D01*
X10849643Y-16227786D01*
X10863928Y-16213500D01*
X10892500Y-16199214D01*
X11121071Y-16470643D02*
X11135357Y-16484929D01*
X11121071Y-16499214D01*
X11106786Y-16484929D01*
X11121071Y-16470643D01*
X11121071Y-16499214D01*
X11321071Y-16199214D02*
X11349643Y-16199214D01*
X11378214Y-16213500D01*
X11392500Y-16227786D01*
X11406785Y-16256357D01*
X11421071Y-16313500D01*
X11421071Y-16384929D01*
X11406785Y-16442071D01*
X11392500Y-16470643D01*
X11378214Y-16484929D01*
X11349643Y-16499214D01*
X11321071Y-16499214D01*
X11292500Y-16484929D01*
X11278214Y-16470643D01*
X11263928Y-16442071D01*
X11249643Y-16384929D01*
X11249643Y-16313500D01*
X11263928Y-16256357D01*
X11278214Y-16227786D01*
X11292500Y-16213500D01*
X11321071Y-16199214D01*
X11521071Y-16199214D02*
X11706785Y-16199214D01*
X11606785Y-16313500D01*
X11649643Y-16313500D01*
X11678214Y-16327786D01*
X11692500Y-16342071D01*
X11706785Y-16370643D01*
X11706785Y-16442071D01*
X11692500Y-16470643D01*
X11678214Y-16484929D01*
X11649643Y-16499214D01*
X11563928Y-16499214D01*
X11535357Y-16484929D01*
X11521071Y-16470643D01*
X11892500Y-16199214D02*
X11921071Y-16199214D01*
X11949643Y-16213500D01*
X11963928Y-16227786D01*
X11978214Y-16256357D01*
X11992500Y-16313500D01*
X11992500Y-16384929D01*
X11978214Y-16442071D01*
X11963928Y-16470643D01*
X11949643Y-16484929D01*
X11921071Y-16499214D01*
X11892500Y-16499214D01*
X11863928Y-16484929D01*
X11849643Y-16470643D01*
X11835357Y-16442071D01*
X11821071Y-16384929D01*
X11821071Y-16313500D01*
X11835357Y-16256357D01*
X11849643Y-16227786D01*
X11863928Y-16213500D01*
X11892500Y-16199214D01*
X12106786Y-16199214D02*
X12106786Y-16256357D01*
X12221071Y-16199214D02*
X12221071Y-16256357D01*
X12663928Y-16613500D02*
X12649643Y-16599214D01*
X12621071Y-16556357D01*
X12606785Y-16527786D01*
X12592500Y-16484929D01*
X12578214Y-16413500D01*
X12578214Y-16356357D01*
X12592500Y-16284929D01*
X12606785Y-16242071D01*
X12621071Y-16213500D01*
X12649643Y-16170643D01*
X12663928Y-16156357D01*
X12749643Y-16199214D02*
X12935357Y-16199214D01*
X12835357Y-16313500D01*
X12878214Y-16313500D01*
X12906785Y-16327786D01*
X12921071Y-16342071D01*
X12935357Y-16370643D01*
X12935357Y-16442071D01*
X12921071Y-16470643D01*
X12906785Y-16484929D01*
X12878214Y-16499214D01*
X12792500Y-16499214D01*
X12763928Y-16484929D01*
X12749643Y-16470643D01*
X13049643Y-16227786D02*
X13063928Y-16213500D01*
X13092500Y-16199214D01*
X13163928Y-16199214D01*
X13192500Y-16213500D01*
X13206785Y-16227786D01*
X13221071Y-16256357D01*
X13221071Y-16284929D01*
X13206785Y-16327786D01*
X13035357Y-16499214D01*
X13221071Y-16499214D01*
X13578214Y-16499214D02*
X13578214Y-16199214D01*
X13706785Y-16499214D02*
X13706785Y-16342071D01*
X13692500Y-16313500D01*
X13663928Y-16299214D01*
X13621071Y-16299214D01*
X13592500Y-16313500D01*
X13578214Y-16327786D01*
X13892500Y-16499214D02*
X13863928Y-16484929D01*
X13849643Y-16470643D01*
X13835357Y-16442071D01*
X13835357Y-16356357D01*
X13849643Y-16327786D01*
X13863928Y-16313500D01*
X13892500Y-16299214D01*
X13935357Y-16299214D01*
X13963928Y-16313500D01*
X13978214Y-16327786D01*
X13992500Y-16356357D01*
X13992500Y-16442071D01*
X13978214Y-16470643D01*
X13963928Y-16484929D01*
X13935357Y-16499214D01*
X13892500Y-16499214D01*
X14163928Y-16499214D02*
X14135357Y-16484929D01*
X14121071Y-16456357D01*
X14121071Y-16199214D01*
X14392500Y-16484929D02*
X14363928Y-16499214D01*
X14306786Y-16499214D01*
X14278214Y-16484929D01*
X14263928Y-16456357D01*
X14263928Y-16342071D01*
X14278214Y-16313500D01*
X14306786Y-16299214D01*
X14363928Y-16299214D01*
X14392500Y-16313500D01*
X14406786Y-16342071D01*
X14406786Y-16370643D01*
X14263928Y-16399214D01*
X14521071Y-16484929D02*
X14549643Y-16499214D01*
X14606786Y-16499214D01*
X14635357Y-16484929D01*
X14649643Y-16456357D01*
X14649643Y-16442071D01*
X14635357Y-16413500D01*
X14606786Y-16399214D01*
X14563928Y-16399214D01*
X14535357Y-16384929D01*
X14521071Y-16356357D01*
X14521071Y-16342071D01*
X14535357Y-16313500D01*
X14563928Y-16299214D01*
X14606786Y-16299214D01*
X14635357Y-16313500D01*
X14749643Y-16613500D02*
X14763928Y-16599214D01*
X14792500Y-16556357D01*
X14806786Y-16527786D01*
X14821071Y-16484929D01*
X14835357Y-16413500D01*
X14835357Y-16356357D01*
X14821071Y-16284929D01*
X14806786Y-16242071D01*
X14792500Y-16213500D01*
X14763928Y-16170643D01*
X14749643Y-16156357D01*
X7952500Y-16719500D02*
X7952500Y-16799500D01*
X7912500Y-16759500D02*
X7992500Y-16759500D01*
X8321071Y-16595214D02*
X8349643Y-16595214D01*
X8378214Y-16609500D01*
X8392500Y-16623786D01*
X8406786Y-16652357D01*
X8421071Y-16709500D01*
X8421071Y-16780929D01*
X8406786Y-16838072D01*
X8392500Y-16866643D01*
X8378214Y-16880929D01*
X8349643Y-16895214D01*
X8321071Y-16895214D01*
X8292500Y-16880929D01*
X8278214Y-16866643D01*
X8263928Y-16838072D01*
X8249643Y-16780929D01*
X8249643Y-16709500D01*
X8263928Y-16652357D01*
X8278214Y-16623786D01*
X8292500Y-16609500D01*
X8321071Y-16595214D01*
X8549643Y-16866643D02*
X8563929Y-16880929D01*
X8549643Y-16895214D01*
X8535357Y-16880929D01*
X8549643Y-16866643D01*
X8549643Y-16895214D01*
X8735357Y-16723786D02*
X8706786Y-16709500D01*
X8692500Y-16695214D01*
X8678214Y-16666643D01*
X8678214Y-16652357D01*
X8692500Y-16623786D01*
X8706786Y-16609500D01*
X8735357Y-16595214D01*
X8792500Y-16595214D01*
X8821071Y-16609500D01*
X8835357Y-16623786D01*
X8849643Y-16652357D01*
X8849643Y-16666643D01*
X8835357Y-16695214D01*
X8821071Y-16709500D01*
X8792500Y-16723786D01*
X8735357Y-16723786D01*
X8706786Y-16738071D01*
X8692500Y-16752357D01*
X8678214Y-16780929D01*
X8678214Y-16838072D01*
X8692500Y-16866643D01*
X8706786Y-16880929D01*
X8735357Y-16895214D01*
X8792500Y-16895214D01*
X8821071Y-16880929D01*
X8835357Y-16866643D01*
X8849643Y-16838072D01*
X8849643Y-16780929D01*
X8835357Y-16752357D01*
X8821071Y-16738071D01*
X8792500Y-16723786D01*
X9035357Y-16595214D02*
X9063929Y-16595214D01*
X9092500Y-16609500D01*
X9106786Y-16623786D01*
X9121071Y-16652357D01*
X9135357Y-16709500D01*
X9135357Y-16780929D01*
X9121071Y-16838072D01*
X9106786Y-16866643D01*
X9092500Y-16880929D01*
X9063929Y-16895214D01*
X9035357Y-16895214D01*
X9006786Y-16880929D01*
X8992500Y-16866643D01*
X8978214Y-16838072D01*
X8963929Y-16780929D01*
X8963929Y-16709500D01*
X8978214Y-16652357D01*
X8992500Y-16623786D01*
X9006786Y-16609500D01*
X9035357Y-16595214D01*
X9263929Y-16895214D02*
X9263929Y-16695214D01*
X9263929Y-16723786D02*
X9278214Y-16709500D01*
X9306786Y-16695214D01*
X9349643Y-16695214D01*
X9378214Y-16709500D01*
X9392500Y-16738071D01*
X9392500Y-16895214D01*
X9392500Y-16738071D02*
X9406786Y-16709500D01*
X9435357Y-16695214D01*
X9478214Y-16695214D01*
X9506786Y-16709500D01*
X9521071Y-16738071D01*
X9521071Y-16895214D01*
X9663929Y-16895214D02*
X9663929Y-16695214D01*
X9663929Y-16723786D02*
X9678214Y-16709500D01*
X9706786Y-16695214D01*
X9749643Y-16695214D01*
X9778214Y-16709500D01*
X9792500Y-16738071D01*
X9792500Y-16895214D01*
X9792500Y-16738071D02*
X9806786Y-16709500D01*
X9835357Y-16695214D01*
X9878214Y-16695214D01*
X9906786Y-16709500D01*
X9921071Y-16738071D01*
X9921071Y-16895214D01*
X10506786Y-16580929D02*
X10249643Y-16966643D01*
X10892500Y-16595214D02*
X10921071Y-16595214D01*
X10949643Y-16609500D01*
X10963928Y-16623786D01*
X10978214Y-16652357D01*
X10992500Y-16709500D01*
X10992500Y-16780929D01*
X10978214Y-16838072D01*
X10963928Y-16866643D01*
X10949643Y-16880929D01*
X10921071Y-16895214D01*
X10892500Y-16895214D01*
X10863928Y-16880929D01*
X10849643Y-16866643D01*
X10835357Y-16838072D01*
X10821071Y-16780929D01*
X10821071Y-16709500D01*
X10835357Y-16652357D01*
X10849643Y-16623786D01*
X10863928Y-16609500D01*
X10892500Y-16595214D01*
X11121071Y-16866643D02*
X11135357Y-16880929D01*
X11121071Y-16895214D01*
X11106786Y-16880929D01*
X11121071Y-16866643D01*
X11121071Y-16895214D01*
X11321071Y-16595214D02*
X11349643Y-16595214D01*
X11378214Y-16609500D01*
X11392500Y-16623786D01*
X11406785Y-16652357D01*
X11421071Y-16709500D01*
X11421071Y-16780929D01*
X11406785Y-16838072D01*
X11392500Y-16866643D01*
X11378214Y-16880929D01*
X11349643Y-16895214D01*
X11321071Y-16895214D01*
X11292500Y-16880929D01*
X11278214Y-16866643D01*
X11263928Y-16838072D01*
X11249643Y-16780929D01*
X11249643Y-16709500D01*
X11263928Y-16652357D01*
X11278214Y-16623786D01*
X11292500Y-16609500D01*
X11321071Y-16595214D01*
X11521071Y-16595214D02*
X11706785Y-16595214D01*
X11606785Y-16709500D01*
X11649643Y-16709500D01*
X11678214Y-16723786D01*
X11692500Y-16738071D01*
X11706785Y-16766643D01*
X11706785Y-16838072D01*
X11692500Y-16866643D01*
X11678214Y-16880929D01*
X11649643Y-16895214D01*
X11563928Y-16895214D01*
X11535357Y-16880929D01*
X11521071Y-16866643D01*
X11992500Y-16895214D02*
X11821071Y-16895214D01*
X11906785Y-16895214D02*
X11906785Y-16595214D01*
X11878214Y-16638071D01*
X11849643Y-16666643D01*
X11821071Y-16680929D01*
X12106786Y-16595214D02*
X12106786Y-16652357D01*
X12221071Y-16595214D02*
X12221071Y-16652357D01*
X12663928Y-17009500D02*
X12649643Y-16995214D01*
X12621071Y-16952357D01*
X12606785Y-16923786D01*
X12592500Y-16880929D01*
X12578214Y-16809500D01*
X12578214Y-16752357D01*
X12592500Y-16680929D01*
X12606785Y-16638071D01*
X12621071Y-16609500D01*
X12649643Y-16566643D01*
X12663928Y-16552357D01*
X12749643Y-16595214D02*
X12949643Y-16595214D01*
X12821071Y-16895214D01*
X13292500Y-16895214D02*
X13292500Y-16595214D01*
X13421071Y-16895214D02*
X13421071Y-16738071D01*
X13406785Y-16709500D01*
X13378214Y-16695214D01*
X13335357Y-16695214D01*
X13306785Y-16709500D01*
X13292500Y-16723786D01*
X13606785Y-16895214D02*
X13578214Y-16880929D01*
X13563928Y-16866643D01*
X13549643Y-16838072D01*
X13549643Y-16752357D01*
X13563928Y-16723786D01*
X13578214Y-16709500D01*
X13606785Y-16695214D01*
X13649643Y-16695214D01*
X13678214Y-16709500D01*
X13692500Y-16723786D01*
X13706785Y-16752357D01*
X13706785Y-16838072D01*
X13692500Y-16866643D01*
X13678214Y-16880929D01*
X13649643Y-16895214D01*
X13606785Y-16895214D01*
X13878214Y-16895214D02*
X13849643Y-16880929D01*
X13835357Y-16852357D01*
X13835357Y-16595214D01*
X14106786Y-16880929D02*
X14078214Y-16895214D01*
X14021071Y-16895214D01*
X13992500Y-16880929D01*
X13978214Y-16852357D01*
X13978214Y-16738071D01*
X13992500Y-16709500D01*
X14021071Y-16695214D01*
X14078214Y-16695214D01*
X14106786Y-16709500D01*
X14121071Y-16738071D01*
X14121071Y-16766643D01*
X13978214Y-16795214D01*
X14235357Y-16880929D02*
X14263928Y-16895214D01*
X14321071Y-16895214D01*
X14349643Y-16880929D01*
X14363928Y-16852357D01*
X14363928Y-16838072D01*
X14349643Y-16809500D01*
X14321071Y-16795214D01*
X14278214Y-16795214D01*
X14249643Y-16780929D01*
X14235357Y-16752357D01*
X14235357Y-16738071D01*
X14249643Y-16709500D01*
X14278214Y-16695214D01*
X14321071Y-16695214D01*
X14349643Y-16709500D01*
X14463928Y-17009500D02*
X14478214Y-16995214D01*
X14506786Y-16952357D01*
X14521071Y-16923786D01*
X14535357Y-16880929D01*
X14549643Y-16809500D01*
X14549643Y-16752357D01*
X14535357Y-16680929D01*
X14521071Y-16638071D01*
X14506786Y-16609500D01*
X14478214Y-16566643D01*
X14463928Y-16552357D01*
X7974927Y-17197927D02*
X7974927Y-17113073D01*
X7890073Y-17113073D01*
X7890073Y-17197927D01*
X7974927Y-17197927D01*
X8421071Y-17291214D02*
X8249643Y-17291214D01*
X8335357Y-17291214D02*
X8335357Y-16991214D01*
X8306786Y-17034072D01*
X8278214Y-17062643D01*
X8249643Y-17076929D01*
X8549643Y-17262643D02*
X8563929Y-17276929D01*
X8549643Y-17291214D01*
X8535357Y-17276929D01*
X8549643Y-17262643D01*
X8549643Y-17291214D01*
X8678214Y-17019786D02*
X8692500Y-17005500D01*
X8721071Y-16991214D01*
X8792500Y-16991214D01*
X8821071Y-17005500D01*
X8835357Y-17019786D01*
X8849643Y-17048357D01*
X8849643Y-17076929D01*
X8835357Y-17119786D01*
X8663928Y-17291214D01*
X8849643Y-17291214D01*
X9035357Y-16991214D02*
X9063929Y-16991214D01*
X9092500Y-17005500D01*
X9106786Y-17019786D01*
X9121071Y-17048357D01*
X9135357Y-17105500D01*
X9135357Y-17176929D01*
X9121071Y-17234072D01*
X9106786Y-17262643D01*
X9092500Y-17276929D01*
X9063929Y-17291214D01*
X9035357Y-17291214D01*
X9006786Y-17276929D01*
X8992500Y-17262643D01*
X8978214Y-17234072D01*
X8963929Y-17176929D01*
X8963929Y-17105500D01*
X8978214Y-17048357D01*
X8992500Y-17019786D01*
X9006786Y-17005500D01*
X9035357Y-16991214D01*
X9263929Y-17291214D02*
X9263929Y-17091214D01*
X9263929Y-17119786D02*
X9278214Y-17105500D01*
X9306786Y-17091214D01*
X9349643Y-17091214D01*
X9378214Y-17105500D01*
X9392500Y-17134072D01*
X9392500Y-17291214D01*
X9392500Y-17134072D02*
X9406786Y-17105500D01*
X9435357Y-17091214D01*
X9478214Y-17091214D01*
X9506786Y-17105500D01*
X9521071Y-17134072D01*
X9521071Y-17291214D01*
X9663929Y-17291214D02*
X9663929Y-17091214D01*
X9663929Y-17119786D02*
X9678214Y-17105500D01*
X9706786Y-17091214D01*
X9749643Y-17091214D01*
X9778214Y-17105500D01*
X9792500Y-17134072D01*
X9792500Y-17291214D01*
X9792500Y-17134072D02*
X9806786Y-17105500D01*
X9835357Y-17091214D01*
X9878214Y-17091214D01*
X9906786Y-17105500D01*
X9921071Y-17134072D01*
X9921071Y-17291214D01*
X10506786Y-16976929D02*
X10249643Y-17362643D01*
X10892500Y-16991214D02*
X10921071Y-16991214D01*
X10949643Y-17005500D01*
X10963928Y-17019786D01*
X10978214Y-17048357D01*
X10992500Y-17105500D01*
X10992500Y-17176929D01*
X10978214Y-17234072D01*
X10963928Y-17262643D01*
X10949643Y-17276929D01*
X10921071Y-17291214D01*
X10892500Y-17291214D01*
X10863928Y-17276929D01*
X10849643Y-17262643D01*
X10835357Y-17234072D01*
X10821071Y-17176929D01*
X10821071Y-17105500D01*
X10835357Y-17048357D01*
X10849643Y-17019786D01*
X10863928Y-17005500D01*
X10892500Y-16991214D01*
X11121071Y-17262643D02*
X11135357Y-17276929D01*
X11121071Y-17291214D01*
X11106786Y-17276929D01*
X11121071Y-17262643D01*
X11121071Y-17291214D01*
X11321071Y-16991214D02*
X11349643Y-16991214D01*
X11378214Y-17005500D01*
X11392500Y-17019786D01*
X11406785Y-17048357D01*
X11421071Y-17105500D01*
X11421071Y-17176929D01*
X11406785Y-17234072D01*
X11392500Y-17262643D01*
X11378214Y-17276929D01*
X11349643Y-17291214D01*
X11321071Y-17291214D01*
X11292500Y-17276929D01*
X11278214Y-17262643D01*
X11263928Y-17234072D01*
X11249643Y-17176929D01*
X11249643Y-17105500D01*
X11263928Y-17048357D01*
X11278214Y-17019786D01*
X11292500Y-17005500D01*
X11321071Y-16991214D01*
X11678214Y-17091214D02*
X11678214Y-17291214D01*
X11606785Y-16976929D02*
X11535357Y-17191214D01*
X11721071Y-17191214D01*
X11806785Y-16991214D02*
X12006785Y-16991214D01*
X11878214Y-17291214D01*
X12106786Y-16991214D02*
X12106786Y-17048357D01*
X12221071Y-16991214D02*
X12221071Y-17048357D01*
X12663928Y-17405500D02*
X12649643Y-17391214D01*
X12621071Y-17348357D01*
X12606785Y-17319786D01*
X12592500Y-17276929D01*
X12578214Y-17205500D01*
X12578214Y-17148357D01*
X12592500Y-17076929D01*
X12606785Y-17034072D01*
X12621071Y-17005500D01*
X12649643Y-16962643D01*
X12663928Y-16948357D01*
X12763928Y-17019786D02*
X12778214Y-17005500D01*
X12806785Y-16991214D01*
X12878214Y-16991214D01*
X12906785Y-17005500D01*
X12921071Y-17019786D01*
X12935357Y-17048357D01*
X12935357Y-17076929D01*
X12921071Y-17119786D01*
X12749643Y-17291214D01*
X12935357Y-17291214D01*
X13292500Y-17291214D02*
X13292500Y-16991214D01*
X13421071Y-17291214D02*
X13421071Y-17134072D01*
X13406785Y-17105500D01*
X13378214Y-17091214D01*
X13335357Y-17091214D01*
X13306785Y-17105500D01*
X13292500Y-17119786D01*
X13606785Y-17291214D02*
X13578214Y-17276929D01*
X13563928Y-17262643D01*
X13549643Y-17234072D01*
X13549643Y-17148357D01*
X13563928Y-17119786D01*
X13578214Y-17105500D01*
X13606785Y-17091214D01*
X13649643Y-17091214D01*
X13678214Y-17105500D01*
X13692500Y-17119786D01*
X13706785Y-17148357D01*
X13706785Y-17234072D01*
X13692500Y-17262643D01*
X13678214Y-17276929D01*
X13649643Y-17291214D01*
X13606785Y-17291214D01*
X13878214Y-17291214D02*
X13849643Y-17276929D01*
X13835357Y-17248357D01*
X13835357Y-16991214D01*
X14106786Y-17276929D02*
X14078214Y-17291214D01*
X14021071Y-17291214D01*
X13992500Y-17276929D01*
X13978214Y-17248357D01*
X13978214Y-17134072D01*
X13992500Y-17105500D01*
X14021071Y-17091214D01*
X14078214Y-17091214D01*
X14106786Y-17105500D01*
X14121071Y-17134072D01*
X14121071Y-17162643D01*
X13978214Y-17191214D01*
X14235357Y-17276929D02*
X14263928Y-17291214D01*
X14321071Y-17291214D01*
X14349643Y-17276929D01*
X14363928Y-17248357D01*
X14363928Y-17234072D01*
X14349643Y-17205500D01*
X14321071Y-17191214D01*
X14278214Y-17191214D01*
X14249643Y-17176929D01*
X14235357Y-17148357D01*
X14235357Y-17134072D01*
X14249643Y-17105500D01*
X14278214Y-17091214D01*
X14321071Y-17091214D01*
X14349643Y-17105500D01*
X14463928Y-17405500D02*
X14478214Y-17391214D01*
X14506786Y-17348357D01*
X14521071Y-17319786D01*
X14535357Y-17276929D01*
X14549643Y-17205500D01*
X14549643Y-17148357D01*
X14535357Y-17076929D01*
X14521071Y-17034072D01*
X14506786Y-17005500D01*
X14478214Y-16962643D01*
X14463928Y-16948357D01*
M02*
